<svg xmlns="http://www.w3.org/2000/svg" xmlns:xlink="http://www.w3.org/1999/xlink" id="Layer_1" x="0px" y="0px" viewBox="0 0 512 512" style="enable-background:new 0 0 512 512;" xml:space="preserve" width="512" height="512" class=""><g><g>
	<path style="fill:#FFB229" d="M372.099,121.472c-2.783,0-5.555,0.202-8.241,0.522c-11.843-49.336-56.215-86.06-109.197-86.06   s-97.349,36.723-109.207,86.06c-2.665-0.32-5.42-0.522-8.223-0.522c-38.428,0-69.558,31.142-69.558,69.558   c0,38.431,31.132,69.565,69.558,69.565h234.867c38.385,0,69.558-31.135,69.558-69.565   C441.654,152.612,410.483,121.472,372.099,121.472z" data-original="#63D1DB" class="" data-old_color="#63D1DB"></path>
	<polygon style="fill:#FFB229" points="137.231,296.404 137.231,260.595 173.041,260.595  " data-original="#63D1DB" class="" data-old_color="#63D1DB"></polygon>
</g><g>
	<path style="fill:#2E3133;" d="M135.347,463.616H0V357.21h135.347V463.616z M10.685,452.931h113.976v-85.038H10.685V452.931z" data-original="#2E3133" class=""></path>
	<polygon style="fill:#2E3133;" points="73.016,362.55 62.331,362.55 62.331,315.561 202.573,315.561 202.573,260.595    213.258,260.595 213.258,326.246 73.016,326.246  " data-original="#2E3133" class=""></polygon>
</g><rect x="23.142" y="380.347" style="fill:#F95632;" width="124.662" height="95.718" data-original="#F95632"></rect><polygon style="fill:#2D110A;" points="135.347,380.36 124.662,380.36 124.662,452.931 23.15,452.931 23.15,463.616   135.347,463.616 " data-original="#2D110A"></polygon><polygon style="fill:#FFFFFF;" points="46.518,446.246 38.963,438.689 61.732,415.918 75.983,430.164 94.981,411.164   109.225,425.413 124.444,410.194 132.001,417.751 109.225,440.522 94.981,426.276 75.983,445.274 61.732,431.027 " data-original="#FFFFFF"></polygon><g>
	<path style="fill:#2E3133;" d="M322.337,463.616H186.99V357.21h135.347L322.337,463.616L322.337,463.616z M197.676,452.931h113.976   v-85.038H197.676V452.931z" data-original="#2E3133" class=""></path>
	<rect x="249.318" y="222.164" style="fill:#2E3133;" width="10.685" height="140.393" data-original="#2E3133" class=""></rect>
</g><rect x="213.709" y="376.788" style="fill:#FFB229" width="124.662" height="95.718" data-original="#63D1DB" class="" data-old_color="#63D1DB"></rect><polygon style="fill:#12282C;" points="322.337,376.799 311.652,376.799 311.652,452.931 213.704,452.931 213.704,463.616   322.337,463.616 " data-original="#12282C"></polygon><g>
	<path style="fill:#FFFFFF;" d="M302.789,457.316H249.28V445.56c0-3.996,1.521-7.987,4.582-11.036   c3.036-3.044,7.037-4.577,11.034-4.577h22.277c3.994,0,7.972,1.533,11.041,4.577c3.057,3.046,4.575,7.04,4.575,11.036V457.316   L302.789,457.316z" data-original="#FFFFFF"></path>
	<path style="fill:#FFFFFF;" d="M291.638,407.611c0,8.612-6.966,15.613-15.603,15.613c-8.62,0-15.611-6.999-15.611-15.613   c0-8.604,6.989-15.611,15.611-15.611C284.672,392,291.638,399.004,291.638,407.611z" data-original="#FFFFFF"></path>
</g><g>
	<path style="fill:#2E3133;" d="M509.327,463.616H373.983V357.21h135.345V463.616z M384.668,452.931h113.974v-85.038H384.668   V452.931z" data-original="#2E3133" class=""></path>
	<polygon style="fill:#2E3133;" points="446.996,362.55 436.314,362.55 436.314,326.246 296.069,326.246 296.069,260.595    306.755,260.595 306.755,315.561 446.996,315.561  " data-original="#2E3133" class=""></polygon>
</g><rect x="364.186" y="380.142" style="fill:#F95632;" width="124.659" height="95.718" data-original="#F95632"></rect><polygon style="fill:#2D110A;" points="488.847,452.931 384.668,452.931 384.668,380.134 373.983,380.134 373.983,463.616   488.847,463.616 " data-original="#2D110A"></polygon><path style="fill:#FFFFFF;" d="M460.347,431.749l0.008-7.506l-7.956-3.041c-0.612-2.381-1.564-4.628-2.783-6.707l3.484-7.762  l-5.322-5.322l-7.762,3.484c-2.081-1.219-4.334-2.163-6.72-2.79l-3.028-7.944h-7.514l-3.028,7.944  c-2.386,0.627-4.641,1.572-6.72,2.79l-7.762-3.484l-5.315,5.322l3.484,7.762c-1.219,2.081-2.171,4.326-2.79,6.712l-7.944,3.036  v7.506l7.944,3.039c0.62,2.378,1.572,4.634,2.79,6.707l-3.484,7.767l5.315,5.32l7.762-3.487c2.086,1.219,4.334,2.166,6.72,2.79  l3.028,7.946h7.514l3.028-7.946c2.386-0.625,4.641-1.572,6.72-2.79l7.762,3.487l5.322-5.32l-3.484-7.767  c1.219-2.076,2.171-4.329,2.783-6.707L460.347,431.749z M426.516,441.651c-7.539,0-13.655-6.113-13.655-13.652  c0-7.542,6.116-13.652,13.655-13.652c7.542,0,13.658,6.111,13.658,13.652C440.174,435.538,434.061,441.651,426.516,441.651z" data-original="#FFFFFF"></path><polygon style="fill:#C1CED4;" points="328.31,75.868 328.31,167.667 448.673,167.667 472.146,191.132 472.146,167.667   486.4,167.667 486.4,75.868 " data-original="#C1CED4" class=""></polygon><path style="fill:#EB7D16" d="M328.31,167.667h109.307c-9.608-26.921-35.328-46.195-65.521-46.195  c-2.783,0-5.555,0.202-8.241,0.522c-4.145-17.27-12.288-32.98-23.375-46.126h-12.173v91.799H328.31z" data-original="#4BA9B6" class="active-path" data-old_color="#4BA9B6"></path><g>
	<rect x="12.467" y="199.764" style="fill:#2E3133;" width="44.15" height="10.685" data-original="#2E3133" class=""></rect>
	<rect x="12.467" y="176.602" style="fill:#2E3133;" width="128.23" height="10.685" data-original="#2E3133" class=""></rect>
	<rect x="12.467" y="153.452" style="fill:#2E3133;" width="128.23" height="10.685" data-original="#2E3133" class=""></rect>
	<rect x="383.77" y="127.626" style="fill:#2E3133;" width="128.23" height="10.685" data-original="#2E3133" class=""></rect>
</g><path style="fill:#0E2024" d="M383.777,127.626v10.685h33.631c-5.025-4.326-10.68-7.926-16.801-10.685H383.777z" data-original="#0E2024" class=""></path><rect x="383.77" y="104.479" style="fill:#2E3133;" width="86.072" height="10.685" data-original="#2E3133" class=""></rect><g>
	<path style="fill:#12282C;" d="M140.69,187.287v-10.685H69.179c-0.735,3.474-1.211,7.04-1.405,10.685L140.69,187.287   L140.69,187.287z" data-original="#12282C"></path>
	<path style="fill:#12282C;" d="M140.69,153.452H78.707c-2.171,3.377-4.073,6.943-5.642,10.685h67.625V153.452z" data-original="#12282C"></path>
	<rect x="249.318" y="222.164" style="fill:#12282C;" width="10.685" height="38.451" data-original="#12282C"></rect>
</g></g> </svg>