<svg xmlns="http://www.w3.org/2000/svg" xmlns:xlink="http://www.w3.org/1999/xlink" id="Layer_1" x="0px" y="0px" viewBox="0 0 512 512" style="enable-background:new 0 0 512 512;" xml:space="preserve" width="512" height="512" class=""><g><rect x="127.849" y="167.041" style="fill:#FFB229" width="247.04" height="183.296" data-original="#63D1DB" class="" data-old_color="#63D1DB"></rect><g>
	<path style="fill:#2E3133;" d="M421.381,387.557H121.208c-10.12,0-18.35-8.236-18.35-18.353V169.98   c0-10.12,8.23-18.353,18.35-18.353h300.173c10.117,0,18.35,8.233,18.35,18.353v199.222   C439.731,379.322,431.498,387.557,421.381,387.557z M121.208,161.768c-4.529,0-8.212,3.686-8.212,8.212v199.222   c0,4.529,3.684,8.212,8.212,8.212h300.173c4.529,0,8.21-3.684,8.21-8.212V169.98c0-4.529-3.681-8.212-8.21-8.212   C421.381,161.768,121.208,161.768,121.208,161.768z" data-original="#2E3133" class=""></path>
	<rect x="409.677" y="246.888" style="fill:#2E3133;" width="10.138" height="45.432" data-original="#2E3133" class=""></rect>
	<rect x="122.778" y="262.785" style="fill:#2E3133;" width="10.138" height="13.612" data-original="#2E3133" class=""></rect>
	<path style="fill:#2E3133;" d="M399.88,366.304H142.7V172.878h257.18V366.304z M152.84,356.166h236.905V183.018H152.84V356.166z" data-original="#2E3133" class=""></path>
</g><g>
	<rect x="194.345" y="273.435" style="fill:#FFFFFF;" width="15.386" height="15.386" data-original="#FFFFFF" class=""></rect>
	<rect x="217.434" y="273.435" style="fill:#FFFFFF;" width="15.386" height="15.386" data-original="#FFFFFF" class=""></rect>
	<rect x="240.512" y="273.435" style="fill:#FFFFFF;" width="15.386" height="15.386" data-original="#FFFFFF" class=""></rect>
	<rect x="263.603" y="273.435" style="fill:#FFFFFF;" width="15.411" height="15.386" data-original="#FFFFFF" class=""></rect>
	<rect x="286.669" y="273.435" style="fill:#FFFFFF;" width="15.386" height="15.386" data-original="#FFFFFF" class=""></rect>
	<rect x="309.76" y="273.435" style="fill:#FFFFFF;" width="15.386" height="15.386" data-original="#FFFFFF" class=""></rect>
	<rect x="332.851" y="273.435" style="fill:#FFFFFF;" width="15.386" height="15.386" data-original="#FFFFFF" class=""></rect>
	<rect x="182.81" y="296.526" style="fill:#FFFFFF;" width="15.386" height="15.386" data-original="#FFFFFF" class=""></rect>
	<rect x="205.875" y="296.526" style="fill:#FFFFFF;" width="15.386" height="15.386" data-original="#FFFFFF" class=""></rect>
	<rect x="228.966" y="296.526" style="fill:#FFFFFF;" width="15.386" height="15.386" data-original="#FFFFFF" class=""></rect>
	<rect x="252.058" y="296.526" style="fill:#FFFFFF;" width="15.386" height="15.386" data-original="#FFFFFF" class=""></rect>
	<rect x="275.149" y="296.526" style="fill:#FFFFFF;" width="15.386" height="15.386" data-original="#FFFFFF" class=""></rect>
	<rect x="298.214" y="296.526" style="fill:#FFFFFF;" width="15.386" height="15.386" data-original="#FFFFFF" class=""></rect>
	<rect x="321.306" y="296.526" style="fill:#FFFFFF;" width="15.386" height="15.386" data-original="#FFFFFF" class=""></rect>
	<rect x="344.371" y="296.526" style="fill:#FFFFFF;" width="15.386" height="15.386" data-original="#FFFFFF" class=""></rect>
	<rect x="194.345" y="319.592" style="fill:#FFFFFF;" width="15.386" height="15.386" data-original="#FFFFFF" class=""></rect>
	<rect x="217.434" y="319.592" style="fill:#FFFFFF;" width="107.725" height="15.386" data-original="#FFFFFF" class=""></rect>
	<rect x="332.851" y="319.592" style="fill:#FFFFFF;" width="15.386" height="15.386" data-original="#FFFFFF" class=""></rect>
</g><rect x="412.518" y="98.049" style="fill:#F95632;" width="95.642" height="119.805" data-original="#F95632" class=""></rect><g>
	<polygon style="fill:#FFFFFF;" points="456.852,185.988 446.712,185.988 446.712,124.868 480.906,124.868 480.906,135.008    456.852,135.008  " data-original="#FFFFFF" class=""></polygon>
	<rect x="439.782" y="152.892" style="fill:#FFFFFF;" width="29.115" height="10.138" data-original="#FFFFFF" class=""></rect>
</g><rect x="50.437" y="354.817" style="fill:#FFB229" width="83.63" height="83.627" data-original="#63D1DB" class="" data-old_color="#63D1DB"></rect><g>
	<path style="fill:#2E3133;" d="M97.564,426.533c-5.158,0-9.992-2.007-13.619-5.647c-3.63-3.604-5.64-8.445-5.64-13.606v-35.474   h10.138v35.474c0,2.437,0.947,4.723,2.668,6.433c3.459,3.474,9.469,3.456,12.902,0.015c1.728-1.723,2.675-4.009,2.675-6.449h10.138   c0,5.158-2.007,9.997-5.65,13.619C107.556,424.529,102.717,426.533,97.564,426.533z" data-original="#2E3133" class=""></path>
	<rect x="72.732" y="384.462" style="fill:#2E3133;" width="21.281" height="10.14" data-original="#2E3133" class=""></rect>
</g><polygon style="fill:#C1CED4;" points="33.068,73.555 33.068,196.553 173.947,196.553 212.969,235.56 212.969,196.553   236.667,196.553 236.667,73.555 " data-original="#C1CED4" class=""></polygon><polygon style="fill:#EB7D16" points="127.849,167.054 127.849,196.553 173.947,196.553 212.969,235.56 212.969,196.553   236.667,196.553 236.667,167.054 " data-original="#4BA9B6" class="active-path" data-old_color="#4BA9B6"></polygon><g>
	<rect x="13.386" y="137.012" style="fill:#2E3133;" width="82.739" height="10.138" data-original="#2E3133" class=""></rect>
	<rect x="13.386" y="116.589" style="fill:#2E3133;" width="166.528" height="10.138" data-original="#2E3133" class=""></rect>
	<rect x="13.386" y="96.17" style="fill:#2E3133;" width="166.528" height="10.138" data-original="#2E3133" class=""></rect>
	<rect x="29.327" y="200.168" style="fill:#2E3133;" width="10.138" height="30.95" data-original="#2E3133" class=""></rect>
	<rect x="18.931" y="210.561" style="fill:#2E3133;" width="30.925" height="10.138" data-original="#2E3133" class=""></rect>
	<path style="fill:#2E3133;" d="M34.396,250.029C15.429,250.029,0,234.595,0,215.63c0-18.97,15.429-34.399,34.396-34.399   s34.396,15.429,34.396,34.399C68.792,234.595,53.363,250.029,34.396,250.029z M34.396,191.372   c-13.376,0-24.259,10.88-24.259,24.261c0,13.376,10.88,24.259,24.259,24.259s24.259-10.88,24.259-24.259   C58.655,202.252,47.772,191.372,34.396,191.372z" data-original="#2E3133" class=""></path>
</g><g>
	<path style="fill:#C1CED4;" d="M509.412,348.312c-1.736-1.736-4.001-2.604-6.269-2.604H461.32v17.718h41.823   c2.271,0,4.534-0.875,6.269-2.598c1.723-1.728,2.588-3.996,2.588-6.259C512,352.298,511.135,350.033,509.412,348.312z" data-original="#C1CED4" class=""></path>
	<path style="fill:#C1CED4;" d="M504.41,366.022c-1.743-1.725-4.001-2.596-6.272-2.596h-44.923v17.718h44.923   c2.273,0,4.531-0.868,6.272-2.598c1.71-1.733,2.58-3.991,2.58-6.257S506.12,367.75,504.41,366.022z" data-original="#C1CED4" class=""></path>
	<path style="fill:#C1CED4;" d="M499.492,383.735c-1.743-1.723-3.996-2.591-6.277-2.591h-48.113v17.71h48.113   c2.284,0,4.534-0.865,6.277-2.596c1.723-1.725,2.593-3.983,2.593-6.259C502.085,387.731,501.215,385.466,499.492,383.735z" data-original="#C1CED4" class=""></path>
	<path style="fill:#C1CED4;" d="M494.574,401.453c-1.731-1.733-3.996-2.601-6.272-2.601h-51.249v17.718h51.249   c2.278,0,4.541-0.863,6.272-2.593c1.723-1.733,2.593-3.996,2.593-6.267C497.167,405.452,496.297,403.186,494.574,401.453z" data-original="#C1CED4" class=""></path>
	<path style="fill:#C1CED4;" d="M468.467,308.507c-1.728-1.741-3.994-2.598-6.269-2.598c-2.25,0-4.534,0.858-6.249,2.598   c-1.743,1.731-2.596,3.991-2.596,6.254v-0.899c0,4.28-0.817,8.645-2.588,12.849c-1.749,4.206-4.206,7.764-7.247,10.778   c-2.58,2.529-5.676,4.628-9.221,6.083c-3.553,1.459-7.222,2.138-10.831,2.138h-14.766v70.863h53.496v-63.199l4.047-9.974   c1.556-3.884,2.772-7.956,3.602-12.221c0.812-4.242,1.216-8.499,1.216-12.672v-3.745   C471.063,312.495,470.211,310.237,468.467,308.507z" data-original="#C1CED4" class=""></path>
</g><g>
	<path style="fill:#23282A;" d="M34.396,181.231c-0.448,0-0.883,0.051-1.329,0.067v10.138c0.443-0.026,0.878-0.067,1.329-0.067   c5.635,0,10.811,1.948,14.932,5.181h13.665C56.822,187.324,46.31,181.231,34.396,181.231z" data-original="#23282A" class=""></path>
	<rect x="33.068" y="116.589" style="fill:#23282A;" width="146.842" height="10.138" data-original="#23282A" class=""></rect>
	<rect x="33.068" y="137.012" style="fill:#23282A;" width="63.05" height="10.138" data-original="#23282A" class=""></rect>
	<rect x="33.068" y="96.17" style="fill:#23282A;" width="146.842" height="10.138" data-original="#23282A" class=""></rect>
	<path style="fill:#23282A;" d="M112.996,196.553V169.98c0-4.529,3.684-8.212,8.212-8.212h115.459V151.63H121.208   c-10.12,0-18.35,8.233-18.35,18.353v26.57H112.996z" data-original="#23282A" class=""></path>
	<polygon style="fill:#23282A;" points="142.7,196.553 152.84,196.553 152.84,183.018 236.667,183.018 236.667,172.878    142.7,172.878  " data-original="#23282A" class=""></polygon>
	<path style="fill:#23282A;" d="M134.067,377.417h-12.859c-4.529,0-8.212-3.684-8.212-8.212V354.82h-10.138v14.385   c0,10.117,8.23,18.353,18.35,18.353h12.859V377.417z" data-original="#23282A" class=""></path>
</g><path style="fill:#FFB229" d="M421.381,151.628h-8.852v10.138h8.852c4.529,0,8.21,3.686,8.21,8.212v47.885h10.14V169.98  C439.731,159.863,431.498,151.628,421.381,151.628z" data-original="#2D110A" class="" data-old_color="#2D110A"></path><path style="fill:#23282A;" d="M439.731,369.204v-28.611c-1.672,1.16-3.474,2.176-5.432,2.977c-1.549,0.637-3.128,1.101-4.708,1.446  v24.184c0,4.529-3.681,8.212-8.21,8.212h-12.68v10.14h12.68C431.498,387.557,439.731,379.322,439.731,369.204z" data-original="#23282A" class=""></path></g> </svg>