<svg xmlns="http://www.w3.org/2000/svg" id="_027-artificial-intelligence" data-name="027-artificial-intelligence" width="149.881" height="152.466" viewBox="0 0 149.881 152.466"><g id="Learning_Intelligence" data-name="Learning Intelligence" transform="translate(0 0)"><path id="Path_2174" data-name="Path 2174" d="M99.188,13V90.525H42.337a5.184,5.184,0,0,0-5.168,5.168A5.184,5.184,0,0,1,32,100.862h74.941V13Z" transform="translate(42.941 15.426)" fill="#ffce00"></path><path id="Path_2175" data-name="Path 2175" d="M34,43H96.02v5.168H34Z" transform="translate(46.109 62.951)" fill="#ffb229"></path><path id="Path_2176" data-name="Path 2176" d="M72.772,95.694A5.184,5.184,0,0,0,67.6,90.525H10.752V13H3v87.862H77.941A5.184,5.184,0,0,1,72.772,95.694Z" transform="translate(-3 15.426)" fill="#ffce00"></path><path id="Path_2177" data-name="Path 2177" d="M88.267,9H34v93.03a5.184,5.184,0,0,1,5.168-5.168H96.02V9Z" transform="translate(46.109 9.089)" fill="#e6e7e8"></path><path id="Path_2178" data-name="Path 2178" d="M64.116,66.728A15.717,15.717,0,0,1,65.64,57.76a14.315,14.315,0,0,1,.775-1.37,15.172,15.172,0,0,1,5.323-5.143L70.447,49,66.57,42.307a5.175,5.175,0,1,1,8.967-5.168L86.649,56.391l.517.879.569,9.458.129,2.067,7.752,13.438L59.8,102.906,52.048,89.468,38.92,66.728Z" transform="translate(53.903 49.56)" fill="#bcbec0"></path><path id="Path_2179" data-name="Path 2179" d="M6,43H68.02v5.168H6Z" transform="translate(1.752 62.951)" fill="#ffb229"></path><path id="Path_2180" data-name="Path 2180" d="M67.736,12.54A5.168,5.168,0,0,0,62.851,9H6V96.862H62.851a5.184,5.184,0,0,1,5.168,5.168V14.168A4.91,4.91,0,0,0,67.736,12.54Z" transform="translate(1.752 9.089)" fill="#e6e7e8"></path><path id="Path_2181" data-name="Path 2181" d="M34.641,66.728h25.2L46.709,89.468l-7.752,13.438L3.14,82.233l7.752-13.438.129-2.067.569-9.458.517-.879L23.219,37.139a5.175,5.175,0,1,1,8.967,5.168L28.31,49l-1.292,2.248a15.172,15.172,0,0,1,5.323,5.143,14.319,14.319,0,0,1,.775,1.37A15.717,15.717,0,0,1,34.641,66.728Z" transform="translate(-2.778 49.56)" fill="#bcbec0"></path><path id="Path_2182" data-name="Path 2182" d="M20.337,9V24.505l-5.168-5.168L10,24.505V9Z" transform="translate(8.089 9.089)" fill="#ffb229"></path><path id="Path_2183" data-name="Path 2183" d="M37.752,12H30V97.278a5.168,5.168,0,1,0,10.337,0V12Z" transform="translate(39.772 13.842)" fill="#eb7d16"></path><path id="Path_2184" data-name="Path 2184" d="M54.168,23A5.168,5.168,0,1,1,49,28.168,5.168,5.168,0,0,1,54.168,23Z" transform="translate(69.871 31.268)" fill="#ffb229"></path><ellipse id="Ellipse_143" data-name="Ellipse 143" cx="6" cy="5" rx="6" ry="5" transform="translate(92.269 61.716)" fill="#ffb229"></ellipse><path id="Path_2185" data-name="Path 2185" d="M37.812,24.525A5.052,5.052,0,0,0,34.168,23a5.168,5.168,0,1,0,5.168,5.168,5.052,5.052,0,0,0-1.525-3.644Z" transform="translate(38.188 31.268)" fill="#ffb229"></path><path id="Path_2186" data-name="Path 2186" d="M58,13h5.168V95.694H58Z" transform="translate(84.129 15.426)" fill="#ffb229"></path><path id="Path_2187" data-name="Path 2187" d="M56.168,9v4.316L51,11.584V9Z" transform="translate(73.04 9.089)" fill="#d1d3d4"></path><path id="Path_2188" data-name="Path 2188" d="M90.851,14.061v7.753l-5.168,5.168H34V21.814H80.515l5.168-5.168V12.33Z" transform="translate(46.109 14.365)" fill="#d1d3d4"></path><path id="Path_2189" data-name="Path 2189" d="M30,16H40.337v5.168H30Z" transform="translate(39.772 20.178)" fill="#ffce00"></path><path id="Path_2190" data-name="Path 2190" d="M87.436,21.089V13.337L82.267,8.168H71.931L64.178,3H51.257L43.5,10.753H38.337L35.752,21.089l-2.868.956L28,23.673v7.753l5.168,5.168H90.02l5.168-5.168V23.673Z" transform="translate(36.604 -0.416)" fill="#ffb229"></path><path id="Path_2191" data-name="Path 2191" d="M40,16h5.168V41.842H40Z" transform="translate(55.614 20.178)" fill="#ffa733"></path><path id="Path_2192" data-name="Path 2192" d="M53.45,37.449l-6.693-6.693A2.584,2.584,0,0,1,46,28.921V16h5.168V27.851l5.944,5.944Z" transform="translate(65.119 20.178)" fill="#ffa733"></path><path id="Path_2193" data-name="Path 2193" d="M35.362,37.449,31.7,33.787l5.944-5.944V16h5.168V28.921a2.584,2.584,0,0,1-.757,1.827Z" transform="translate(42.465 20.178)" fill="#ffa733"></path><g id="Group_353" data-name="Group 353" transform="translate(20.673 41.347)"><path id="Path_2194" data-name="Path 2194" d="M39,34H59.673v5.168H39Z" transform="translate(33.356 7.347)" fill="#bcbec0"></path><path id="Path_2195" data-name="Path 2195" d="M39,38H59.673v5.168H39Z" transform="translate(33.356 13.683)" fill="#bcbec0"></path><path id="Path_2196" data-name="Path 2196" d="M11,18H47.178v5.168H11Z" transform="translate(-11 -18)" fill="#bcbec0"></path><path id="Path_2197" data-name="Path 2197" d="M11,22H47.178v5.168H11Z" transform="translate(-11 -11.663)" fill="#bcbec0"></path><path id="Path_2198" data-name="Path 2198" d="M11,26H47.178v5.168H11Z" transform="translate(-11 -5.327)" fill="#bcbec0"></path><path id="Path_2199" data-name="Path 2199" d="M11,30H47.178v5.168H11Z" transform="translate(-11 1.01)" fill="#bcbec0"></path></g><path id="Path_2200" data-name="Path 2200" d="M45.752,40.505A7.753,7.753,0,1,1,53.5,32.753a7.752,7.752,0,0,1-7.752,7.753Zm0-10.337a2.584,2.584,0,1,0,2.584,2.584A2.584,2.584,0,0,0,45.752,30.168Z" transform="translate(52.446 34.436)" fill="#ff9811"></path><path id="Path_2201" data-name="Path 2201" d="M55.752,37.505A7.753,7.753,0,1,1,63.5,29.753,7.753,7.753,0,0,1,55.752,37.505Zm0-10.337a2.584,2.584,0,1,0,2.584,2.584A2.584,2.584,0,0,0,55.752,27.168Z" transform="translate(68.287 29.683)" fill="#ff9811"></path><path id="Path_2202" data-name="Path 2202" d="M35.752,37.505A7.753,7.753,0,1,1,43.5,29.753a7.752,7.752,0,0,1-7.752,7.753Zm0-10.337a2.584,2.584,0,1,0,2.584,2.584A2.584,2.584,0,0,0,35.752,27.168Z" transform="translate(36.604 29.683)" fill="#ff9811"></path><path id="Path_2203" data-name="Path 2203" d="M97.589,22.808l-5.985-2V14.921a2.584,2.584,0,0,0-.757-1.827L85.678,7.926a2.584,2.584,0,0,0-1.827-.757H74.29L67.2,2.434A2.6,2.6,0,0,0,65.762,2H52.842a2.584,2.584,0,0,0-1.827.757l-7,7h-4.1a2.584,2.584,0,0,0-2.507,1.959l-2.24,8.959-6.406,2.137A2.584,2.584,0,0,0,27,25.258V33.01a2.584,2.584,0,0,0,.757,1.827l5.169,5.169a2.584,2.584,0,0,0,1.827.757H91.6a2.584,2.584,0,0,0,1.827-.757L98.6,34.837a2.584,2.584,0,0,0,.757-1.827V25.258a2.584,2.584,0,0,0-1.768-2.45Zm-3.4,9.132-3.654,3.654H35.822L32.168,31.94V27.121l4.471-1.491,4.039,4.039a2.584,2.584,0,0,0,1.827.757h2.584V25.258H43.575L40.2,21.88l1.742-6.959H55.426V9.753h-4.1l2.584-2.584H64.987l4.471,2.985-2.181,2.184H65.762v5.168h2.584a2.584,2.584,0,0,0,1.827-.757l4.412-4.412h8.2l3.654,3.654V21.6l-3.654,3.654H81.267v5.168h2.584a2.584,2.584,0,0,0,1.827-.757l4.039-4.039,4.471,1.491Z" transform="translate(35.02 -2)" fill="#eb7d16"></path><path id="Path_2204" data-name="Path 2204" d="M43.947,9.293l-3.654,3.654,5.168,5.168a2.584,2.584,0,0,0,1.827.757h7.752V13.7H48.358Z" transform="translate(56.078 9.553)" fill="#eb7d16"></path><path id="Path_2205" data-name="Path 2205" d="M40.168,9H35v5.168h4.1L40.925,16l3.654-3.654L42,9.757A2.584,2.584,0,0,0,40.168,9Z" transform="translate(47.693 9.089)" fill="#eb7d16"></path></g></svg>