<svg xmlns="http://www.w3.org/2000/svg" width="142.522" height="141.696" viewBox="0 0 142.522 141.696"><g transform="translate(0)"><g transform="translate(0 0)"><path id="Path_2233" data-name="Path 2233" d="M121.379,15.886V89.177H9V15.886A4.9,4.9,0,0,1,13.886,11H116.493A4.9,4.9,0,0,1,121.379,15.886Z" transform="translate(5.658 8.544)" fill="#ffb229"></path><path id="Path_2234" data-name="Path 2234" d="M80.975,15.886V54.975h-34.2a2.443,2.443,0,0,1-2.443-2.443V45.2H41.886A4.9,4.9,0,0,1,37,40.316V25.658a4.9,4.9,0,0,1,4.886-4.886A4.9,4.9,0,0,1,37,15.886V11H76.088A4.9,4.9,0,0,1,80.975,15.886Z" transform="translate(46.063 8.544)" fill="#ffce00"></path><rect id="Rectangle_294" data-name="Rectangle 294" width="62" height="27" rx="2" transform="translate(80.522 22.946)" fill="#acabb1"></rect><path id="Path_2235" data-name="Path 2235" d="M67.633,15.886V74.519a4.9,4.9,0,0,1-4.886,4.886H9V15.886A4.9,4.9,0,0,1,13.886,11H62.747Z" transform="translate(5.658 8.544)" fill="#ffce00"></path><path id="Path_2236" data-name="Path 2236" d="M71.4,22.544V81.177a4.9,4.9,0,0,1-4.886,4.886H7.886A4.9,4.9,0,0,1,3,81.177V7.886A4.9,4.9,0,0,1,7.886,3H51.861V17.658a4.9,4.9,0,0,0,4.886,4.886Z" transform="translate(-3 -3)" fill="#e6e7e8"></path><path id="Path_2237" data-name="Path 2237" d="M130.038,43,144.7,72.316H3L17.658,43Z" transform="translate(-3 54.722)" fill="#d1d3d4"></path><path id="Path_2238" data-name="Path 2238" d="M144.7,55v9.772a4.9,4.9,0,0,1-4.886,4.886H7.886A4.9,4.9,0,0,1,3,64.772V55Z" transform="translate(-3 72.038)" fill="#bcbec0"></path><ellipse id="Ellipse_144" data-name="Ellipse 144" cx="3.5" cy="9" rx="3.5" ry="9" transform="translate(89.522 27.946)" fill="#ff9811"></ellipse><path id="Path_2239" data-name="Path 2239" d="M86.861,23v7.329a2.443,2.443,0,0,1-2.443,2.443H40.443A2.443,2.443,0,0,1,38,30.329V23Z" transform="translate(47.506 25.861)" fill="#acabb1"></path><rect id="Rectangle_295" data-name="Rectangle 295" width="62" height="19" rx="2" transform="translate(80.522 3.946)" fill="#d1d3d4"></rect><ellipse id="Ellipse_145" data-name="Ellipse 145" cx="3.5" cy="7" rx="3.5" ry="7" transform="translate(89.522 6.946)" fill="#ff9811"></ellipse><path id="Path_2240" data-name="Path 2240" d="M42.544,22.544H27.886A4.9,4.9,0,0,1,23,17.658V3Z" transform="translate(25.861 -3)" fill="#bcbec0"></path><g id="Group_356" data-name="Group 356" transform="translate(17.101 48.861)"><path id="Path_2244" data-name="Path 2244" d="M38,23H86.861v4.886H38Z" transform="translate(30.405 -23)" fill="#898890"></path><path id="Path_2245" data-name="Path 2245" d="M10,50h4.886v4.886H10Z" transform="translate(-10 15.962)" fill="#898890"></path><path id="Path_2246" data-name="Path 2246" d="M14,50h4.886v4.886H14Z" transform="translate(-4.228 15.962)" fill="#898890"></path><path id="Path_2247" data-name="Path 2247" d="M48,50h4.886v4.886H48Z" transform="translate(44.835 15.962)" fill="#898890"></path><path id="Path_2248" data-name="Path 2248" d="M52,50h4.886v4.886H52Z" transform="translate(50.607 15.962)" fill="#898890"></path><path id="Path_2249" data-name="Path 2249" d="M15,46h4.886v4.886H15Z" transform="translate(-2.785 10.19)" fill="#898890"></path><path id="Path_2250" data-name="Path 2250" d="M11,46h4.886v4.886H11Z" transform="translate(-8.557 10.19)" fill="#898890"></path><path id="Path_2251" data-name="Path 2251" d="M19,46h4.886v4.886H19Z" transform="translate(2.987 10.19)" fill="#898890"></path><path id="Path_2252" data-name="Path 2252" d="M23,46h4.886v4.886H23Z" transform="translate(8.759 10.19)" fill="#898890"></path><path id="Path_2253" data-name="Path 2253" d="M27,46h4.886v4.886H27Z" transform="translate(14.532 10.19)" fill="#898890"></path><path id="Path_2254" data-name="Path 2254" d="M31,46h4.886v4.886H31Z" transform="translate(20.304 10.19)" fill="#898890"></path><path id="Path_2255" data-name="Path 2255" d="M35,46h4.886v4.886H35Z" transform="translate(26.076 10.19)" fill="#898890"></path><path id="Path_2256" data-name="Path 2256" d="M39,46h4.886v4.886H39Z" transform="translate(31.848 10.19)" fill="#898890"></path><path id="Path_2257" data-name="Path 2257" d="M43,46h4.886v4.886H43Z" transform="translate(37.62 10.19)" fill="#898890"></path><path id="Path_2258" data-name="Path 2258" d="M47,46h4.886v4.886H47Z" transform="translate(43.392 10.19)" fill="#898890"></path><path id="Path_2259" data-name="Path 2259" d="M51,46h4.886v4.886H51Z" transform="translate(49.164 10.19)" fill="#898890"></path><path id="Path_2260" data-name="Path 2260" d="M18,50h9.772v4.886H18Z" transform="translate(1.544 15.962)" fill="#898890"></path><path id="Path_2261" data-name="Path 2261" d="M42,50h9.772v4.886H42Z" transform="translate(36.177 15.962)" fill="#898890"></path><path id="Path_2262" data-name="Path 2262" d="M24,50H63.088v4.886H24Z" transform="translate(10.202 15.962)" fill="#898890"></path></g><path id="Path_2263" data-name="Path 2263" d="M56,6h4.886v9.772H56Z" transform="translate(73.481 1.329)" fill="#e6e7e8"></path><path id="Path_2264" data-name="Path 2264" d="M52,6h4.886v9.772H52Z" transform="translate(67.709 1.329)" fill="#e6e7e8"></path><path id="Path_2265" data-name="Path 2265" d="M48,6h4.886v9.772H48Z" transform="translate(61.936 1.329)" fill="#e6e7e8"></path><path id="Path_2266" data-name="Path 2266" d="M56,16h4.886v9.772H56Z" transform="translate(73.481 15.76)" fill="#e6e7e8"></path><path id="Path_2267" data-name="Path 2267" d="M52,16h4.886v9.772H52Z" transform="translate(67.709 15.76)" fill="#e6e7e8"></path><path id="Path_2268" data-name="Path 2268" d="M48,16h4.886v9.772H48Z" transform="translate(61.936 15.76)" fill="#e6e7e8"></path><path id="Path_2269" data-name="Path 2269" d="M10,6h9.772v4.886H10Z" transform="translate(7.101 1.329)" fill="#d1d3d4"></path><path id="Path_2270" data-name="Path 2270" d="M6,10H25.544v4.886H6Z" transform="translate(1.329 7.101)" fill="#d1d3d4"></path><path id="Path_2271" data-name="Path 2271" d="M6,6h4.886v4.886H6Z" transform="translate(1.329 1.329)" fill="#d1d3d4"></path><path id="Path_2272" data-name="Path 2272" d="M26,15h4.886v4.886H26Z" transform="translate(30.19 14.316)" fill="#d1d3d4"></path><path id="Path_2273" data-name="Path 2273" d="M6,14h4.886v4.886H6Z" transform="translate(1.329 12.873)" fill="#d1d3d4"></path><path id="Path_2274" data-name="Path 2274" d="M6,32h4.886v4.886H6Z" transform="translate(1.329 38.848)" fill="#d1d3d4"></path><path id="Path_2275" data-name="Path 2275" d="M36,32H50.658v4.886H36Z" transform="translate(44.62 38.848)" fill="#eb7d16"></path><path id="Path_2276" data-name="Path 2276" d="M36,36H50.658v4.886H36Z" transform="translate(44.62 44.62)" fill="#eb7d16"></path><path id="Path_2277" data-name="Path 2277" d="M44,32H58.658v4.886H44Z" transform="translate(56.164 38.848)" fill="#eb7d16"></path><path id="Path_2278" data-name="Path 2278" d="M44,36H58.658v4.886H44Z" transform="translate(56.164 44.62)" fill="#eb7d16"></path></g><g id="Group_439" data-name="Group 439" transform="translate(-761.071 -362.625)"><path id="Path_2735" data-name="Path 2735" d="M864.938,408.175a5.5,5.5,0,0,0,1.77.607,9.261,9.261,0,0,0,2.377.253,7.291,7.291,0,0,0,2.175-.3,6.086,6.086,0,0,0,1.72-.86,3.687,3.687,0,0,0,1.113-1.366,4.191,4.191,0,0,0,.4-1.821,3.724,3.724,0,0,0-.708-2.175,4.687,4.687,0,0,0-2.377-1.467l-2.175-.708a4.465,4.465,0,0,1-1.72-.86A1.634,1.634,0,0,1,867.77,397a3.942,3.942,0,0,1,2.074-.455,7.152,7.152,0,0,1,2.984.607,2.1,2.1,0,0,0,.607.2c.253,0,.354-.152.354-.506v-.607a.755.755,0,0,0-.152-.506,1.194,1.194,0,0,0-.455-.4,1.984,1.984,0,0,0-.657-.253c-.253-.1-.556-.152-.86-.253a6.065,6.065,0,0,0-1.011-.152,3.787,3.787,0,0,0-1.062-.1,7.678,7.678,0,0,0-1.922.253,5.4,5.4,0,0,0-1.618.809,4.455,4.455,0,0,0-1.113,1.264,3.209,3.209,0,0,0-.4,1.72,3.591,3.591,0,0,0,.759,2.225,4.491,4.491,0,0,0,2.478,1.568l2.225.708a4.032,4.032,0,0,1,1.568.809,1.407,1.407,0,0,1,.4,1.062,1.649,1.649,0,0,1-.809,1.467,4.106,4.106,0,0,1-2.276.506,7.445,7.445,0,0,1-1.821-.2,6.839,6.839,0,0,1-1.72-.556,3.491,3.491,0,0,1-.4-.152.641.641,0,0,0-.3-.051c-.253,0-.354.152-.354.506v.759a1.476,1.476,0,0,0,.1.455,1.684,1.684,0,0,0,.556.455Z" transform="translate(-60.481)" fill="#252f3e"></path><path id="Path_2736" data-name="Path 2736" d="M781.648,400.69a8.975,8.975,0,0,0-1.618-.1,5.691,5.691,0,0,0-3.793,1.214,4.414,4.414,0,0,0-.3,6.17,4.129,4.129,0,0,0,3.085,1.113,5.75,5.75,0,0,0,4.552-2.124,7.619,7.619,0,0,0,.455.91,3.819,3.819,0,0,0,.556.708.618.618,0,0,0,.455.2.807.807,0,0,0,.4-.152l.961-.657a.612.612,0,0,0,.3-.455,1.286,1.286,0,0,0-.1-.354,6.993,6.993,0,0,1-.506-1.113,5.09,5.09,0,0,1-.152-1.366v-5.057a5.134,5.134,0,0,0-1.264-3.793,5.469,5.469,0,0,0-4.046-1.264,9.388,9.388,0,0,0-2.428.3,9.5,9.5,0,0,0-1.922.708.925.925,0,0,0-.4.3c-.1.1-.1.3-.1.556v.759c0,.3.1.506.3.506a.55.55,0,0,0,.253-.051c.1-.051.3-.1.556-.2a10.491,10.491,0,0,1,1.669-.506,6.282,6.282,0,0,1,1.669-.2,3.684,3.684,0,0,1,2.529.708,3.306,3.306,0,0,1,.708,2.478v1.113c-.657-.152-1.214-.253-1.821-.354Zm1.77,2.731a4.947,4.947,0,0,1-.152,1.315,2.2,2.2,0,0,1-.506.961,3.1,3.1,0,0,1-1.467.961,4.8,4.8,0,0,1-1.618.3,1.95,1.95,0,0,1-2.175-2.175,2.155,2.155,0,0,1,.759-1.77,3.6,3.6,0,0,1,2.276-.607c.455,0,.961.051,1.467.1a11.763,11.763,0,0,1,1.416.253v.657Z" transform="translate(-3.338)" fill="#252f3e"></path><path id="Path_2737" data-name="Path 2737" d="M813.563,408.637a1.647,1.647,0,0,0,.3.607.879.879,0,0,0,.607.152h1.315a.879.879,0,0,0,.607-.152,1.647,1.647,0,0,0,.3-.607l2.377-9.963,2.428,9.963a.865.865,0,0,0,.3.607.973.973,0,0,0,.607.152h1.315a1.079,1.079,0,0,0,.607-.152,1.124,1.124,0,0,0,.3-.607l3.743-11.936a2.062,2.062,0,0,0,.1-.354c0-.1.051-.152.051-.253,0-.253-.1-.354-.354-.354h-1.416a.879.879,0,0,0-.607.152,1.648,1.648,0,0,0-.3.607l-2.68,10.368-2.478-10.418a.864.864,0,0,0-.3-.607.972.972,0,0,0-.607-.152h-1.264a.879.879,0,0,0-.607.152,1.648,1.648,0,0,0-.3.607l-2.428,10.216L812.6,396.449a1.648,1.648,0,0,0-.3-.607.879.879,0,0,0-.607-.152h-1.517c-.253,0-.354.1-.354.354a2.484,2.484,0,0,0,.152.607l3.591,11.986Z" transform="translate(-25.694 -0.715)" fill="#252f3e"></path><path id="Path_2738" data-name="Path 2738" d="M810.779,447.591a45.4,45.4,0,0,1-40.46-2.529c-.556-.354-1.011.253-.506.708a34.057,34.057,0,0,0,22.961,8.749c6.322,0,13.706-1.972,18.814-5.766.759-.607.051-1.517-.809-1.163Z" transform="translate(0 -32.184)" fill="#f90"></path><path id="Path_2739" data-name="Path 2739" d="M874.258,443.9c-.455.3-.354.759.1.708,1.618-.2,5.31-.657,5.917.2.657.809-.708,4.248-1.315,5.816-.2.455.2.657.657.3,2.731-2.276,3.439-7.081,2.883-7.738-.556-.759-5.361-1.315-8.244.708Z" transform="translate(-66.666 -30.615)" fill="#f90"></path></g></g></svg>