<svg xmlns="http://www.w3.org/2000/svg" width="126.293" height="140.865" viewBox="0 0 126.293 140.865"><g id="_031-cost" data-name="031-cost" transform="translate(0)"><g transform="translate(0 0)"><path id="Path_2279" data-name="Path 2279" d="M109.433,12.715v99.577a9.715,9.715,0,0,1-9.715,9.715h-68a9.334,9.334,0,0,1-3.862-.826A9.669,9.669,0,0,1,22,112.292V12.715a9.552,9.552,0,0,1,1.214-4.687A9.661,9.661,0,0,1,31.715,3h68A9.715,9.715,0,0,1,109.433,12.715Z" transform="translate(16.859 -3)" fill="#d1d3d4"></path><path id="Path_2280" data-name="Path 2280" d="M105.433,26.43v89.862a9.715,9.715,0,0,1-9.715,9.715h-68A9.715,9.715,0,0,1,18,116.292V16.715A9.739,9.739,0,0,1,27.715,7H86V21.572a4.872,4.872,0,0,0,4.857,4.857Z" transform="translate(11.144 2.715)" fill="#e6e7e8"></path><path id="Path_2281" data-name="Path 2281" d="M61.717,63.716v9.715l-8.063,1.141a21.751,21.751,0,0,1-1.312,3.716,18.017,18.017,0,0,1-1.336,2.647l1.652,2.21H27.715A9.715,9.715,0,0,1,18,73.431V47.589a23.088,23.088,0,0,1,4.857-2.162c.413-.121.85-.243,1.287-.364L25.286,37H35l1.141,8.063a23.8,23.8,0,0,1,6.363,2.647L49.039,42.8l6.873,6.873-4.906,6.533a23.8,23.8,0,0,1,2.647,6.363Z" transform="translate(11.144 45.576)" fill="#d8d7da"></path><path id="Path_2282" data-name="Path 2282" d="M61.771,76.288a18.018,18.018,0,0,1-1.336,2.647l4.906,6.533L64.807,86l-6.339,6.339-6.533-4.906a23.8,23.8,0,0,1-6.363,2.647l-1.141,8.063H34.716l-1.141-8.063a23.8,23.8,0,0,1-6.363-2.647l-6.533,4.906L13.8,85.469l4.906-6.533a23.8,23.8,0,0,1-2.647-6.363L8,71.431V61.716l8.063-1.141a23.8,23.8,0,0,1,2.647-6.363L13.8,47.678,20.678,40.8l6.533,4.906a23.989,23.989,0,0,1,5.076-2.283c.413-.121.85-.243,1.287-.364L34.716,35h9.715l1.141,8.063a23.8,23.8,0,0,1,6.363,2.647L58.468,40.8l6.873,6.873-4.906,6.533a23.8,23.8,0,0,1,2.647,6.363l8.063,1.142v9.715l-8.063,1.141A21.752,21.752,0,0,1,61.771,76.288Z" transform="translate(-3.143 42.719)" fill="#ff9811"></path><path id="Path_2283" data-name="Path 2283" d="M37.43,11.858V65.289a4.872,4.872,0,0,1-4.857,4.857H18V16.715A9.739,9.739,0,0,1,27.715,7h4.857a4.078,4.078,0,0,1,1.214.17A4.857,4.857,0,0,1,37.43,11.858Z" transform="translate(11.144 2.715)" fill="#d8d7da"></path><path id="Path_2284" data-name="Path 2284" d="M49.717,9.858V63.289a4.872,4.872,0,0,1-4.857,4.857h-34A4.872,4.872,0,0,1,6,63.289V9.858A4.872,4.872,0,0,1,10.857,5h34a4.078,4.078,0,0,1,1.214.17A4.857,4.857,0,0,1,49.717,9.858Z" transform="translate(-6 -0.143)" fill="#ffb229"></path><path id="Path_2285" data-name="Path 2285" d="M30.572,43.243A11.442,11.442,0,0,0,28.144,43a12,12,0,0,0-7.286,2.429,12.15,12.15,0,1,0,9.715-2.186Z" transform="translate(8.287 54.148)" fill="#fff"></path><path id="Path_2286" data-name="Path 2286" d="M44,21h9.715V55H44Z" transform="translate(48.291 22.717)" fill="#c6c5ca"></path><path id="Path_2287" data-name="Path 2287" d="M36,25h9.715V49.287H36Z" transform="translate(36.861 28.432)" fill="#fff"></path><path id="Path_2288" data-name="Path 2288" d="M28,29h9.715V43.572H28Z" transform="translate(25.431 34.146)" fill="#c6c5ca"></path><path id="Path_2289" data-name="Path 2289" d="M65.43,26.43H50.857A4.872,4.872,0,0,1,46,21.572V7Z" transform="translate(51.148 2.715)" fill="#bcbec0"></path><path id="Path_2290" data-name="Path 2290" d="M10,22H22.144V34.144H10Z" transform="translate(-0.285 24.146)" fill="#ffa733"></path><path id="Path_2291" data-name="Path 2291" d="M15,22H27.144V34.144H15Z" transform="translate(6.858 24.146)" fill="#ee8700"></path><path id="Path_2292" data-name="Path 2292" d="M10,17H22.144V29.144H10Z" transform="translate(-0.285 17.002)" fill="#ee8700"></path><path id="Path_2293" data-name="Path 2293" d="M15,17H27.144V29.144H15Z" transform="translate(6.858 17.002)" fill="#ffa733"></path><path id="Path_2294" data-name="Path 2294" d="M10,9H34.287v9.715H10Z" transform="translate(-0.285 5.572)" fill="#ff9811"></path><path id="Path_2295" data-name="Path 2295" d="M29,16H58.144v4.857H29Z" transform="translate(26.86 15.573)" fill="#c6c5ca"></path><path id="Path_2296" data-name="Path 2296" d="M29,12h4.857v4.857H29Z" transform="translate(26.86 9.858)" fill="#c6c5ca"></path><path id="Path_2297" data-name="Path 2297" d="M33,12H52.43v4.857H33Z" transform="translate(32.575 9.858)" fill="#c6c5ca"></path><path id="Path_2298" data-name="Path 2298" d="M27,34H80.431v4.857H27Z" transform="translate(24.003 41.29)" fill="#898890"></path><path id="Path_2299" data-name="Path 2299" d="M37,40H66.144v4.857H37Z" transform="translate(38.29 49.862)" fill="#c6c5ca"></path><path id="Path_2300" data-name="Path 2300" d="M37,48H66.144v4.857H37Z" transform="translate(38.29 61.292)" fill="#c6c5ca"></path><path id="Path_2301" data-name="Path 2301" d="M37,44H66.144v4.857H37Z" transform="translate(38.29 55.577)" fill="#c6c5ca"></path><g id="Group_357" data-name="Group 357" transform="translate(12.144 85.005)"><path id="Path_2302" data-name="Path 2302" d="M20,38h4.857v4.857H20Z" transform="translate(1.858 -38)" fill="#ee8700"></path><path id="Path_2303" data-name="Path 2303" d="M0,0H4.857V4.857H0Z" transform="translate(5.383 8.824) rotate(-45)" fill="#ee8700"></path><path id="Path_2304" data-name="Path 2304" d="M11,47h4.857v4.857H11Z" transform="translate(-11 -25.142)" fill="#ee8700"></path><path id="Path_2305" data-name="Path 2305" d="M0,0H4.857V4.857H0Z" transform="translate(5.38 39.733) rotate(-45)" fill="#ee8700"></path><path id="Path_2306" data-name="Path 2306" d="M20,56h4.857v4.857H20Z" transform="translate(1.858 -12.283)" fill="#ee8700"></path><path id="Path_2307" data-name="Path 2307" d="M0,0H4.857V4.857H0Z" transform="translate(36.289 39.736) rotate(-45)" fill="#ee8700"></path><path id="Path_2308" data-name="Path 2308" d="M29,47h4.857v4.857H29Z" transform="translate(14.717 -25.142)" fill="#ee8700"></path><path id="Path_2309" data-name="Path 2309" d="M0,0H4.857V4.857H0Z" transform="translate(36.292 8.827) rotate(-45)" fill="#ee8700"></path></g></g></g></svg>