<svg xmlns="http://www.w3.org/2000/svg" width="92.403" height="89.03" viewBox="0 0 92.403 89.03"><g id="_037-automaton" data-name="037-automaton" transform="translate(0 0)"><g id="Group_364" data-name="Group 364" transform="translate(0 0)"><g id="Artificial_Intelligence-Coding" data-name="Artificial Intelligence-Coding" transform="translate(0 0)"><path id="Path_2426" data-name="Path 2426" d="M82.286,15.186v47.8H9v-47.8A3.2,3.2,0,0,1,12.186,12H79.1A3.2,3.2,0,0,1,82.286,15.186Z" transform="translate(0.559 0.558)" fill="#ffb229"></path><path id="Path_2427" data-name="Path 2427" d="M85.844,44H12.559L3,63.118H95.4Z" transform="translate(-3 19.54)" fill="#e3e9ed"></path><path id="Path_2428" data-name="Path 2428" d="M95.4,56v4.78a1.593,1.593,0,0,1-1.593,1.593H4.593A1.593,1.593,0,0,1,3,60.78V56Z" transform="translate(-3 26.658)" fill="#898890"></path><path id="Path_2429" data-name="Path 2429" d="M46.3,52l3.186,6.373H24L27.186,52Z" transform="translate(9.456 24.285)" fill="#e3e9ed"></path><path id="Path_2430" data-name="Path 2430" d="M25.593,19.593a3.186,3.186,0,0,0,.43,1.593h-.43A1.593,1.593,0,0,1,24,19.593V18h1.593Z" transform="translate(9.456 4.117)" fill="#ffce00"></path><path id="Path_2431" data-name="Path 2431" d="M41.756,14.593H39V13A3.186,3.186,0,0,1,41.756,14.593Z" transform="translate(18.354 1.151)" fill="#ffce00"></path><path id="Path_2432" data-name="Path 2432" d="M49.3,23.67l3.186,2.119V41.721L49.3,46.5v6.373H27V49.686H46.118V43.314l3.186-4.78Z" transform="translate(11.236 7.48)" fill="#ffce00"></path><path id="Path_2433" data-name="Path 2433" d="M48.152,17.593V20.78a1.593,1.593,0,0,1-1.593,1.593H43.373v1.593a3.164,3.164,0,0,1-1.131,2.422l-3.648-2.422H37a3.2,3.2,0,0,0,3.186-3.186V19.186h3.186a1.593,1.593,0,0,0,1.593-1.593V16h1.593A1.593,1.593,0,0,1,48.152,17.593Z" transform="translate(17.168 2.931)" fill="#ffce00"></path><path id="Path_2434" data-name="Path 2434" d="M46.874,12.593A3.186,3.186,0,0,0,44.118,11H28.186A3.186,3.186,0,0,0,25,14.186v9.559a3.2,3.2,0,0,0,3.186,3.186H44.118A3.2,3.2,0,0,0,47.3,23.745V14.186a3.186,3.186,0,0,0-.43-1.593Z" transform="translate(10.05 -0.035)" fill="#ee8700"></path><path id="Path_2435" data-name="Path 2435" d="M43.779,15.593V18.78a1.593,1.593,0,0,1-1.593,1.593H39V14h3.186A1.593,1.593,0,0,1,43.779,15.593Z" transform="translate(18.354 1.744)" fill="#ee8700"></path><path id="Path_2436" data-name="Path 2436" d="M25,36H47.3v6.373H25Z" transform="translate(10.05 14.794)" fill="#ffb229"></path><path id="Path_2437" data-name="Path 2437" d="M29,18h9.559v4.78H29Z" transform="translate(12.422 4.117)" fill="#e3e9ed"></path><path id="Path_2438" data-name="Path 2438" d="M26.779,14v6.373H23.593A1.593,1.593,0,0,1,22,18.78V15.593A1.593,1.593,0,0,1,23.593,14Z" transform="translate(8.27 1.744)" fill="#ee8700"></path><g id="Group_363" data-name="Group 363" transform="translate(11.152 68.319)"><path id="Path_2439" data-name="Path 2439" d="M10,51h3.186v3.186H10Z" transform="translate(-10 -44.627)" fill="#898890"></path><path id="Path_2440" data-name="Path 2440" d="M14,51h3.186v3.186H14Z" transform="translate(-7.627 -44.627)" fill="#898890"></path><path id="Path_2441" data-name="Path 2441" d="M48,51h3.186v3.186H48Z" transform="translate(12.54 -44.627)" fill="#898890"></path><path id="Path_2442" data-name="Path 2442" d="M52,51h3.186v3.186H52Z" transform="translate(14.913 -44.627)" fill="#898890"></path><path id="Path_2443" data-name="Path 2443" d="M15,47h3.186v3.186H15Z" transform="translate(-7.034 -47)" fill="#898890"></path><path id="Path_2444" data-name="Path 2444" d="M11,47h3.186v3.186H11Z" transform="translate(-9.407 -47)" fill="#898890"></path><path id="Path_2445" data-name="Path 2445" d="M19,47h3.186v3.186H19Z" transform="translate(-4.662 -47)" fill="#898890"></path><path id="Path_2446" data-name="Path 2446" d="M23,47h3.186v3.186H23Z" transform="translate(-2.289 -47)" fill="#898890"></path><path id="Path_2447" data-name="Path 2447" d="M27,47h3.186v3.186H27Z" transform="translate(0.084 -47)" fill="#898890"></path><path id="Path_2448" data-name="Path 2448" d="M31,47h3.186v3.186H31Z" transform="translate(2.456 -47)" fill="#898890"></path><path id="Path_2449" data-name="Path 2449" d="M35,47h3.186v3.186H35Z" transform="translate(4.829 -47)" fill="#898890"></path><path id="Path_2450" data-name="Path 2450" d="M39,47h3.186v3.186H39Z" transform="translate(7.202 -47)" fill="#898890"></path><path id="Path_2451" data-name="Path 2451" d="M43,47h3.186v3.186H43Z" transform="translate(9.574 -47)" fill="#898890"></path><path id="Path_2452" data-name="Path 2452" d="M47,47h3.186v3.186H47Z" transform="translate(11.947 -47)" fill="#898890"></path><path id="Path_2453" data-name="Path 2453" d="M51,47h3.186v3.186H51Z" transform="translate(14.32 -47)" fill="#898890"></path><path id="Path_2454" data-name="Path 2454" d="M18,51h6.373v3.186H18Z" transform="translate(-5.255 -44.627)" fill="#898890"></path><path id="Path_2455" data-name="Path 2455" d="M42,51h6.373v3.186H42Z" transform="translate(8.981 -44.627)" fill="#898890"></path></g><path id="Path_2456" data-name="Path 2456" d="M31,7h3.186v6.373H31Z" transform="translate(13.609 -2.408)" fill="#ffa733"></path><path id="Path_2457" data-name="Path 2457" d="M28,14h3.186v3.186H28Z" transform="translate(11.829 1.744)" fill="#fbfbfb"></path><path id="Path_2458" data-name="Path 2458" d="M34,14h3.186v3.186H34Z" transform="translate(15.388 1.744)" fill="#fbfbfb"></path><path id="Path_2459" data-name="Path 2459" d="M51.745,30.259v-.293A7.975,7.975,0,0,0,43.779,22H39v3.186h4.779a4.779,4.779,0,0,1,4.779,4.78v.293a4.779,4.779,0,0,0-3.186,4.486h3.186a1.593,1.593,0,1,1,3.186,0h3.186A4.78,4.78,0,0,0,51.745,30.259Z" transform="translate(18.354 6.49)" fill="#ffb229"></path><path id="Path_2460" data-name="Path 2460" d="M18.186,29.966v.293A4.779,4.779,0,0,0,15,34.745h3.186a1.593,1.593,0,1,1,3.186,0h3.186a4.779,4.779,0,0,0-3.186-4.486v-.293a4.779,4.779,0,0,1,4.779-4.779h4.779V22H26.152A7.975,7.975,0,0,0,18.186,29.966Z" transform="translate(4.118 6.49)" fill="#ffb229"></path><circle id="Ellipse_148" data-name="Ellipse 148" cx="2.5" cy="2.5" r="2.5" transform="translate(44.4 0)" fill="#ffb229"></circle><path id="Path_2461" data-name="Path 2461" d="M46.9,21H27.779L23,24.186V40.118l3.186,4.78h22.3l3.186-4.78V24.186Z" transform="translate(8.863 5.897)" fill="#ee8700"></path><path id="Path_2462" data-name="Path 2462" d="M33.373,25H30.186A3.186,3.186,0,0,0,27,28.186v7.966h3.186V32.966h3.186v3.186h3.186V28.186A3.186,3.186,0,0,0,33.373,25Zm-3.186,4.78V28.186h3.186V29.78Z" transform="translate(11.236 8.269)" fill="#fff"></path><path id="Path_2463" data-name="Path 2463" d="M35,25h3.186V36.152H35Z" transform="translate(15.981 8.269)" fill="#fff"></path></g></g></g></svg>