<svg xmlns="http://www.w3.org/2000/svg" width="51.051" height="44.92" viewBox="0 0 51.051 44.92"><g id="Amazon_connect" data-name="Amazon connect" transform="translate(-507.408 -36.172)"><g id="Group_1004" data-name="Group 1004" transform="translate(507.408 36.172)"><g id="Group_1003" data-name="Group 1003"><g id="Group_1002" data-name="Group 1002"><path id="Path_3687" data-name="Path 3687" d="M166.82,50.29c-.217-3.218-1.849-5.6-4.452-6.464a6.258,6.258,0,0,0-5.829,1.021,15.074,15.074,0,0,0-3.064-4.522,13.357,13.357,0,0,0-15.1-3,14.061,14.061,0,0,0-7.941,12.394v.743a9.325,9.325,0,0,0-6.688,9.458,10.411,10.411,0,0,0,4.971,9.117,5.6,5.6,0,0,0,3.2.743l9.191.081V80.071a1.02,1.02,0,0,0,.561.909,1.12,1.12,0,0,0,.46.112,1.057,1.057,0,0,0,.6-.193l15.047-11.04h7.9c.093,0,9.117-.785,9.106-9.829,0-6.936-5.326-9.1-7.961-9.74" transform="translate(-123.73 -36.172)" fill="#3eb7ba"></path></g></g><path id="Path_3688" data-name="Path 3688" d="M150.487,45.244a1.346,1.346,0,1,1,1.346-1.346,1.348,1.348,0,0,1-1.346,1.346M143.3,53.328a1.346,1.346,0,1,1,1.346-1.346,1.347,1.347,0,0,1-1.346,1.346M135.664,42.1a1.348,1.348,0,1,1,1.35,1.346,1.349,1.349,0,0,1-1.35-1.346m-6.734,9.431a1.348,1.348,0,1,1,1.346-1.35,1.349,1.349,0,0,1-1.346,1.35m21.557-10.781a3.131,3.131,0,0,0-2.665,4.8l-3.176,3.6a3.13,3.13,0,0,0-1.346-.313,2.972,2.972,0,0,0-.855.135l-3.122-4.754a3.15,3.15,0,1,0-5.048-.6l-3.849,3.818a3.106,3.106,0,0,0-1.5-.395,3.143,3.143,0,1,0,3.141,3.141,3.1,3.1,0,0,0-.379-1.47l3.872-3.837a3.1,3.1,0,0,0,1.451.367,3.153,3.153,0,0,0,.766-.1l3.149,4.8a3.145,3.145,0,1,0,5.052.422l3.184-3.617a3.088,3.088,0,0,0,1.323.3,3.145,3.145,0,0,0,0-6.29" transform="translate(-117.837 -28.183)" fill="#171616"></path></g></g></svg>