<svg xmlns="http://www.w3.org/2000/svg" width="895.533" height="535.673" viewBox="0 0 895.533 535.673"><g id="AWS_full_color" data-name="AWS_full color" transform="translate(-769.594 -394.57)"><path id="Path_2735" data-name="Path 2735" d="M876.965,657.04c7.805,4.879,19.515,8.781,34.15,11.708,14.636,3.9,30.248,4.879,45.859,4.879s29.272-1.952,41.956-5.854a117.416,117.416,0,0,0,33.174-16.587c8.782-6.83,16.587-15.612,21.466-26.345a80.859,80.859,0,0,0,7.806-35.126c0-15.612-4.878-29.272-13.66-41.956-8.782-11.708-24.393-21.466-45.859-28.3L959.9,505.8c-15.612-4.879-27.32-10.733-33.175-16.587a28.69,28.69,0,0,1-8.782-21.466c0-11.708,4.878-21.466,13.66-26.344,9.758-5.854,22.442-8.782,40-8.782,21.466,0,40,3.9,57.568,11.708,4.878,1.952,8.782,3.9,11.708,3.9,4.878,0,6.83-2.927,6.83-9.757V426.769c0-3.9-.976-7.806-2.928-9.757a23.032,23.032,0,0,0-8.781-7.806,38.263,38.263,0,0,0-12.684-4.878c-4.878-1.951-10.733-2.927-16.588-4.879-5.854-.976-12.684-2.927-19.514-2.927-6.83-1.952-13.66-1.952-20.49-1.952a148.157,148.157,0,0,0-37.078,4.878c-11.708,3.9-22.441,8.782-31.223,15.612a85.953,85.953,0,0,0-21.465,24.393c-5.855,9.757-7.806,20.49-7.806,33.175a69.27,69.27,0,0,0,14.636,42.932c9.757,13.66,25.369,23.417,47.81,30.247l42.932,13.66c14.636,4.878,24.394,9.757,30.248,15.612s7.805,12.684,7.805,20.49c0,11.709-4.878,21.466-15.611,28.3s-24.393,9.758-43.907,9.758a143.653,143.653,0,0,1-35.126-3.9c-11.708-1.951-22.441-5.854-33.175-10.733a67.222,67.222,0,0,1-7.805-2.927,12.377,12.377,0,0,0-5.855-.976c-4.878,0-6.83,2.927-6.83,9.757v14.636c0,2.927.975,5.854,1.951,8.781,2.927,3.9,5.855,5.854,10.733,8.781Z" transform="translate(565.225 0)" fill="#252f3e"></path><path id="Path_2736" data-name="Path 2736" d="M906.542,512.633c-10.733-1.951-21.465-1.951-31.223-1.951q-45.371,0-73.179,23.417c-18.539,15.612-27.32,36.1-27.32,61.471,0,24.393,6.83,42.932,21.466,57.568s34.15,21.466,59.519,21.466q52.689,0,87.814-40.98a146.965,146.965,0,0,0,8.782,17.563,73.695,73.695,0,0,0,10.734,13.66,11.918,11.918,0,0,0,8.781,3.9,15.569,15.569,0,0,0,7.806-2.927l18.539-12.684q5.855-4.391,5.854-8.782c0-1.951-.976-3.9-1.951-6.83-3.9-7.806-7.806-14.636-9.758-21.466s-2.927-15.612-2.927-26.344V492.143c0-32.2-7.805-56.592-24.393-73.179S923.13,394.57,887.028,394.57a181.15,181.15,0,0,0-46.834,5.854c-13.661,3.9-26.345,7.806-37.078,13.66-3.9,1.951-6.83,3.9-7.806,5.854-1.952,1.951-1.952,5.854-1.952,10.733v14.636c0,5.854,1.952,9.757,5.855,9.757a10.608,10.608,0,0,0,4.878-.976c1.951-.976,5.854-1.951,10.733-3.9,10.733-3.9,21.466-7.806,32.2-9.757a121.2,121.2,0,0,1,32.2-3.9c23.417,0,39.029,4.879,48.786,13.66s13.66,25.369,13.66,47.811v21.466c-12.685-2.927-23.417-4.878-35.126-6.83Zm34.15,52.689c0,9.757-.976,18.539-2.927,25.369s-4.879,13.66-9.757,18.539c-7.806,8.781-17.563,15.612-28.3,18.539a92.548,92.548,0,0,1-31.223,5.854c-13.66,0-24.393-3.9-31.223-10.733s-10.733-17.563-10.733-31.223c0-14.636,4.879-26.345,14.636-34.151s24.393-11.709,43.908-11.709c8.782,0,18.539.976,28.3,1.951a226.878,226.878,0,0,1,27.32,4.879v12.684Z" transform="translate(31.198 0)" fill="#252f3e"></path><path id="Path_2737" data-name="Path 2737" d="M882.023,645.475q2.927,8.781,5.854,11.709t11.709,2.927h25.369q8.781,0,11.708-2.927t5.854-11.709l45.859-192.218,46.834,192.218q1.464,8.781,5.854,11.709c1.952,1.951,6.83,2.927,11.709,2.927h25.369q7.318,0,11.708-2.927a21.674,21.674,0,0,0,5.854-11.709l72.2-230.271c.976-2.927,1.951-5.854,1.951-6.83,0-1.951.976-2.927.976-4.878,0-4.879-1.951-6.83-6.83-6.83h-27.321q-8.781,0-11.708,2.927t-5.854,11.709l-51.713,200.023-47.811-201q-1.463-8.781-5.854-11.709c-1.952-1.951-6.83-2.927-11.708-2.927H977.645q-8.782,0-11.709,2.927t-5.854,11.709l-46.835,197.1-49.762-197.1q-2.927-8.781-5.854-11.709t-11.708-2.927H816.65c-4.878,0-6.83,1.952-6.83,6.83q0,2.927,2.927,11.708l69.276,231.247Z" transform="translate(240.128 6.686)" fill="#252f3e"></path><path id="Path_2738" data-name="Path 2738" d="M1564.155,495.791c-109.281,46.835-229.295,69.276-337.6,69.276-160.994,0-317.11-43.907-442.978-118.062-10.733-6.83-19.515,4.878-9.757,13.66,117.087,105.378,271.251,168.8,442.979,168.8,121.965,0,264.421-38.053,362.969-111.232,14.636-11.709.976-29.272-15.611-22.442Z" transform="translate(0 300.777)" fill="#f90"></path><path id="Path_2739" data-name="Path 2739" d="M879.655,469.47c-8.782,5.855-6.83,14.636,1.952,13.66,31.223-3.9,102.451-12.684,114.159,3.9,12.685,15.612-13.66,81.961-25.369,112.208-3.9,8.781,3.9,12.684,12.685,5.854,52.688-43.907,66.35-136.6,55.616-149.286-10.732-14.636-103.426-25.369-159.042,13.66Z" transform="translate(623.03 286.118)" fill="#f90"></path></g></svg>