<svg xmlns="http://www.w3.org/2000/svg" id="logo_one_UI__3d__green" data-name="logo one UI_ 3d_ green" width="204.281" height="235.875" viewBox="0 0 204.281 235.875"><g id="Layer_1" data-name="Layer 1" transform="translate(77.961 72.887)"><path id="Path_29" data-name="Path 29" d="M3786.781,487.6v62.184l24.168,13.957V501.554L3786.781,487.6Z" transform="translate(-3786.781 -473.64)" fill="#9e9723"></path><path id="Path_30" data-name="Path 30" d="M3851.7,487.6l-24.18,13.957v62.186l24.18-13.957V487.6Z" transform="translate(-3803.346 -473.64)" fill="#5e6a27"></path><g id="Group_10" data-name="Group 10" transform="translate(0.001 0)"><g id="Group_9" data-name="Group 9"><path id="Path_31" data-name="Path 31" d="M3810.953,464.075l-24.168,13.957,24.168,13.957,24.184-13.957Z" transform="translate(-3786.783 -464.075)" fill="#ced32a"></path><path id="Path_32" data-name="Path 32" d="M3786.781,487.6h0Z" transform="translate(-3786.781 -473.64)" fill="#ced32a"></path></g></g></g><g id="Layer_2" data-name="Layer 2" transform="translate(0 77.749)"><path id="Path_33" data-name="Path 33" d="M3827.523,587.913l63.133-36.446V501.1l39-22.523V573.99l-102.137,58.969Z" transform="translate(-3725.389 -474.833)" fill="#5e6a27"></path><path id="Path_34" data-name="Path 34" d="M3757.523,632.959,3655.387,573.99V478.576L3694.4,501.1v50.369l63.125,36.444Z" transform="translate(-3655.387 -474.833)" fill="#9e9723"></path><path id="Path_35" data-name="Path 35" d="M3922.859,560.593V510.227l6.559,3.743v50.367Z" transform="translate(-3764.158 -487.705)" fill="#9e9723"></path><path id="Path_36" data-name="Path 36" d="M3721.133,564.336V513.97l6.566-3.743v50.367Z" transform="translate(-3682.12 -487.705)" fill="#5e6a27"></path><path id="Path_37" data-name="Path 37" d="M3694.4,498.534l-39.012-22.524,6.559-3.741,39.016,22.523Z" transform="translate(-3655.387 -472.269)" fill="#ced32a"></path><path id="Path_38" data-name="Path 38" d="M3727.7,595.114l56.563,32.659V635.3l-63.129-36.446Z" transform="translate(-3682.12 -522.226)" fill="#ced32a"></path><path id="Path_39" data-name="Path 39" d="M3929.426,498.534l39.008-22.524-6.559-3.741-39.016,22.523Z" transform="translate(-3764.158 -472.269)" fill="#ced32a"></path><path id="Path_40" data-name="Path 40" d="M3886.188,598.856,3823.055,635.3l-6.52-3.766,63.082-36.422Z" transform="translate(-3720.914 -522.226)" fill="#ced32a"></path></g><g id="Layer_3" data-name="Layer 3" transform="translate(39.01 0)"><path id="Path_41" data-name="Path 41" d="M3933.914,458.04l39.016-22.523v-7.993l-39.016-19.1Z" transform="translate(-3807.659 -368.555)" fill="#5e6a27"></path><path id="Path_42" data-name="Path 42" d="M3811,399.751l-24.1,13.922-.012-47.873,24.113-11.1Z" transform="translate(-3747.87 -346.712)" fill="#5e6a27"></path><path id="Path_43" data-name="Path 43" d="M3827.523,399.751l63.133,36.445v-49.62l-63.133-31.872Z" transform="translate(-3764.398 -346.712)" fill="#9e9723"></path><path id="Path_44" data-name="Path 44" d="M3760.141,421.278l-39-22.524v-7.992l39-17.356Z" transform="translate(-3721.137 -354.316)" fill="#9e9723"></path><path id="Path_45" data-name="Path 45" d="M3784.266,386.279,3760.148,400.2l-39.012-22.523,63.129-36.445L3886.4,400.2l-39.016,22.523Z" transform="translate(-3721.137 -341.233)" fill="#ced32a"></path></g></svg>