<svg xmlns="http://www.w3.org/2000/svg" width="20.013" height="23.109" viewBox="0 0 20.013 23.109"><g id="minilogo_oneui_screen" transform="translate(0 0)"><g id="Layer_1" data-name="Layer 1" transform="translate(7.638 7.141)"><path id="Path_29" data-name="Path 29" d="M3786.783,487.6v6.092l2.368,1.367v-6.092l-2.368-1.367Z" transform="translate(-3786.783 -486.23)" fill="#9e9723"></path><path id="Path_30" data-name="Path 30" d="M3829.9,487.6l-2.369,1.367v6.092l2.369-1.367V487.6Z" transform="translate(-3825.158 -486.23)" fill="#5e6a27"></path><g id="Group_10" data-name="Group 10" transform="translate(0 0)"><g id="Group_9" data-name="Group 9"><path id="Path_31" data-name="Path 31" d="M3789.153,464.075l-2.368,1.367,2.368,1.367,2.369-1.367Z" transform="translate(-3786.785 -464.075)" fill="#ced32a"></path><path id="Path_32" data-name="Path 32" d="M3786.783,487.6h0Z" transform="translate(-3786.783 -486.23)" fill="#ced32a"></path></g></g></g><g id="Layer_2" data-name="Layer 2" transform="translate(0 7.617)"><path id="Path_33" data-name="Path 33" d="M3827.527,489.288l6.185-3.571v-4.934l3.821-2.207v9.348l-10.006,5.777Z" transform="translate(-3817.521 -478.21)" fill="#5e6a27"></path><path id="Path_34" data-name="Path 34" d="M3665.4,493.7l-10.006-5.777v-9.348l3.822,2.207v4.935l6.185,3.57Z" transform="translate(-3655.39 -478.21)" fill="#9e9723"></path><path id="Path_35" data-name="Path 35" d="M3922.862,515.161v-4.934l.643.367v4.934Z" transform="translate(-3907.314 -508.02)" fill="#9e9723"></path><path id="Path_36" data-name="Path 36" d="M3721.137,515.528v-4.934l.643-.367v4.934Z" transform="translate(-3717.315 -508.02)" fill="#5e6a27"></path><path id="Path_37" data-name="Path 37" d="M3659.212,474.842l-3.822-2.207.643-.367,3.822,2.207Z" transform="translate(-3655.39 -472.269)" fill="#ced32a"></path><path id="Path_38" data-name="Path 38" d="M3721.781,595.114l5.542,3.2v.738l-6.185-3.571Z" transform="translate(-3717.315 -587.973)" fill="#ced32a"></path><path id="Path_39" data-name="Path 39" d="M3923.5,474.842l3.822-2.207-.643-.367-3.822,2.207Z" transform="translate(-3907.313 -472.269)" fill="#ced32a"></path><path id="Path_40" data-name="Path 40" d="M3823.362,595.481l-6.185,3.571-.639-.369,6.18-3.568Z" transform="translate(-3807.17 -587.973)" fill="#ced32a"></path></g><g id="Layer_3" data-name="Layer 3" transform="translate(3.822 0)"><path id="Path_41" data-name="Path 41" d="M3933.916,413.282l3.822-2.207v-.783l-3.822-1.872Z" transform="translate(-3921.547 -404.515)" fill="#5e6a27"></path><path id="Path_42" data-name="Path 42" d="M3789.247,359.118l-2.361,1.364v-4.69l2.362-1.087Z" transform="translate(-3783.063 -353.922)" fill="#5e6a27"></path><path id="Path_43" data-name="Path 43" d="M3827.527,359.118l6.185,3.57v-4.861l-6.185-3.122Z" transform="translate(-3821.343 -353.922)" fill="#9e9723"></path><path id="Path_44" data-name="Path 44" d="M3724.958,378.1l-3.821-2.207v-.783l3.821-1.7Z" transform="translate(-3721.137 -371.535)" fill="#9e9723"></path><path id="Path_45" data-name="Path 45" d="M3727.323,345.646l-2.363,1.364-3.822-2.207,6.185-3.57,10.006,5.777-3.822,2.207Z" transform="translate(-3721.138 -341.233)" fill="#ced32a"></path></g></g></svg>