<svg xmlns="http://www.w3.org/2000/svg" width="895.533" height="112.306" viewBox="0 0 895.533 112.306"><g id="Oracle_red" transform="translate(-599.297 -373.358)"><path id="Path_2786" data-name="Path 2786" d="M972.037,446.414h57.053l-30.137-48.572-55.331,87.8-25.215.021,67.352-105.443a16.047,16.047,0,0,1,26.186-.188l67.586,105.631-25.231-.021-11.833-19.625H984.647l-12.61-19.6Zm261.775,19.625V374.454h-21.4V474.99a10.517,10.517,0,0,0,3.116,7.427,11.07,11.07,0,0,0,7.84,3.226h97.5l12.579-19.6ZM880.066,449.645a37.6,37.6,0,0,0,0-75.191H786.492V485.643h21.374v-91.59h70.728a18,18,0,0,1,0,36l-60.258-.021,63.813,55.608h31.066l-42.94-36.019,9.792.021Zm-225.171,36a55.595,55.595,0,1,1,0-111.189h64.632a55.605,55.605,0,0,1,0,111.21l-64.632-.021Zm63.192-19.594a36,36,0,0,0,0-71.991l-61.757-.005a36,36,0,0,0,0,72Zm406.055,19.594a55.595,55.595,0,1,1,0-111.189h76.8l-12.584,19.6-62.774-.005a36,36,0,1,0,0,72h77.091l-12.558,19.594ZM1385.7,466.05a35.982,35.982,0,0,1-34.62-26.16h91.4l12.589-19.6-104.012-.005a36,36,0,0,1,34.646-26.228l62.732.005,12.61-19.6h-76.809a55.595,55.595,0,0,0,0,111.189h65.979l12.569-19.594Z" transform="translate(0 0)" fill="#e50019"></path><path id="Path_2787" data-name="Path 2787" d="M768.751,385.9a9.815,9.815,0,1,1,9.823,9.839,9.814,9.814,0,0,1-9.823-9.839Zm9.823,12.542a12.5,12.5,0,1,0-12.49-12.5,12.51,12.51,0,0,0,12.49,12.5Zm-1.18-19.917a9.6,9.6,0,0,1,3.664.376,3.985,3.985,0,0,1,2.719,3.925,5.5,5.5,0,0,1-.146,1.153,3.8,3.8,0,0,1-1.738,2.4,1.914,1.914,0,0,1-.631.329l3.251,5.825h-3.142l-2.855-5.355h-1.895v5.355h-2.75V378.528Zm.976,6.331a2.632,2.632,0,0,0,2.328-.877,2.076,2.076,0,0,0,.324-1.206,1.841,1.841,0,0,0-1.059-1.7,7.019,7.019,0,0,0-2.568-.245h-.772v4.024Z" transform="translate(703.745 0.388)" fill="#e50019"></path></g></svg>