<svg xmlns="http://www.w3.org/2000/svg" width="285.736" height="200" viewBox="0 0 285.736 200"><g id="salesforce-logo_logotyp.us" data-name="salesforce-logo@logotyp.us" transform="translate(0 -0.525)"><path id="Path_2839" data-name="Path 2839" d="M118.906,22.338A50.076,50.076,0,0,1,155.14,6.781a50.583,50.583,0,0,1,44.08,26.133,60.9,60.9,0,0,1,24.917-5.3c34.02,0,61.6,27.821,61.6,62.141s-27.58,62.142-61.6,62.142A61.316,61.316,0,0,1,212,150.69a45.031,45.031,0,0,1-59,18.529A51.374,51.374,0,0,1,57.5,166.9a47.327,47.327,0,0,1-9.8,1.02C21.351,167.918,0,146.343,0,119.73A48.256,48.256,0,0,1,23.848,77.99a55.491,55.491,0,0,1,95.058-55.652" fill="#00a1e0" fill-rule="evenodd"></path><g id="Group_838" data-name="Group 838"><path id="Path_2840" data-name="Path 2840" d="M41.386,104.241c-.18.468.064.566.122.649a17.155,17.155,0,0,0,10.175,2.981c5.861,0,9.5-3.116,9.5-8.134v-.1c0-4.64-4.11-6.327-7.962-7.543l-.5-.163c-2.9-.943-5.412-1.759-5.412-3.672v-.1c0-1.639,1.466-2.843,3.736-2.843a16.9,16.9,0,0,1,7.447,1.9s.569.367.776-.182c.112-.3,1.088-2.924,1.192-3.208a.543.543,0,0,0-.285-.659,16.592,16.592,0,0,0-8.4-2.256l-.585,0c-5.365,0-9.111,3.244-9.111,7.887v.1c0,4.892,4.132,6.483,8,7.588l.622.193c2.819.865,5.254,1.613,5.254,3.6v.1c0,1.816-1.582,3.165-4.13,3.165a13.836,13.836,0,0,1-7.55-2.172c-.413-.24-.648-.414-.966-.608a.468.468,0,0,0-.771.265Zm85.806,0c-.18.468.064.566.124.649a17.122,17.122,0,0,0,10.173,2.981c5.861,0,9.5-3.116,9.5-8.134v-.1c0-4.64-4.109-6.327-7.962-7.543l-.5-.163c-2.9-.943-5.413-1.759-5.413-3.672v-.1c0-1.639,1.467-2.843,3.739-2.843a16.892,16.892,0,0,1,7.445,1.9s.569.367.777-.182c.111-.3,1.088-2.924,1.191-3.208a.543.543,0,0,0-.283-.659,16.6,16.6,0,0,0-8.4-2.256l-.586,0c-5.364,0-9.11,3.244-9.11,7.887v.1c0,4.892,4.131,6.483,8,7.588l.62.193c2.82.865,5.255,1.613,5.255,3.6v.1c0,1.816-1.583,3.165-4.129,3.165a13.833,13.833,0,0,1-7.551-2.172c-.413-.24-.654-.406-.967-.608a.5.5,0,0,0-.77.265Zm58.577-9.831a12.082,12.082,0,0,1-1.569,6.651,5.266,5.266,0,0,1-4.766,2.325,5.2,5.2,0,0,1-4.741-2.323,12.22,12.22,0,0,1-1.546-6.653,12.084,12.084,0,0,1,1.546-6.626,5.22,5.22,0,0,1,4.741-2.3,5.283,5.283,0,0,1,4.766,2.3,11.934,11.934,0,0,1,1.569,6.625m4.895-5.257a11.812,11.812,0,0,0-2.227-4.251,10.748,10.748,0,0,0-3.759-2.857,13.6,13.6,0,0,0-10.49,0,10.743,10.743,0,0,0-3.757,2.859,11.818,11.818,0,0,0-2.226,4.249,19.544,19.544,0,0,0,0,10.513,11.807,11.807,0,0,0,2.227,4.251,10.507,10.507,0,0,0,3.759,2.834,13.9,13.9,0,0,0,10.486,0,10.515,10.515,0,0,0,3.761-2.834,11.82,11.82,0,0,0,2.227-4.251,19.571,19.571,0,0,0,0-10.513m40.175,13.474a.465.465,0,0,0-.625-.3,11.193,11.193,0,0,1-2.275.65,17.394,17.394,0,0,1-2.681.192,7.45,7.45,0,0,1-5.595-2.1c-1.351-1.393-2.11-3.644-2.1-6.689a10.371,10.371,0,0,1,1.878-6.442,6.386,6.386,0,0,1,5.427-2.39,16.37,16.37,0,0,1,5.173.74s.383.167.567-.338c.429-1.19.746-2.036,1.2-3.343a.44.44,0,0,0-.306-.575,19.093,19.093,0,0,0-3.263-.825,24.629,24.629,0,0,0-3.671-.246,13.349,13.349,0,0,0-5.453,1.049,11.315,11.315,0,0,0-3.94,2.854,12.058,12.058,0,0,0-2.38,4.252,16.866,16.866,0,0,0-.8,5.266c0,4.058,1.1,7.336,3.255,9.739s5.417,3.635,9.66,3.635a19.942,19.942,0,0,0,6.929-1.236.446.446,0,0,0,.2-.582ZM239.4,91.691a9.634,9.634,0,0,1,1.339-3.908,5.279,5.279,0,0,1,4.735-2.4,5.14,5.14,0,0,1,4.641,2.4,8.186,8.186,0,0,1,1.1,3.909Zm16.471-3.461a10.314,10.314,0,0,0-2.119-3.877,9.642,9.642,0,0,0-3.145-2.4,12.085,12.085,0,0,0-4.742-.963,12.974,12.974,0,0,0-5.469,1.064,10.881,10.881,0,0,0-3.812,2.91,11.963,11.963,0,0,0-2.244,4.3,18.611,18.611,0,0,0-.727,5.285,17.82,17.82,0,0,0,.751,5.288,10.618,10.618,0,0,0,6.565,6.967,16.566,16.566,0,0,0,6.012.973c4.785-.016,7.3-1.082,8.341-1.657.184-.1.357-.28.141-.792l-1.083-3.032a.479.479,0,0,0-.624-.289,15.914,15.914,0,0,1-6.8,1.225,7.856,7.856,0,0,1-5.666-1.949c-1.223-1.213-1.824-2.993-1.925-5.509l16.559.013a.487.487,0,0,0,.482-.43,17.732,17.732,0,0,0-.494-7.132ZM106.76,91.691a9.649,9.649,0,0,1,1.339-3.908,5.28,5.28,0,0,1,4.736-2.4,5.14,5.14,0,0,1,4.641,2.4,8.2,8.2,0,0,1,1.1,3.909Zm16.471-3.461a10.314,10.314,0,0,0-2.118-3.877,9.631,9.631,0,0,0-3.145-2.4,12.085,12.085,0,0,0-4.742-.963,12.974,12.974,0,0,0-5.469,1.064,10.908,10.908,0,0,0-3.814,2.91,12.03,12.03,0,0,0-2.244,4.3,18.649,18.649,0,0,0-.724,5.285,17.718,17.718,0,0,0,.752,5.288,10.608,10.608,0,0,0,6.563,6.967,16.568,16.568,0,0,0,6.013.973c4.784-.016,7.3-1.082,8.341-1.657.183-.1.357-.28.14-.792L121.7,102.3a.48.48,0,0,0-.625-.289,15.906,15.906,0,0,1-6.8,1.225,7.858,7.858,0,0,1-5.666-1.949c-1.222-1.213-1.824-2.993-1.925-5.509l16.56.013a.487.487,0,0,0,.482-.43A17.721,17.721,0,0,0,123.232,88.23ZM70.963,102.537a3.233,3.233,0,0,1-.955-.983,3.964,3.964,0,0,1-.5-2.154,3.628,3.628,0,0,1,1.478-3.205c-.011,0,1.428-1.241,4.8-1.2a33.428,33.428,0,0,1,4.5.383v7.528h0a33.627,33.627,0,0,1-4.475.6c-3.368.2-4.864-.97-4.854-.967ZM77.553,90.9c-.672-.049-1.542-.073-2.586-.073a15.712,15.712,0,0,0-4.079.523,10.7,10.7,0,0,0-3.457,1.6A7.737,7.737,0,0,0,64.142,99.5a8.642,8.642,0,0,0,.759,3.781,6.869,6.869,0,0,0,2.16,2.593,9.147,9.147,0,0,0,3.374,1.461,19.824,19.824,0,0,0,4.385.447,30.359,30.359,0,0,0,5.031-.419q2.094-.361,4.171-.811c.552-.127,1.161-.294,1.161-.294a.523.523,0,0,0,.378-.542L85.552,90.57c0-3.322-.886-5.783-2.632-7.311s-4.3-2.29-7.606-2.29a27.252,27.252,0,0,0-4.439.408s-3.616.7-5.1,1.868a.514.514,0,0,0-.149.658l1.173,3.15a.42.42,0,0,0,.544.269,2.129,2.129,0,0,0,.272-.136A16.828,16.828,0,0,1,74.825,85.5a6.686,6.686,0,0,1,4.093,1.071c.9.694,1.363,1.739,1.363,3.946v.7C78.861,91.016,77.553,90.9,77.553,90.9Zm133.58-8.532a.449.449,0,0,0-.249-.6,14.575,14.575,0,0,0-2.776-.471,8.193,8.193,0,0,0-4.271.687,7.464,7.464,0,0,0-2.8,2.065l0-2.02a.478.478,0,0,0-.476-.5h-4.246a.48.48,0,0,0-.475.5v24.706a.506.506,0,0,0,.5.5H200.7a.506.506,0,0,0,.5-.5V94.394a14.531,14.531,0,0,1,.547-4.348,6.206,6.206,0,0,1,1.452-2.436,5.037,5.037,0,0,1,2.045-1.23,8.07,8.07,0,0,1,2.222-.313,9.356,9.356,0,0,1,1.819.223c.319.036.5-.16.6-.447.285-.757,1.091-3.026,1.245-3.477" fill="#fffffe" fill-rule="evenodd"></path><path id="Path_2841" data-name="Path 2841" d="M170.29,70.917a13.888,13.888,0,0,0-1.637-.388,12.829,12.829,0,0,0-2.251-.174,9.481,9.481,0,0,0-7.014,2.518c-1.646,1.659-2.766,4.186-3.328,7.511l-.2,1.122H152.1a.556.556,0,0,0-.555.482l-.617,3.444c-.043.33.1.535.54.533h3.66l-3.713,20.728a26.02,26.02,0,0,1-.992,4.083,8.374,8.374,0,0,1-1.155,2.355,3.07,3.07,0,0,1-1.516,1.171,6.138,6.138,0,0,1-1.949.28,7.54,7.54,0,0,1-1.328-.146,3.95,3.95,0,0,1-.893-.29.456.456,0,0,0-.6.267c-.138.352-1.113,3.034-1.228,3.366a.493.493,0,0,0,.255.66,12.37,12.37,0,0,0,1.513.442,10,10,0,0,0,2.426.231,12.106,12.106,0,0,0,4.065-.63,7.611,7.611,0,0,0,3.06-2.136,10.982,10.982,0,0,0,2.152-3.7,31.62,31.62,0,0,0,1.455-5.564l3.731-21.112h5.455a.558.558,0,0,0,.555-.482l.617-3.444c.043-.33-.1-.535-.541-.533H161.2a22.473,22.473,0,0,1,.875-3.735A4.807,4.807,0,0,1,163.238,76a3.441,3.441,0,0,1,1.387-.863,5.759,5.759,0,0,1,1.777-.256,6.918,6.918,0,0,1,1.361.138c.513.109.713.167.847.207.54.165.612.005.718-.256l1.266-3.477a.441.441,0,0,0-.3-.577M96.3,106.735a.48.48,0,0,1-.475.5H91.435a.48.48,0,0,1-.476-.5V71.388a.478.478,0,0,1,.476-.5h4.392a.478.478,0,0,1,.475.5Z" fill="#fffffe" fill-rule="evenodd"></path></g></g></svg>