<svg xmlns="http://www.w3.org/2000/svg" xmlns:xlink="http://www.w3.org/1999/xlink" id="TechX_fullcolor" width="406.192" height="97.234" viewBox="0 0 406.192 97.234"><defs><linearGradient id="linear-gradient" y1="0.5" x2="1" y2="0.5" gradientUnits="objectBoundingBox"><stop offset="0" stop-color="#ffc600"></stop><stop offset="1" stop-color="#ff6900"></stop></linearGradient></defs><g id="Group_87" data-name="Group 87" transform="translate(0.002 0.01)"><g id="Group_64" data-name="Group 64" transform="translate(0)"><path id="Path_212" data-name="Path 212" d="M-174.95,48.016a19.309,19.309,0,0,0,2.042-.23,28.1,28.1,0,0,0,15.073-8.052l.507-.58h0l2.591-2.969,14.771-16.929-14.518-16.3L-194.4,48.144H-178.2C-177.077,48.114-175.981,48.075-174.95,48.016Z" transform="translate(194.402 48.986)" fill="url(#linear-gradient)"></path><path id="Path_213" data-name="Path 213" d="M-103.676-42.372s-3.341.308-4.387.586a26.485,26.485,0,0,0-12.851,6.74l-4.925,5.6h0L-156.113,4.982-141.8,21.388l36.5-41.965,18.038-21.854C-88.242-42.431-103.676-42.372-103.676-42.372Z" transform="translate(199.933 42.431)" fill="#051c2c"></path></g><g id="Group_86" data-name="Group 86" transform="translate(142.898 36.528)"><path id="Path_376" data-name="Path 376" d="M-2189.185,2656.284q-4.222-4.6-4.221-14.054v-1.942q0-9.538,4.346-14.182t13.127-4.643a61.183,61.183,0,0,1,12.58,1.688v-9.961a41.916,41.916,0,0,0-14.1-2.364q-13.928,0-21.61,8.021t-7.682,22.622q0,14.775,7.344,22.415t21.61,7.639a42.5,42.5,0,0,0,15.279-2.617v-9.961a69.06,69.06,0,0,1-13.76,1.941Q-2184.964,2660.886-2189.185,2656.284Z" transform="translate(2308.211 -2610.827)" fill="#051c2c"></path><path id="Path_377" data-name="Path 377" d="M-2128.238,2635.5h-23.3V2611.7H-2164.2v58.5h12.663v-24.9h23.3v24.9h12.663v-58.5h-12.663Z" transform="translate(2319.271 -2610.6)" fill="#051c2c"></path><path id="Path_378" data-name="Path 378" d="M-2086.72,2639.64l17.813-27.941h-13.93l-10.72,18.993-10.721-18.993h-14.265l17.558,28.11-18.992,30.39h13.928l12.071-21.61,12.241,21.61h14.267Z" transform="translate(2330.765 -2610.6)" fill="#051c2c"></path><path id="Path_379" data-name="Path 379" d="M-2287.277,2611.7v.02l8.839,10.111h8.972v48.37h12.663v-48.37h17.811v-.131l-8.747-10Z" transform="translate(2287.277 -2610.6)" fill="#051c2c"></path><path id="Path_380" data-name="Path 380" d="M-2241.372,2611.7h-6.87l6.87,7.794V2670.2h38.494v-9.792h-25.832v-15.279h21.018v-9.792h-21.018V2621.49h25.832V2611.7h-38.494Z" transform="translate(2297.425 -2610.6)" fill="#051c2c"></path></g></g><path id="Path_381" data-name="Path 381" d="M-174.276-42.12c-.455-.086-1.427-.182-1.79-.208-1.195-.07-2.411-.1-3.635-.112h-3.4c-3.666.053-7.573,0-11.276,0h-.026l13.3,16.185h0l62.781,71.766a32.338,32.338,0,0,0,6.411,5.322c2.846,1.7,5.234,3.057,9.126,3.589a10.676,10.676,0,0,0,1.4.159l.312.03c.7.038,1.433.066,2.181.09h14.579c.841-.007,1.667-.011,2.465-.011l-77.5-88.641A28.15,28.15,0,0,0-174.276-42.12Z" transform="translate(194.404 42.44)" fill="url(#linear-gradient)"></path></svg>