<svg xmlns="http://www.w3.org/2000/svg" width="16.861" height="14.536" viewBox="0 0 16.861 14.536"><g id="x_logo_white" data-name="x logo_white" transform="translate(20372.363 22737.499)"><g id="Group_837" data-name="Group 837" transform="translate(-20372.363 -22737.498)"><path id="Path_212" data-name="Path 212" d="M-191.491,9.7a2.889,2.889,0,0,0,.305-.034,4.205,4.205,0,0,0,2.256-1.2l.076-.087h0l.388-.444,2.21-2.533-2.172-2.439L-194.4,9.714h2.425C-191.81,9.71-191.646,9.7-191.491,9.7Z" transform="translate(194.402 4.82)" fill="#fff"></path><path id="Path_213" data-name="Path 213" d="M-148.266-42.422s-.5.046-.656.088a3.963,3.963,0,0,0-1.923,1.008l-.737.838h0l-4.53,5.152,2.142,2.455,5.462-6.279,2.7-3.27Z" transform="translate(162.67 42.431)" fill="#fff"></path></g><path id="Path_2838" data-name="Path 2838" d="M-191.392-42.392c-.068-.013-.214-.027-.268-.031-.179-.01-.361-.015-.544-.017h-.509c-.548.008-1.133,0-1.687,0h0l1.99,2.422h0l9.394,10.739a4.84,4.84,0,0,0,.959.8,3.3,3.3,0,0,0,1.366.537,1.6,1.6,0,0,0,.209.024l.047,0c.105.006.214.01.326.014h2.182l.369,0-11.6-13.264A4.213,4.213,0,0,0-191.392-42.392Z" transform="translate(-20177.959 -22695.059)" fill="#fff"></path></g></svg>