<svg xmlns="http://www.w3.org/2000/svg" width="8.58" height="7.396" viewBox="0 0 8.58 7.396"><g id="x_logo_white" data-name="x logo_white" transform="translate(20372.363 22737.499)"><g id="Group_837" data-name="Group 837" transform="translate(-20372.363 -22737.498)"><path id="Path_212" data-name="Path 212" d="M-192.921,6.383a1.471,1.471,0,0,0,.155-.018,2.14,2.14,0,0,0,1.148-.613l.039-.044h0l.2-.226,1.125-1.289-1.105-1.241-3.04,3.441h1.234C-193.083,6.391-193,6.388-192.921,6.383Z" transform="translate(194.402 1.003)" fill="#fff"></path><path id="Path_213" data-name="Path 213" d="M-152.12-42.426s-.254.023-.334.045a2.017,2.017,0,0,0-.979.513l-.375.426h0l-2.305,2.621,1.09,1.249,2.78-3.2,1.373-1.664Z" transform="translate(159.45 42.431)" fill="#fff"></path></g><path id="Path_2838" data-name="Path 2838" d="M-192.871-42.416c-.035-.007-.109-.014-.136-.016-.091-.005-.184-.007-.277-.009h-.259c-.279,0-.577,0-.859,0h0l1.013,1.232h0l4.78,5.465a2.463,2.463,0,0,0,.488.405,1.678,1.678,0,0,0,.695.273.814.814,0,0,0,.106.012l.024,0,.166.007h1.3l-5.9-6.749A2.144,2.144,0,0,0-192.871-42.416Z" transform="translate(-20177.959 -22695.059)" fill="#fff"></path></g></svg>