<svg xmlns="http://www.w3.org/2000/svg" width="86.467" height="74.541" viewBox="0 0 86.467 74.541"><g id="x_logo_white" data-name="x logo_white" transform="translate(20372.363 22737.498)"><g id="Group_837" data-name="Group 837" transform="translate(-20372.361 -22737.49)"><path id="Path_212" data-name="Path 212" d="M-179.475,37.532a14.82,14.82,0,0,0,1.567-.177,21.564,21.564,0,0,0,11.567-6.179l.389-.445h0l1.988-2.278,11.335-12.99-11.141-12.51L-194.4,37.63h12.436C-181.108,37.607-180.267,37.577-179.475,37.532Z" transform="translate(194.402 36.903)" fill="#fff"></path><path id="Path_213" data-name="Path 213" d="M-115.875-42.385s-2.563.236-3.366.45a20.323,20.323,0,0,0-9.861,5.172l-3.779,4.3h0L-156.113-6.048-145.127,6.54l28.012-32.2,13.841-16.77C-104.032-42.431-115.875-42.385-115.875-42.385Z" transform="translate(189.738 42.431)" fill="#fff"></path></g><path id="Path_2838" data-name="Path 2838" d="M-178.958-42.194c-.35-.066-1.1-.14-1.373-.16-.917-.054-1.85-.076-2.789-.086h-2.61c-2.813.04-5.811,0-8.653,0h-.02l10.2,12.419h0l48.175,55.069a24.815,24.815,0,0,0,4.92,4.084,16.913,16.913,0,0,0,7,2.754,8.2,8.2,0,0,0,1.072.122l.24.023c.539.029,1.1.051,1.674.069h11.187c.645-.005,1.279-.009,1.892-.009l-59.47-68.018A21.6,21.6,0,0,0-178.958-42.194Z" transform="translate(-20177.959 -22695.059)" fill="#fff"></path></g></svg>