<svg xmlns="http://www.w3.org/2000/svg" xmlns:xlink="http://www.w3.org/1999/xlink" id="Layer_1" x="0px" y="0px" viewBox="0 0 512 512" style="enable-background:new 0 0 512 512;" xml:space="preserve" width="512" height="512" class="hovered-paths"><g><g>
	<path style="fill:#242D3C;" d="M256,512c-119.665,0-217.016-97.357-217.016-217.021c0-119.667,97.354-217.024,217.016-217.024   c119.665,0,217.016,97.357,217.016,217.024C473.016,414.643,375.665,512,256,512z M256,96.238   c-109.578,0-198.733,89.155-198.733,198.738S146.422,493.714,256,493.714s198.733-89.155,198.733-198.738   S365.578,96.238,256,96.238z" data-original="#242D3C" class=""></path>
	<rect x="246.861" y="35.133" style="fill:#242D3C;" width="18.286" height="51.963" data-original="#242D3C" class=""></rect>
	<path style="fill:#242D3C;" d="M281.989,70.262h-51.976c-9.377,0-18.196-3.658-24.835-10.296   c-6.636-6.636-10.294-15.457-10.294-24.832c0-9.382,3.656-18.204,10.294-24.84C211.807,3.658,220.628,0,230.013,0h51.976   c9.382,0,18.202,3.658,24.837,10.294c6.638,6.641,10.294,15.462,10.294,24.84c0,9.375-3.658,18.191-10.296,24.832   C300.186,66.604,291.364,70.262,281.989,70.262z M230.013,18.286c-4.495,0-8.724,1.754-11.901,4.936   c-3.187,3.187-4.941,7.414-4.941,11.912c0,4.493,1.754,8.717,4.936,11.904c3.185,3.185,7.414,4.938,11.907,4.938h51.976   c4.493,0,8.719-1.754,11.907-4.938c3.185-3.187,4.938-7.414,4.938-11.904c0-4.495-1.754-8.724-4.938-11.912   c-3.182-3.182-7.414-4.936-11.907-4.936C281.989,18.286,230.013,18.286,230.013,18.286z" data-original="#242D3C" class=""></path>
	<path style="fill:#242D3C;" d="M440.072,153.231l-12.923-12.936l12.257-12.255c0.886-0.881,1.37-2.068,1.37-3.336   c0-1.7-0.863-2.826-1.38-3.341l-9.789-9.792c-0.507-0.499-1.649-1.382-3.341-1.382c-1.69,0-2.803,0.865-3.318,1.38l-12.275,12.257   l-12.923-12.936l12.265-12.25c4.332-4.339,10.107-6.735,16.251-6.735c6.116,0,11.884,2.386,16.248,6.715l9.82,9.825   c4.342,4.355,6.73,10.125,6.73,16.261c0,6.154-2.391,11.93-6.73,16.266L440.072,153.231z" data-original="#242D3C" class=""></path>
	<path style="fill:#242D3C;" d="M71.913,153.226l-12.242-12.255c-4.332-4.319-6.728-10.092-6.738-16.246   c0.01-6.175,2.404-11.948,6.738-16.279l9.792-9.8c4.372-4.349,10.143-6.738,16.269-6.738c6.139,0,11.909,2.388,16.256,6.73   l12.262,12.257l-12.928,12.928L89.065,111.57c-0.515-0.509-1.636-1.38-3.331-1.38s-2.826,0.876-3.346,1.395l-9.787,9.787   c-0.888,0.888-1.38,2.079-1.382,3.351c0.003,1.239,0.489,2.429,1.375,3.308l12.257,12.265L71.913,153.226z" data-original="#242D3C" class=""></path>
</g><path style="fill:#FFB229" d="M256,121.754v147.238c14.346,0,25.984,11.635,25.984,25.984h147.243  C429.228,199.314,351.665,121.754,256,121.754z" data-original="#43D3E8" class="hovered-path active-path" data-old_color="#43D3E8"></path><path style="fill:#F96232" d="M281.984,294.979c0,4.739-1.285,9.157-3.5,12.982l127.519,73.618  c14.748-25.48,23.224-55.043,23.224-86.6H281.984z" data-original="#F96232" class=""></path><g>
	
		<rect x="327.376" y="143.328" transform="matrix(-0.8657 -0.5005 0.5005 -0.8657 550.0425 458.4604)" style="fill:#242D3C;" width="18.28" height="24.245" data-original="#242D3C" class=""></rect>
	<rect x="246.861" y="121.754" style="fill:#242D3C;" width="18.286" height="24.253" data-original="#242D3C" class=""></rect>
	
		<rect x="163.305" y="146.31" transform="matrix(-0.5001 -0.866 0.866 -0.5001 128.5527 385.1126)" style="fill:#242D3C;" width="24.249" height="18.285" data-original="#242D3C" class=""></rect>
	
		<rect x="104.362" y="205.283" transform="matrix(-0.866 -0.5 0.5 -0.866 110.1489 458.366)" style="fill:#242D3C;" width="24.248" height="18.286" data-original="#242D3C" class=""></rect>
	<rect x="82.765" y="285.85" style="fill:#242D3C;" width="24.251" height="18.286" data-original="#242D3C" class=""></rect>
	
		<rect x="107.329" y="363.428" transform="matrix(-0.5001 -0.866 0.866 -0.5001 -150.4998 664.2214)" style="fill:#242D3C;" width="18.287" height="24.246" data-original="#242D3C" class=""></rect>
	
		<rect x="166.291" y="422.361" transform="matrix(-0.866 -0.5 0.5 -0.866 110.1154 898.4749)" style="fill:#242D3C;" width="18.286" height="24.248" data-original="#242D3C" class=""></rect>
	<rect x="246.861" y="443.955" style="fill:#242D3C;" width="18.286" height="24.246" data-original="#242D3C" class=""></rect>
	
		<rect x="324.452" y="425.341" transform="matrix(-0.5 -0.866 0.866 -0.5 128.5954 943.2079)" style="fill:#242D3C;" width="24.245" height="18.283" data-original="#242D3C" class=""></rect>
	
		<rect x="383.391" y="366.365" transform="matrix(-0.866 -0.5 0.5 -0.866 550.2809 898.4649)" style="fill:#242D3C;" width="24.248" height="18.283" data-original="#242D3C" class=""></rect>
	<rect x="404.992" y="285.824" style="fill:#242D3C;" width="24.246" height="18.286" data-original="#242D3C" class=""></rect>
	
		<rect x="386.379" y="202.307" transform="matrix(-0.5 -0.866 0.866 -0.5 407.5891 664.1722)" style="fill:#242D3C;" width="18.286" height="24.24" data-original="#242D3C" class=""></rect>
	<path style="fill:#242D3C;" d="M256,330.107c-19.366,0-35.126-15.757-35.126-35.131c0-19.369,15.757-35.128,35.126-35.128   c19.372,0,35.128,15.757,35.128,35.128C291.128,314.35,275.372,330.107,256,330.107z M256,278.134   c-9.285,0-16.84,7.557-16.84,16.842c0,9.288,7.552,16.845,16.84,16.845c9.285,0,16.842-7.557,16.842-16.845   C272.842,285.693,265.285,278.134,256,278.134z" data-original="#242D3C" class=""></path>
	<rect x="281.984" y="285.85" style="fill:#242D3C;" width="65.83" height="18.286" data-original="#242D3C" class=""></rect>
</g></g> </svg>