<svg xmlns="http://www.w3.org/2000/svg" xmlns:xlink="http://www.w3.org/1999/xlink" id="Layer_1" x="0px" y="0px" viewBox="0 0 512 512" style="enable-background:new 0 0 512 512;" xml:space="preserve" width="512" height="512" class=""><g><path style="fill:#C1CED4;" d="M269.066,35.183c-87.424,0.02-158.282,70.874-158.282,158.295c0,46.331,19.93,87.977,51.612,116.915  c1.505,1.318,3.003,2.591,4.529,3.922c24.75,22.564,40.299,54.989,40.299,91.118v10.237h61.844h61.821v-10.237  c0-36.127,15.578-68.552,40.307-91.118c1.518-1.334,3.036-2.606,4.547-3.922c31.662-28.941,51.592-70.587,51.592-116.915  C427.338,106.057,356.495,35.204,269.066,35.183z M269.02,313.327c-66.184,0-119.841-53.652-119.841-119.849  c0-66.176,53.655-119.828,119.841-119.828c66.176,0,119.839,53.652,119.839,119.828C388.856,259.675,335.196,313.327,269.02,313.327  z" data-original="#C1CED4" class=""></path><g>
	<path style="fill:#2E3133;" d="M330.89,487.354H207.224v-77.056H330.89V487.354z M217.974,476.607h102.17v-55.56h-102.17   L217.974,476.607L217.974,476.607z" data-original="#2E3133"></path>
	<rect x="193.536" y="410.287" style="fill:#2E3133;" width="151.066" height="10.747" data-original="#2E3133"></rect>
	<rect x="193.536" y="432.406" style="fill:#2E3133;" width="151.066" height="10.747" data-original="#2E3133"></rect>
	<rect x="193.536" y="454.524" style="fill:#2E3133;" width="151.066" height="10.747" data-original="#2E3133"></rect>
	<rect x="193.536" y="476.617" style="fill:#2E3133;" width="151.066" height="10.747" data-original="#2E3133"></rect>
	<rect x="232.218" y="498.735" style="fill:#2E3133;" width="73.677" height="10.747" data-original="#2E3133"></rect>
</g><g>
	<path style="fill:#F95632;" d="M333.514,292.445c2.66,1.126,5.599,1.728,8.655,1.728c12.603,0,22.784-10.181,22.784-22.753   c0-1.746-0.202-3.438-0.561-5.028c5.499-0.223,10.957-2.463,15.158-6.661c8.43-8.42,8.878-21.763,1.329-30.728   c7.803-3.597,13.22-11.492,13.22-20.659c0-9.175-5.417-17.07-13.22-20.675c7.549-8.942,7.101-22.308-1.329-30.712   c-4.201-4.206-9.656-6.431-15.158-6.641c0.358-1.628,0.561-3.32,0.561-5.056c0-12.575-10.184-22.776-22.784-22.776   c-3.057,0-5.996,0.637-8.655,1.736c-2.066-10.486-11.272-18.394-22.344-18.394c-12.595,0-22.784,10.194-22.784,22.766v159.491   c0,12.582,10.189,22.764,22.784,22.764C322.243,310.849,331.459,302.929,333.514,292.445z" data-original="#F95632" class=""></path>
	<path style="fill:#F95632;" d="M226.872,292.445c-2.68,1.126-5.604,1.728-8.663,1.728c-12.588,0-22.776-10.181-22.776-22.753   c0-1.746,0.195-3.438,0.558-5.028c-5.499-0.223-10.952-2.463-15.171-6.661c-8.397-8.42-8.852-21.763-1.331-30.728   c-7.803-3.597-13.217-11.492-13.217-20.659c0-9.175,5.414-17.07,13.217-20.675c-7.521-8.942-7.068-22.308,1.331-30.712   c4.219-4.206,9.669-6.431,15.171-6.641c-0.364-1.628-0.558-3.32-0.558-5.056c0-12.575,10.186-22.776,22.776-22.776   c3.057,0,5.983,0.637,8.663,1.736c2.043-10.486,11.267-18.394,22.356-18.394c12.588,0,22.756,10.194,22.756,22.766v159.491   c0,12.582-10.168,22.764-22.756,22.764C238.139,310.849,228.915,302.929,226.872,292.445z" data-original="#F95632" class=""></path>
</g><g>
	<path style="fill:#2E3133;" d="M230.436,297.238c-15.506,0-28.124-12.623-28.124-28.134c0-15.521,12.618-28.15,28.124-28.15v10.749   c-9.58,0-17.375,7.805-17.375,17.4c0,9.585,7.795,17.388,17.375,17.388c9.597,0,17.403-7.803,17.403-17.388V109.6   c0-9.595-7.805-17.398-17.403-17.398c-9.58,0-17.375,7.805-17.375,17.398c0,9.585,7.795,17.382,17.375,17.382v10.747   c-15.506,0-28.124-12.621-28.124-28.129c0-15.521,12.618-28.147,28.124-28.147c15.524,0,28.15,12.628,28.15,28.147v159.503   C258.586,284.617,245.96,297.238,230.436,297.238z" data-original="#2E3133"></path>
	<path style="fill:#2E3133;" d="M219.057,183.405c-15.511,0-28.129-12.626-28.129-28.145h10.749c0,9.595,7.798,17.395,17.382,17.395   v10.749H219.057z" data-original="#2E3133"></path>
	<path style="fill:#2E3133;" d="M201.674,223.41h-10.749c0-15.511,12.621-28.129,28.129-28.129v10.749   C209.475,206.028,201.674,213.825,201.674,223.41z" data-original="#2E3133"></path>
	<path style="fill:#2E3133;" d="M258.586,234.874h-10.747c0-9.59-7.803-17.39-17.388-17.39v-10.749   C245.962,206.734,258.586,219.357,258.586,234.874z" data-original="#2E3133"></path>
	<path style="fill:#2E3133;" d="M230.436,171.944v-10.749c9.597,0,17.403-7.8,17.403-17.393h10.747   C258.586,159.318,245.96,171.944,230.436,171.944z" data-original="#2E3133"></path>
	<path style="fill:#2E3133;" d="M171.963,132.479c-0.466-2.099-0.699-4.188-0.699-6.203c0-15.524,12.634-28.15,28.165-28.15   c3.727,0,7.34,0.724,10.744,2.156l-4.163,9.907c-2.079-0.87-4.293-1.316-6.582-1.316c-9.603,0-17.416,7.805-17.416,17.403   c0,1.234,0.151,2.54,0.448,3.873L171.963,132.479z" data-original="#2E3133"></path>
	<path style="fill:#2E3133;" d="M158.249,173.953c-10.964-10.97-10.964-28.818-0.003-39.79c5.322-5.325,12.393-8.256,19.907-8.256   c0.008,0,0.01,0,0.013,0c7.516,0.003,14.577,2.934,19.889,8.256l-7.606,7.593c-3.282-3.29-7.644-5.097-12.288-5.102h-0.008   c-4.641,0-9.014,1.812-12.306,5.105c-6.774,6.784-6.774,17.818,0,24.596L158.249,173.953z" data-original="#2E3133"></path>
	<path style="fill:#2E3133;" d="M170.248,217.484c-15.506,0-28.122-12.628-28.122-28.145s12.616-28.145,28.122-28.145v10.749   c-9.58,0-17.375,7.803-17.375,17.395c0,9.595,7.795,17.395,17.375,17.395V217.484z" data-original="#2E3133"></path>
	<path style="fill:#2E3133;" d="M178.153,252.771c-7.516,0-14.587-2.929-19.904-8.251c-10.964-10.957-10.964-28.805-0.003-39.78   l7.606,7.59c-6.776,6.789-6.781,17.815-0.003,24.589c3.29,3.29,7.662,5.102,12.306,5.102c4.646,0,9.014-1.812,12.296-5.097   l7.606,7.59C192.74,249.839,185.672,252.771,178.153,252.771z" data-original="#2E3133"></path>
	<path style="fill:#2E3133;" d="M199.429,280.557c-15.532,0-28.165-12.621-28.165-28.129c0-2.015,0.236-4.111,0.699-6.221   l10.496,2.309c-0.297,1.354-0.448,2.668-0.448,3.912c0,9.585,7.813,17.382,17.416,17.382c2.281,0,4.498-0.445,6.6-1.316   l4.129,9.923C206.746,279.837,203.133,280.557,199.429,280.557z" data-original="#2E3133"></path>
	<path style="fill:#2E3133;" d="M292.383,297.238c-15.514,0-28.134-12.623-28.134-28.134V109.6   c0-15.521,12.623-28.147,28.134-28.147c15.516,0,28.137,12.628,28.137,28.147c0,15.511-12.623,28.129-28.137,28.129v-10.747   c9.587,0,17.39-7.798,17.39-17.382c0-9.595-7.803-17.398-17.39-17.398c-9.585,0-17.388,7.805-17.388,17.398v159.503   c0,9.585,7.803,17.388,17.388,17.388c9.587,0,17.39-7.803,17.39-17.388c0-9.595-7.803-17.4-17.39-17.4v-10.749   c15.516,0,28.137,12.628,28.137,28.15C320.52,284.617,307.896,297.238,292.383,297.238z" data-original="#2E3133"></path>
	<path style="fill:#2E3133;" d="M303.775,183.405v-10.747c9.579,0,17.375-7.803,17.375-17.395h10.747   C331.896,170.776,319.283,183.405,303.775,183.405z" data-original="#2E3133"></path>
	<path style="fill:#2E3133;" d="M331.896,223.41h-10.747c0-9.582-7.795-17.382-17.375-17.382v-10.749   C319.283,195.278,331.896,207.899,331.896,223.41z" data-original="#2E3133"></path>
	<path style="fill:#2E3133;" d="M274.995,234.874h-10.747c0-15.516,12.623-28.14,28.134-28.14v10.749   C282.798,217.484,274.995,225.284,274.995,234.874z" data-original="#2E3133"></path>
	<path style="fill:#2E3133;" d="M292.383,171.944c-15.514,0-28.134-12.623-28.134-28.142h10.747c0,9.592,7.803,17.393,17.388,17.393   V171.944z" data-original="#2E3133"></path>
	<path style="fill:#2E3133;" d="M350.848,132.502l-10.483-2.373c0.284-1.252,0.428-2.55,0.428-3.853   c0-9.597-7.793-17.403-17.367-17.403c-2.294,0-4.526,0.445-6.636,1.324l-4.127-9.923c3.428-1.428,7.045-2.148,10.762-2.148   c15.503,0,28.114,12.626,28.114,28.15C351.539,128.375,351.306,130.467,350.848,132.502z" data-original="#2E3133"></path>
	<path style="fill:#2E3133;" d="M364.564,173.958l-7.59-7.606c3.279-3.282,5.092-7.644,5.092-12.291   c0-4.646-1.812-9.016-5.097-12.301c-3.292-3.292-7.657-5.105-12.301-5.105h-0.008c-4.641,0.003-9.004,1.812-12.285,5.102   l-7.606-7.593c5.309-5.322,12.37-8.253,19.884-8.256c0.003,0,0.01,0,0.01,0c7.521,0,14.587,2.931,19.904,8.253   c5.317,5.315,8.246,12.383,8.246,19.901C372.813,161.583,369.884,168.646,364.564,173.958z" data-original="#2E3133"></path>
	<path style="fill:#2E3133;" d="M352.571,217.484v-10.749c9.6,0,17.411-7.803,17.411-17.395c0-9.592-7.811-17.395-17.411-17.395   v-10.749c15.526,0,28.157,12.628,28.157,28.145S368.097,217.484,352.571,217.484z" data-original="#2E3133"></path>
	<path style="fill:#2E3133;" d="M344.666,252.771c-7.516,0-14.579-2.931-19.894-8.253l7.606-7.59   c3.282,3.284,7.647,5.097,12.288,5.097c4.646,0,9.016-1.812,12.306-5.102c3.284-3.279,5.094-7.642,5.097-12.28   c0-4.646-1.807-9.016-5.097-12.306l7.601-7.598c5.317,5.317,8.246,12.388,8.246,19.907c-0.003,7.516-2.934,14.577-8.251,19.881   C359.252,249.842,352.179,252.771,344.666,252.771z" data-original="#2E3133"></path>
	<path style="fill:#2E3133;" d="M323.425,280.557c-3.694,0-7.309-0.714-10.744-2.132l4.093-9.938   c2.132,0.878,4.37,1.324,6.653,1.324c9.574,0,17.367-7.798,17.367-17.382c0-1.308-0.143-2.616-0.43-3.891l10.488-2.35   c0.461,2.043,0.691,4.142,0.691,6.241C351.539,267.936,338.929,280.557,323.425,280.557z" data-original="#2E3133"></path>
</g><g>
	<path style="fill:#2D110A;" d="M292.383,206.734c-1.359,0-2.688,0.12-3.996,0.31v10.921c1.285-0.305,2.616-0.481,3.996-0.481   V206.734z" data-original="#2D110A" class=""></path>
	<path style="fill:#2D110A;" d="M292.383,161.194c-1.377,0-2.711-0.177-3.996-0.481v10.921c1.308,0.189,2.634,0.31,3.996,0.31   V161.194z" data-original="#2D110A" class=""></path>
	<path style="fill:#2D110A;" d="M321.149,155.26c0,9.595-7.795,17.395-17.375,17.395v10.747c15.508,0,28.122-12.626,28.122-28.145   h-10.747V155.26z" data-original="#2D110A" class=""></path>
	<path style="fill:#2D110A;" d="M303.775,195.278v10.749c9.579,0,17.375,7.798,17.375,17.382h10.747   C331.896,207.899,319.283,195.278,303.775,195.278z" data-original="#2D110A" class=""></path>
	<path style="fill:#2D110A;" d="M380.728,189.336c0-9.093-4.357-17.172-11.075-22.321c2.061-3.955,3.162-8.369,3.162-12.956   c0-0.602-0.051-1.193-0.087-1.789c-2.655-1.183-5.486-1.843-8.333-1.951c0.358-1.628,0.561-3.32,0.561-5.056   c0-5.988-2.327-11.42-6.108-15.488c-2.294-1.336-4.754-2.358-7.334-3c0.003-0.166,0.028-0.333,0.028-0.499   c0-0.609-0.054-1.206-0.092-1.805c-2.834-1.265-5.967-1.984-9.277-1.984c-0.599,0-1.193,0.044-1.782,0.092   c0.256,1.17,0.397,2.381,0.402,3.625c-6.044,0.832-11.633,3.566-16.018,7.959l7.606,7.593c3.282-3.29,7.644-5.097,12.285-5.102   h0.008c4.641,0,9.009,1.812,12.301,5.105c3.284,3.284,5.097,7.654,5.097,12.301c0,2.898-0.704,5.686-2.033,8.169   c-2.383-0.655-4.877-1.037-7.465-1.037v10.749c9.6,0,17.411,7.803,17.411,17.395c0,9.595-7.811,17.395-17.411,17.395v10.749   c2.586,0,5.079-0.379,7.457-1.034c1.334,2.491,2.04,5.286,2.04,8.192c-0.003,4.641-1.812,9.004-5.097,12.28   c-3.287,3.29-7.657,5.102-12.306,5.102c-4.641,0-9.006-1.812-12.288-5.097l-7.606,7.59c4.388,4.396,9.974,7.127,16.018,7.956   c-0.026,9.562-7.805,17.334-17.364,17.334c-0.988,0-1.964-0.1-2.929-0.266c0.003-0.148,0.023-0.292,0.023-0.44   c0-15.521-12.623-28.15-28.137-28.15v10.749c9.587,0,17.39,7.805,17.39,17.4c0,9.585-7.803,17.388-17.39,17.388   c-1.377,0-2.711-0.177-3.996-0.481v2.079c0,3.218,0.676,6.272,1.874,9.044c0.701,0.054,1.405,0.108,2.12,0.108   c11.625,0,21.624-7.089,25.91-17.167c1.687,0.312,3.4,0.484,5.133,0.484c15.503,0,28.114-12.621,28.114-28.129   c0-0.177-0.026-0.351-0.031-0.527c4.897-1.221,9.398-3.717,13.056-7.378c5.315-5.304,8.248-12.365,8.251-19.881   c0-4.595-1.106-9.016-3.169-12.979C376.369,206.516,380.728,198.435,380.728,189.336z" data-original="#2D110A" class=""></path>
	<path style="fill:#2D110A;" d="M264.248,111.517v157.589c0,7.475,2.949,14.259,7.724,19.302c0-0.108,0.015-0.212,0.015-0.32   V128.595C271.985,121.786,268.984,115.688,264.248,111.517z" data-original="#2D110A" class=""></path>
	<path style="fill:#2D110A;" d="M311.173,105.829c-0.607,0-1.206,0.044-1.8,0.092c0.259,1.188,0.399,2.417,0.399,3.681   c0,9.585-7.803,17.382-17.39,17.382v10.747c15.516,0,28.137-12.621,28.137-28.129c0-0.156-0.02-0.307-0.023-0.463   c0.694-0.118,1.4-0.187,2.107-0.225C319.247,106.953,315.343,105.829,311.173,105.829z" data-original="#2D110A" class=""></path>
	<path style="fill:#2D110A;" d="M168.159,217.332c0.696,0.054,1.38,0.148,2.089,0.148v-10.749c-1.316,0-2.591-0.161-3.825-0.438   c-0.059,0.681-0.151,1.354-0.151,2.051C166.275,211.544,166.968,214.573,168.159,217.332z" data-original="#2D110A" class=""></path>
	<path style="fill:#2D110A;" d="M190.927,223.41h10.749c0-9.582,7.798-17.382,17.382-17.382v-10.749   C203.546,195.278,190.927,207.899,190.927,223.41z" data-original="#2D110A" class=""></path>
	<path style="fill:#2D110A;" d="M186.217,263.72c-2.604-3.028-4.191-6.95-4.201-11.244c6.052-0.827,11.648-3.564,16.038-7.959   l-7.606-7.59c-3.282,3.284-7.649,5.097-12.296,5.097c-1.318,0-2.611-0.161-3.866-0.445c-0.591,6.492,1.574,13.184,6.536,18.158   C182.456,261.362,184.279,262.683,186.217,263.72z" data-original="#2D110A" class=""></path>
	<path style="fill:#2D110A;" d="M219.057,172.655c-9.582,0-17.382-7.803-17.382-17.395h-10.749   c0,15.519,12.621,28.145,28.129,28.145v-10.749H219.057z" data-original="#2D110A" class=""></path>
	<path style="fill:#2D110A;" d="M230.436,137.732v-10.747c-4.452,0-8.504-1.7-11.581-4.465c-0.215-0.005-0.428-0.033-0.643-0.033   c-4.017,0-7.785,1.047-11.059,2.87C212.214,132.819,220.762,137.732,230.436,137.732z" data-original="#2D110A" class=""></path>
	<path style="fill:#2D110A;" d="M258.586,269.103V109.6c0-0.604-0.054-1.196-0.09-1.789c-2.831-1.265-5.96-1.981-9.265-1.981   c-0.604,0-1.203,0.033-1.795,0.079c0.259,1.19,0.402,2.424,0.402,3.692v34.199c0,9.592-7.805,17.393-17.403,17.393v10.749   c6.569,0,12.608-2.278,17.403-6.065v46.917c-4.792-3.784-10.826-6.062-17.388-6.062v10.749c9.587,0,17.388,7.8,17.388,17.39v34.23   c0,9.585-7.805,17.388-17.403,17.388c-9.58,0-17.375-7.803-17.375-17.388c0-9.595,7.795-17.4,17.375-17.4v-10.749   c-15.506,0-28.124,12.628-28.124,28.15c0,0.151,0.02,0.292,0.023,0.443c-0.955,0.161-1.923,0.264-2.906,0.264   c-1.334,0-2.629-0.164-3.881-0.451c-0.061,0.681-0.115,1.362-0.115,2.063c0,3.21,0.671,6.259,1.869,9.027   c0.704,0.054,1.408,0.108,2.125,0.108c1.728,0,3.433-0.172,5.11-0.481c2.588,6.088,7.268,11.069,13.123,14.072   c0.184,0.005,0.364,0.028,0.548,0.028c3.057,0,5.983-0.599,8.663-1.728c0.32,1.646,0.837,3.215,1.49,4.716   c0.686,0.051,1.375,0.077,2.074,0.077C245.96,297.238,258.586,284.617,258.586,269.103z" data-original="#2D110A" class=""></path>
</g><g>
	<path style="fill:#22272A;" d="M171.377,124.049c6.958-9.764,15.329-18.442,24.837-25.725   C182.922,99.841,172.434,110.634,171.377,124.049z" data-original="#22272A" class=""></path>
	<path style="fill:#22272A;" d="M225.144,81.972c-4.536,0.868-8.694,2.819-12.175,5.591   C216.901,85.48,220.966,83.619,225.144,81.972z" data-original="#22272A" class=""></path>
	<path style="fill:#22272A;" d="M152.486,165.546c3.284-13.747,8.924-26.57,16.492-38.024c-3.986,1.367-7.665,3.566-10.734,6.638   C149.78,142.637,147.873,155.206,152.486,165.546z" data-original="#22272A" class=""></path>
	<path style="fill:#22272A;" d="M162.163,247.717c-4.997-9.825-8.681-20.424-10.816-31.58c-3.054,9.695-0.765,20.723,6.902,28.383   C159.457,245.731,160.788,246.765,162.163,247.717z" data-original="#22272A" class=""></path>
	<path style="fill:#22272A;" d="M149.179,193.478c0-8.699,0.95-17.172,2.711-25.344c-5.952,5.161-9.764,12.726-9.764,21.204   c0,7.654,3.108,14.564,8.084,19.638C149.555,203.898,149.179,198.734,149.179,193.478z" data-original="#22272A" class=""></path>
</g><rect x="368.358" y="273.455" style="fill:#FFB229" width="128.154" height="85.921" data-original="#63D1DB" class="" data-old_color="#63D1DB"></rect><polygon style="fill:#2E3133;" points="511.693,385.734 378.153,385.734 378.153,374.985 500.946,374.985 500.946,294.435   511.693,294.435 " data-original="#2E3133"></polygon><g>
	<polygon style="fill:#FFFFFF;" points="449.303,306.623 408.422,347.485 490.14,347.485  " data-original="#FFFFFF" class=""></polygon>
	<polygon style="fill:#FFFFFF;" points="420.122,320.8 393.462,347.485 446.817,347.485  " data-original="#FFFFFF" class=""></polygon>
	<path style="fill:#FFFFFF;" d="M437.245,303.351c0,4.718-3.827,8.558-8.543,8.558c-4.746,0-8.581-3.84-8.581-8.558   c0-4.733,3.835-8.561,8.581-8.561C433.418,294.79,437.245,298.618,437.245,303.351z" data-original="#FFFFFF" class=""></path>
</g><g>
	<path style="fill:#2E3133;" d="M84.083,364.796c-26.655,0-48.338-21.696-48.338-48.361c0-26.673,21.686-48.374,48.338-48.374   c26.673,0,48.374,21.701,48.374,48.374C132.457,343.1,110.756,364.796,84.083,364.796z M84.083,278.811   c-20.728,0-37.591,16.878-37.591,37.624c0,20.744,16.863,37.612,37.591,37.612c20.746,0,37.624-16.87,37.624-37.612   C121.708,295.689,104.829,278.811,84.083,278.811z" data-original="#2E3133"></path>
	<polygon style="fill:#2E3133;" points="74.481,300.312 102.395,316.435 74.481,332.556  " data-original="#2E3133"></polygon>
</g><polygon style="fill:#C1CED4;" points="168.556,77.091 168.556,163.411 62.062,163.411 39.985,185.478 39.985,163.411   26.583,163.411 26.583,77.091 " data-original="#C1CED4" class=""></polygon><g>
	<rect x="44.652" y="125.403" style="fill:#2E3133;" width="71.731" height="10.747" data-original="#2E3133"></rect>
	<rect y="103.635" style="fill:#2E3133;" width="116.403" height="10.747" data-original="#2E3133"></rect>
	<path style="fill:#2E3133;" d="M463.982,197.293c-10.811,0-19.607-8.786-19.607-19.584c0-10.808,8.799-19.599,19.607-19.599   c10.806,0,19.592,8.791,19.592,19.599C483.574,188.509,474.788,197.293,463.982,197.293z M463.982,168.856   c-4.882,0-8.858,3.971-8.858,8.852c0,4.874,3.976,8.837,8.858,8.837c4.877,0,8.845-3.963,8.845-8.837   C472.827,172.827,468.859,168.856,463.982,168.856z" data-original="#2E3133"></path>
	<path style="fill:#2E3133;" d="M492.421,129.097c-10.803,0-19.592-8.781-19.592-19.579h10.747c0,4.869,3.968,8.832,8.845,8.832   V129.097z" data-original="#2E3133"></path>
	<path style="fill:#2E3133;" d="M512,137.952h-10.747c0-4.884-3.963-8.855-8.832-8.855V118.35   C503.217,118.348,512,127.141,512,137.952z" data-original="#2E3133"></path>
	<rect x="472.832" y="109.518" style="fill:#2E3133;" width="10.747" height="68.191" data-original="#2E3133"></rect>
	<path style="fill:#2E3133;" d="M396.114,71.459h-74.964V20.097h74.964V71.459z M331.896,60.709h53.468V30.844h-53.468V60.709z" data-original="#2E3133"></path>
</g><path style="fill:#C1CED4;" d="M177.631,374.45c0,8.328-6.738,15.086-15.066,15.086c-8.32,0-15.066-6.758-15.066-15.086  c0-8.32,6.746-15.066,15.066-15.066C170.893,359.384,177.631,366.13,177.631,374.45z" data-original="#C1CED4" class=""></path><path style="fill:#FFB229" d="M240.1,35.183c0,18.033-14.625,32.645-32.65,32.645c-18.038,0-32.663-14.612-32.663-32.645  c0-18.048,14.625-32.666,32.663-32.666C225.475,2.518,240.1,17.135,240.1,35.183z" data-original="#63D1DB" class="" data-old_color="#63D1DB"></path><g>
	<path style="fill:#BC4528;" d="M301.706,308.776c2.885,1.318,6.085,2.074,9.467,2.074c10.196,0,18.803-6.728,21.709-15.977   C323.318,300.909,312.842,305.624,301.706,308.776z" data-original="#BC4528" class=""></path>
	<path style="fill:#BC4528;" d="M382.666,231.484c-8.499,25.431-25.27,47.068-47.147,61.693c2.104,0.653,4.342,0.996,6.651,0.996   c12.603,0,22.784-10.181,22.784-22.753c0-1.746-0.202-3.438-0.561-5.028c5.499-0.223,10.957-2.463,15.158-6.661   C387.241,252.056,388.265,240.298,382.666,231.484z" data-original="#BC4528" class=""></path>
	<path style="fill:#BC4528;" d="M394.099,208.347c0-5.522-1.987-10.56-5.253-14.497c-0.036,11.589-1.738,22.779-4.841,33.375   C390.085,223.144,394.099,216.224,394.099,208.347z" data-original="#BC4528" class=""></path>
</g><path style="fill:#EB7D16" d="M368.363,273.46v43.574c0.94-0.911,1.866-1.838,2.834-2.721c1.518-1.334,3.036-2.606,4.547-3.922  c11.712-10.706,21.806-23.158,29.893-36.933h-37.274V273.46z" data-original="#4BA9B6" class="active-path" data-old_color="#4BA9B6"></path><path style="fill:#23282A;" d="M355.2,60.709h-23.304V48.18c-3.517-1.523-7.104-2.908-10.747-4.178v27.456h48.737  C365.215,67.596,360.297,64.024,355.2,60.709z" data-original="#23282A"></path><path style="fill:#EB7D16" d="M207.447,67.831c17.108,0,31.127-13.169,32.515-29.924c-19.74,3.674-38.188,10.995-54.62,21.261  C191.16,64.529,198.909,67.831,207.447,67.831z" data-original="#4BA9B6" class="active-path" data-old_color="#4BA9B6"></path><path style="fill:#92A6B0;" d="M152.986,163.411c3.279-12.685,8.607-24.538,15.57-35.228V77.091h-6.733  c-24.364,22.461-41.641,52.47-48.151,86.321H152.986z" data-original="#92A6B0"></path><path style="fill:#1A2024" d="M168.556,161.315c-1.974,0.125-3.909,0.404-5.757,0.914c-3.492-6.574-2.478-14.935,3.049-20.47  c0.837-0.837,1.746-1.577,2.708-2.217v-11.884c-3.825,1.38-7.35,3.538-10.312,6.502c-7.89,7.898-10.081,19.356-6.61,29.251h16.919  v-2.097H168.556z" data-original="#1A2024" class=""></path><g>
	<rect x="44.652" y="125.403" style="fill:#23282A;" width="71.731" height="10.747" data-original="#23282A"></rect>
	<rect x="26.583" y="103.635" style="fill:#23282A;" width="89.805" height="10.747" data-original="#23282A"></rect>
</g></g> </svg>