<svg xmlns="http://www.w3.org/2000/svg" xmlns:xlink="http://www.w3.org/1999/xlink" id="Layer_1" x="0px" y="0px" viewBox="0 0 512.013 512.013" style="enable-background:new 0 0 512.013 512.013;" xml:space="preserve" width="512" height="512" class=""><g><rect x="212.845" y="453.248" style="fill:#C1CED4;" width="106.788" height="53.391" data-original="#C1CED4" class=""></rect><rect x="187.219" y="501.274" style="fill:#2E3133;" width="158.052" height="10.739" data-original="#2E3133" class=""></rect><path style="fill:#C1CED4;" d="M444.015,168.312c-2.504-2.504-5.783-3.756-9.065-3.756H97.486c-3.269,0-6.554,1.252-9.044,3.756  c-2.501,2.501-3.745,5.783-3.745,9.057v233.139h363.075V177.37C447.768,174.095,446.524,170.811,444.015,168.312z M424.278,387.028  H108.184V188.045h316.093V387.028z" data-original="#C1CED4" class=""></path><g>
	<path style="fill:#2E3133;" d="M84.696,410.506v29.916c0,3.272,1.244,6.559,3.745,9.05c2.493,2.493,5.775,3.766,9.044,3.766H434.95   c3.282,0,6.561-1.272,9.065-3.766c2.506-2.493,3.753-5.778,3.753-9.05v-29.916H84.696z M437.027,440.422   c0,0.387-0.1,0.952-0.589,1.439c-0.553,0.553-1.167,0.637-1.485,0.637H97.486c-0.312,0-0.911-0.082-1.462-0.63   c-0.486-0.486-0.586-1.052-0.586-1.444V421.25h341.591v19.172H437.027z" data-original="#2E3133" class=""></path>
	<path style="fill:#2E3133;" d="M486.875,205.064l-47.58,47.57l-28.268-28.285l-58.563,49.083l-13.133-13.133l-26.23,26.235   l-27.75-27.732l-56.778,56.778l-20.664-20.646c0,0-41.452,41.446-42.273,42.281l-40.648-40.63l-86.991,86.989l7.593,7.596   l79.398-79.398l40.65,40.625c0,0,33.787-33.792,42.271-42.276l20.664,20.644l56.778-56.776l27.75,27.73l26.23-26.235l12.498,12.5   l58.555-49.085l28.902,28.923l55.183-55.165L486.875,205.064z" data-original="#2E3133" class=""></path>
	<polygon style="fill:#2E3133;" points="496.042,238.162 485.298,238.162 485.298,214.231 461.37,214.231 461.37,203.489    496.042,203.489  " data-original="#2E3133" class=""></polygon>
</g><polygon style="fill:#F95632;" points="367.208,320.138 346.894,299.817 305.268,334.702 296.157,325.591 277.508,344.23   257.804,324.529 217.448,364.877 202.761,350.203 172.704,380.26 143.814,351.38 84.696,410.506 403.718,410.506 403.718,283.625   " data-original="#F95632"></polygon><polygon style="fill:#FFB229" points="15.971,114.55 15.971,250.598 42.072,250.598 42.072,286.497 77.976,250.598   247.866,250.598 247.866,114.55 " data-original="#63D1DB" class="" data-old_color="#63D1DB"></polygon><path style="fill:#EB7D16" d="M108.184,250.598v-62.554h139.681v-23.488H97.486c-3.269,0-6.554,1.252-9.044,3.756  c-2.501,2.501-3.745,5.783-3.745,9.057v73.229H108.184z" data-original="#4BA9B6" class="active-path" data-old_color="#4BA9B6"></path><g>
	<rect x="33.691" y="204.365" style="fill:#FFFFFF;" width="13.77" height="18.58" data-original="#FFFFFF" class=""></rect>
	<rect x="51.862" y="187.136" style="fill:#FFFFFF;" width="13.773" height="35.799" data-original="#FFFFFF" class=""></rect>
	<rect x="70.025" y="195.098" style="fill:#FFFFFF;" width="13.783" height="27.853" data-original="#FFFFFF" class=""></rect>
	<rect x="88.204" y="155.372" style="fill:#FFFFFF;" width="13.768" height="67.574" data-original="#FFFFFF" class=""></rect>
	<rect x="106.367" y="173.312" style="fill:#FFFFFF;" width="13.77" height="49.641" data-original="#FFFFFF" class=""></rect>
	<rect x="124.545" y="141.926" style="fill:#FFFFFF;" width="13.763" height="81.014" data-original="#FFFFFF" class=""></rect>
	<rect x="142.703" y="180.838" style="fill:#FFFFFF;" width="13.775" height="42.12" data-original="#FFFFFF" class=""></rect>
	<rect x="160.874" y="189.151" style="fill:#FFFFFF;" width="13.768" height="33.795" data-original="#FFFFFF" class=""></rect>
	<rect x="179.037" y="155.372" style="fill:#FFFFFF;" width="13.775" height="67.574" data-original="#FFFFFF" class=""></rect>
	<rect x="197.203" y="124.644" style="fill:#FFFFFF;" width="13.78" height="98.304" data-original="#FFFFFF" class=""></rect>
</g><path style="fill:#C1CED4;" d="M317.108,37.496c-26.929,0-48.74,21.814-48.74,48.737s21.814,48.753,48.74,48.753  c26.918,0,48.755-21.829,48.755-48.753S344.027,37.496,317.108,37.496z" data-original="#C1CED4" class=""></path><path style="fill:#2E3133;" d="M321.12,96.842l-72.586-63.158l3.52-4.05C268.42,10.801,292.143,0,317.144,0  c3.766,0,7.57,0.251,11.302,0.748l5.32,0.709L321.12,96.842z M263.825,32.755l49.272,42.872l8.586-64.745  C299.992,9.521,278.97,17.646,263.825,32.755z" data-original="#2E3133" class=""></path><path style="fill:#F95632;" d="M314.472,144.399c0.881,0.041,1.743,0.136,2.624,0.133c13.755,0.008,26.365-4.782,36.332-12.741  l-22.984-29.105c-3.617,2.936-8.23,4.713-13.266,4.728c-0.394,0.013-0.755-0.026-1.157-0.046L314.472,144.399z" data-original="#F95632"></path><g>
	<path style="fill:#FFB229" d="M336.454,77.588c3.999,8.952,1.277,19.19-6.016,25.093l28.26,34.875   c22.728-18.388,31.176-50.394,18.693-78.285L336.454,77.588z" data-original="#63D1DB" class="" data-old_color="#63D1DB"></path>
	<circle style="fill:#FFB229" cx="337.133" cy="219.29" r="14.651" data-original="#63D1DB" class="" data-old_color="#63D1DB"></circle>
</g><path style="fill:#F95632;" d="M452.54,150.948c0,14.996-12.157,27.154-27.154,27.154c-14.986,0-27.149-12.157-27.149-27.154  c0-14.989,12.165-27.146,27.149-27.146C440.38,123.802,452.54,135.956,452.54,150.948z" data-original="#F95632"></path><path style="fill:#2E3133;" d="M105.929,129.096c-17.08,0-30.979-13.898-30.979-30.981c0-17.088,13.898-30.989,30.979-30.989  s30.981,13.901,30.981,30.989C136.91,115.197,123.009,129.096,105.929,129.096z M105.929,77.868  c-11.159,0-20.237,9.083-20.237,20.247c0,11.162,9.078,20.239,20.237,20.239c11.162,0,20.239-9.078,20.239-20.239  C126.168,86.95,117.091,77.868,105.929,77.868z" data-original="#2E3133" class=""></path><path style="fill:#C1CED4;" d="M195.38,75.028c0,6.067-4.915,10.982-10.982,10.982c-6.054,0-10.972-4.915-10.972-10.982  c0-6.06,4.915-10.972,10.972-10.972C190.463,64.056,195.38,68.969,195.38,75.028z" data-original="#C1CED4" class=""></path><polygon style="fill:#BC452A;" points="108.184,387.028 108.184,387.016 84.696,410.506 403.718,410.506 403.718,387.028 " data-original="#BC452A"></polygon><g>
	<polygon style="fill:#23282A;" points="447.768,244.16 439.295,252.634 424.278,237.606 424.278,252.803 439.287,267.822    447.768,259.343  " data-original="#23282A" class=""></polygon>
	<polygon style="fill:#23282A;" points="84.696,352.061 108.184,328.573 108.184,313.385 84.696,336.875  " data-original="#23282A" class=""></polygon>
</g><path style="fill:#BC452A;" d="M444.015,168.312c-2.504-2.504-5.783-3.756-9.065-3.756h-33.034  c4.705,8.09,13.445,13.545,23.468,13.545c7.762,0,14.746-3.274,19.691-8.494C444.74,169.167,444.422,168.714,444.015,168.312z" data-original="#BC452A"></path><path style="fill:#12282C;" d="M117.697,114.55c-3.32,2.386-7.378,3.804-11.768,3.804c-4.39,0-8.448-1.421-11.768-3.804H79.715  c5.489,8.722,15.173,14.546,26.212,14.546c11.041,0,20.726-5.824,26.214-14.546H117.697z" data-original="#12282C" class=""></path><path style="fill:#BC452A;" d="M314.871,134.874c0.748,0.033,1.482,0.113,2.237,0.113c11.507,0,22.067-4.012,30.408-10.683  l-17.07-21.617c-3.617,2.936-8.23,4.713-13.266,4.728c-0.394,0.013-0.755-0.026-1.157-0.046L314.871,134.874z" data-original="#BC452A"></path><path style="fill:#EB7D16" d="M361.588,66.342l-25.134,11.246c3.999,8.952,1.277,19.19-6.016,25.093l17.352,21.414  c11.018-8.94,18.074-22.572,18.074-37.862C365.864,79.14,364.315,72.422,361.588,66.342z" data-original="#4BA9B6" class="active-path" data-old_color="#4BA9B6"></path><path style="fill:#23282A;" d="M328.795,38.966c-3.425-0.845-6.984-1.339-10.647-1.416l-5.051,38.077l-28.969-25.206  c-2.637,2.429-5.025,5.123-7.076,8.079l44.068,38.344L328.795,38.966z" data-original="#23282A" class=""></path></g> </svg>