<svg xmlns="http://www.w3.org/2000/svg" xmlns:xlink="http://www.w3.org/1999/xlink" id="Capa_1" x="0px" y="0px" viewBox="0 0 512 512" style="enable-background:new 0 0 512 512;" xml:space="preserve">
<path style="fill:#403E3E;" d="M160,512h-21.333v-96h-32c-11.515,0-22.244-4.468-30.218-12.574  C68.464,395.584,64,384.843,64,373.333V320H0v-24.052l64.02-117.375C65.5,79.854,146.266,0,245.333,0  C328.114,0,400.343,55.928,421,136.005l-20.667,5.322c-18.219-70.65-81.957-119.994-154.999-119.994c-88.224,0-160,71.775-160,160  v2.719L22.817,298.667h62.516v74.667c0,5.75,2.202,11.084,6.198,15.011c4.057,4.124,9.386,6.322,15.135,6.322h53.333L160,512  L160,512z"></path>
<path style="fill:#F96232;" d="M480,266.667c0,11.73-9.603,21.333-21.333,21.333h-192c-11.735,0-21.333-9.603-21.333-21.333v-85.333  c0-11.734,9.599-21.333,21.333-21.333h192c11.73,0,21.333,9.599,21.333,21.333V266.667z"></path>
<g>
	<rect x="352" y="309.333" style="fill:#403E3E;" width="21.333" height="64"></rect>
	<path style="fill:#403E3E;" d="M362.667,480C339.135,480,320,460.864,320,437.333c0-23.531,19.135-42.667,42.667-42.667   c23.531,0,42.665,19.136,42.665,42.667C405.332,460.864,386.198,480,362.667,480z M362.667,416   c-11.761,0-21.335,9.574-21.335,21.333c0,11.76,9.574,21.333,21.335,21.333c11.759,0,21.333-9.573,21.333-21.333   C384,425.574,374.426,416,362.667,416z"></path>
	<path style="fill:#403E3E;" d="M256,480c-23.526,0-42.667-19.136-42.667-42.667c0-23.531,19.141-42.667,42.667-42.667   c23.532,0,42.667,19.136,42.667,42.667C298.667,460.864,279.533,480,256,480z M256,416c-11.766,0-21.333,9.574-21.333,21.333   c0,11.76,9.568,21.333,21.333,21.333c11.76,0,21.332-9.573,21.332-21.333C277.332,425.574,267.761,416,256,416z"></path>
	<path style="fill:#403E3E;" d="M469.332,480c-23.529,0-42.665-19.136-42.665-42.667c0-23.531,19.136-42.667,42.665-42.667   c23.532,0,42.668,19.136,42.668,42.667C512,460.864,492.865,480,469.332,480z M469.332,416c-11.76,0-21.332,9.574-21.332,21.333   c0,11.76,9.572,21.333,21.332,21.333s21.335-9.573,21.335-21.333C490.667,425.574,481.093,416,469.332,416z"></path>
	<path style="fill:#403E3E;" d="M266.667,405.333h-21.333v-42.666c0-8.552,3.333-16.594,9.379-22.636   c6.046-6.041,14.077-9.364,22.62-9.364h53.335V352h-53.335c-2.842,0-5.521,1.115-7.541,3.135c-2.021,2.01-3.124,4.677-3.124,7.531   V405.333L266.667,405.333z"></path>
	<path style="fill:#403E3E;" d="M480,405.333h-21.333v-42.666c0-2.843-1.115-5.521-3.126-7.542c-2.02-2.009-4.697-3.124-7.541-3.124   h-53.333v-21.333H448c8.542,0,16.582,3.333,22.625,9.374c6.042,6.044,9.375,14.085,9.375,22.626V405.333z"></path>
</g>
<g>
	<rect x="309.333" y="213.333" style="fill:#FFFFFF;" width="21.333" height="21.333"></rect>
	<rect x="352" y="213.333" style="fill:#FFFFFF;" width="21.333" height="21.333"></rect>
	<rect x="394.667" y="213.333" style="fill:#FFFFFF;" width="21.333" height="21.333"></rect>
</g>
<g>
</g>
<g>
</g>
<g>
</g>
<g>
</g>
<g>
</g>
<g>
</g>
<g>
</g>
<g>
</g>
<g>
</g>
<g>
</g>
<g>
</g>
<g>
</g>
<g>
</g>
<g>
</g>
<g>
</g>
</svg>