<svg xmlns="http://www.w3.org/2000/svg" xmlns:xlink="http://www.w3.org/1999/xlink" id="Capa_1" x="0px" y="0px" viewBox="0 0 512.97 512.97" style="enable-background:new 0 0 512.97 512.97;" xml:space="preserve" width="512" height="512" class="hovered-paths"><g><path style="fill:#403E3E;" d="M181.676,512.97h-21.374v-96.182h-32.061c-11.537,0-22.286-4.477-30.275-12.597  c-8.001-7.857-12.472-18.619-12.472-30.15v-53.434h-64.12v-24.098l64.142-117.597C86.996,80.005,167.916,0,267.171,0  c54.061,0,93.812,14.58,125.11,45.878L377.17,60.99c-27.03-27.03-61.982-39.616-109.999-39.616  c-88.39,0-160.303,71.911-160.303,160.303v2.724L44.233,299.233h62.634v74.808c0,5.761,2.208,11.104,6.211,15.039  c4.064,4.132,9.403,6.335,15.163,6.335h53.434L181.676,512.97L181.676,512.97z" data-original="#403E3E"></path><rect x="277.857" y="406.103" style="fill:#F96232;" width="128.239" height="85.495" data-original="#F96232" class="hovered-path"></rect><g>
	<rect x="267.171" y="395.417" style="fill:#403E3E;" width="149.618" height="21.372" data-original="#403E3E"></rect>
	<rect x="267.171" y="438.161" style="fill:#403E3E;" width="149.618" height="21.372" data-original="#403E3E"></rect>
	<rect x="299.229" y="491.598" style="fill:#403E3E;" width="85.495" height="21.372" data-original="#403E3E"></rect>
	<path style="fill:#403E3E;" d="M406.099,406.101h-21.372v-10.686c0-32.343,24.515-61,45.878-82.364   c13.704-13.704,39.615-49.864,39.615-88.657c0-70.695-57.524-128.211-128.242-128.211c-70.716,0-128.24,57.515-128.24,128.211   c0,38.793,25.912,74.954,39.616,88.657c21.364,21.364,45.878,50.022,45.878,82.364v10.686h-21.375v-10.686   c0-24.494-21.169-48.811-39.615-67.252c-1.873-1.868-45.878-46.536-45.878-103.769c0-82.479,67.115-149.585,149.615-149.585   c82.501,0.001,149.618,67.107,149.618,149.585c0,57.233-44,101.902-45.878,103.769c-18.441,18.442-39.619,42.76-39.619,67.252   V406.101L406.099,406.101z" data-original="#403E3E"></path>
</g><circle style="fill:#FFB229" cx="341.979" cy="224.427" r="96.181" data-original="#43D3E8" class="active-path" data-old_color="#43D3E8"></circle><polygon style="fill:#FFFFFF" points="331.293,260.91 291.675,221.293 306.787,206.182 331.293,230.685 377.17,184.807   392.282,199.92 " data-original="#FFFFFF" class=""></polygon></g> </svg>