<svg xmlns="http://www.w3.org/2000/svg" xmlns:xlink="http://www.w3.org/1999/xlink" id="Layer_1" x="0px" y="0px" viewBox="0 0 512 512" style="enable-background:new 0 0 512 512;" xml:space="preserve" width="512" height="512"><g><g>
	<rect x="472" y="40" style="fill:#FF661A;" width="40" height="144" data-original="#FF661A"></rect>
	<path style="fill:#FF661A;" d="M312,136V88c0-4,1.6-8,4.8-11.2S324,72,328,72s8,1.6,11.2,4.8S344,84,344,88V40H216v144h123.2   L312,136z" data-original="#FF661A"></path>
</g><rect x="240" y="144" style="fill:#2B2B2B;" width="16" height="16" data-original="#2B2B2B"></rect><g>
	<rect x="328" y="472" style="fill:#FFB229" width="144" height="40" data-original="#54E3E3" class="active-path" data-old_color="#54E3E3"></rect>
	<path style="fill:#FFB229" d="M376,312h48c4,0,8,1.6,11.2,4.8S440,324,440,328s-1.6,8-4.8,11.2S428,344,424,344h48V216H328v123.2   L376,312z" data-original="#54E3E3" class="active-path" data-old_color="#54E3E3"></path>
</g><rect x="352" y="240" style="fill:#2B2B2B;" width="16" height="16" data-original="#2B2B2B"></rect><g>
	<rect x="40" style="fill:#FFB229" width="144" height="40" data-original="#54E3E3" class="active-path" data-old_color="#54E3E3"></rect>
	<path style="fill:#FFB229" d="M136,200H88c-4,0-8-1.6-11.2-4.8S72,188,72,184s1.6-8,4.8-11.2S84,168,88,168H40v128h144V172.8   L136,200z" data-original="#54E3E3" class="active-path" data-old_color="#54E3E3"></path>
</g><rect x="64" y="256" style="fill:#2B2B2B;" width="16" height="16" data-original="#2B2B2B"></rect><g>
	<rect y="328" style="fill:#FF661A;" width="40" height="144" data-original="#FF661A"></rect>
	<path style="fill:#FF661A;" d="M200,376v48c0,4-1.6,8-4.8,11.2c-3.2,3.2-7.2,4.8-11.2,4.8s-8-1.6-11.2-4.8S168,428,168,424v48h128   V328H172.8L200,376z" data-original="#FF661A"></path>
</g><g>
	<rect x="256" y="352" style="fill:#2B2B2B;" width="16" height="16" data-original="#2B2B2B"></rect>
	<path style="fill:#2B2B2B;" d="M64,112H32c-6.4,0-12.8-2.4-16.8-7.2C10.4,100,8,94.4,8,88s2.4-12.8,7.2-16.8C20,66.4,25.6,64,32,64   h32v16H32c-2.4,0-4,0.8-5.6,2.4S24,85.6,24,88s0.8,4,2.4,5.6S29.6,96,32,96h32V112z" data-original="#2B2B2B"></path>
	<path style="fill:#2B2B2B;" d="M64,144H24c-6.4,0-12.8-2.4-16.8-7.2C2.4,132,0,126.4,0,120s2.4-12.8,7.2-16.8   C12,98.4,17.6,96,24,96h40v16H24c-2.4,0-4,0.8-5.6,2.4S16,117.6,16,120s0.8,4,2.4,5.6s3.2,2.4,5.6,2.4h40V144z" data-original="#2B2B2B"></path>
	<path style="fill:#2B2B2B;" d="M88,176H32c-6.4,0-12.8-2.4-16.8-7.2C10.4,164,8,158.4,8,152s2.4-12.8,7.2-16.8   C20,130.4,25.6,128,32,128h32v16H32c-2.4,0-4,0.8-5.6,2.4S24,149.6,24,152s0.8,4,2.4,5.6s3.2,2.4,5.6,2.4h56V176z" data-original="#2B2B2B"></path>
	<path style="fill:#2B2B2B;" d="M138.4,208H88c-6.4,0-12.8-2.4-16.8-7.2C66.4,196,64,190.4,64,184s2.4-12.8,7.2-16.8   C76,162.4,81.6,160,88,160h32v16H88c-2.4,0-4,0.8-5.6,2.4S80,181.6,80,184s0.8,4,2.4,5.6s3.2,2.4,5.6,2.4h45.6l56-32H216v16h-21.6   L138.4,208z" data-original="#2B2B2B"></path>
	<path style="fill:#2B2B2B;" d="M64,80H40c-6.4,0-12.8-2.4-16.8-7.2C18.4,68,16,62.4,16,56s2.4-12.8,7.2-16.8C28,34.4,33.6,32,40,32   h114.4l55.2,16h7.2v16h-10.4l-55.2-16H40c-2.4,0-4,0.8-5.6,2.4S32,53.6,32,56s0.8,4,2.4,5.6S37.6,64,40,64h24V80z" data-original="#2B2B2B"></path>
	<path style="fill:#2B2B2B;" d="M88,504c-6.4,0-12.8-2.4-16.8-7.2S64,486.4,64,480v-32h16v32c0,2.4,0.8,4,2.4,5.6   c3.2,3.2,8,3.2,11.2,0c1.6-1.6,2.4-3.2,2.4-5.6v-32h16v32c0,6.4-2.4,12.8-7.2,16.8S94.4,504,88,504z" data-original="#2B2B2B"></path>
	<path style="fill:#2B2B2B;" d="M120,512c-6.4,0-12.8-2.4-16.8-7.2S96,494.4,96,488v-40h16v40c0,2.4,0.8,4,2.4,5.6   c3.2,3.2,8,3.2,11.2,0c1.6-1.6,2.4-3.2,2.4-5.6v-40h16v40c0,6.4-2.4,12.8-7.2,16.8C132,508.8,126.4,512,120,512z" data-original="#2B2B2B"></path>
	<path style="fill:#2B2B2B;" d="M152,504c-6.4,0-12.8-2.4-16.8-7.2S128,486.4,128,480v-32h16v32c0,2.4,0.8,4,2.4,5.6   c3.2,3.2,8,3.2,11.2,0c1.6-1.6,2.4-3.2,2.4-5.6v-56h16v56c0,6.4-2.4,12.8-7.2,16.8S158.4,504,152,504z" data-original="#2B2B2B"></path>
	<path style="fill:#2B2B2B;" d="M184,448c-6.4,0-12.8-2.4-16.8-7.2S160,430.4,160,424v-32h16v32c0,2.4,0.8,4,2.4,5.6   c3.2,3.2,8,3.2,11.2,0c1.6-1.6,2.4-3.2,2.4-5.6v-45.6l-32-56V296h16v21.6l32,56V424c0,6.4-2.4,12.8-7.2,16.8S190.4,448,184,448z" data-original="#2B2B2B"></path>
	<path style="fill:#2B2B2B;" d="M56,496c-6.4,0-12.8-2.4-16.8-7.2S32,478.4,32,472V357.6l16-55.2V296h16v10.4l-16,55.2V472   c0,2.4,0.8,4,2.4,5.6c3.2,3.2,8,3.2,11.2,0c1.6-1.6,2.4-3.2,2.4-5.6v-24h16v24c0,6.4-2.4,12.8-7.2,16.8S62.4,496,56,496z" data-original="#2B2B2B"></path>
	<path style="fill:#2B2B2B;" d="M448,64h-16V32c0-2.4-0.8-4-2.4-5.6c-3.2-3.2-8-3.2-11.2,0c-1.6,1.6-2.4,3.2-2.4,5.6v32h-16V32   c0-6.4,2.4-12.8,7.2-16.8c8.8-8.8,24.8-8.8,33.6,0C445.6,20,448,25.6,448,32L448,64L448,64z" data-original="#2B2B2B"></path>
	<path style="fill:#2B2B2B;" d="M416,64h-16V24c0-2.4-0.8-4-2.4-5.6c-3.2-3.2-8-3.2-11.2,0c-1.6,1.6-2.4,3.2-2.4,5.6v40h-16V24   c0-6.4,2.4-12.8,7.2-16.8c8.8-8.8,24.8-8.8,33.6,0C413.6,12,416,17.6,416,24L416,64L416,64z" data-original="#2B2B2B"></path>
	<path style="fill:#2B2B2B;" d="M352,88h-16V32c0-6.4,2.4-12.8,7.2-16.8c8.8-8.8,24.8-8.8,33.6,0C381.6,20,384,25.6,384,32v32h-16   V32c0-2.4-0.8-4-2.4-5.6c-3.2-3.2-8-3.2-11.2,0c-1.6,1.6-2.4,3.2-2.4,5.6L352,88L352,88z" data-original="#2B2B2B"></path>
	<path style="fill:#2B2B2B;" d="M352,216h-16v-21.6l-32-56V88c0-6.4,2.4-12.8,7.2-16.8c8.8-8.8,24.8-8.8,33.6,0   C349.6,76,352,81.6,352,88v32h-16V88c0-2.4-0.8-4-2.4-5.6c-3.2-3.2-8-3.2-11.2,0c-1.6,1.6-2.4,3.2-2.4,5.6v45.6l32,56L352,216   L352,216z" data-original="#2B2B2B"></path>
	<path style="fill:#2B2B2B;" d="M464,216h-16v-10.4l16-55.2V40c0-2.4-0.8-4-2.4-5.6c-3.2-3.2-8-3.2-11.2,0c-1.6,1.6-2.4,3.2-2.4,5.6   v24h-16V40c0-6.4,2.4-12.8,7.2-16.8c8.8-8.8,24.8-8.8,33.6,0C477.6,28,480,33.6,480,40v114.4l-16,55.2L464,216L464,216z" data-original="#2B2B2B"></path>
	<path style="fill:#2B2B2B;" d="M480,448h-32v-16h32c2.4,0,4-0.8,5.6-2.4c1.6-1.6,2.4-3.2,2.4-5.6s-0.8-4-2.4-5.6s-3.2-2.4-5.6-2.4   h-32v-16h32c6.4,0,12.8,2.4,16.8,7.2s7.2,10.4,7.2,16.8s-2.4,12.8-7.2,16.8S486.4,448,480,448z" data-original="#2B2B2B"></path>
	<path style="fill:#2B2B2B;" d="M488,416h-40v-16h40c2.4,0,4-0.8,5.6-2.4c1.6-1.6,2.4-3.2,2.4-5.6s-0.8-4-2.4-5.6s-3.2-2.4-5.6-2.4   h-40v-16h40c6.4,0,12.8,2.4,16.8,7.2s7.2,10.4,7.2,16.8s-2.4,12.8-7.2,16.8S494.4,416,488,416z" data-original="#2B2B2B"></path>
	<path style="fill:#2B2B2B;" d="M480,384h-32v-16h32c2.4,0,4-0.8,5.6-2.4c1.6-1.6,2.4-3.2,2.4-5.6s-0.8-4-2.4-5.6s-3.2-2.4-5.6-2.4   h-56v-16h56c6.4,0,12.8,2.4,16.8,7.2s7.2,10.4,7.2,16.8s-2.4,12.8-7.2,16.8S486.4,384,480,384z" data-original="#2B2B2B"></path>
	<path style="fill:#2B2B2B;" d="M424,352h-32v-16h32c2.4,0,4-0.8,5.6-2.4c1.6-1.6,2.4-3.2,2.4-5.6s-0.8-4-2.4-5.6s-3.2-2.4-5.6-2.4   h-45.6l-56,32H296v-16h21.6l56-32H424c6.4,0,12.8,2.4,16.8,7.2s7.2,10.4,7.2,16.8s-2.4,12.8-7.2,16.8S430.4,352,424,352z" data-original="#2B2B2B"></path>
	<path style="fill:#2B2B2B;" d="M472,480H357.6l-55.2-16h-7.2v-16h10.4l55.2,16H472c2.4,0,4-0.8,5.6-2.4c1.6-1.6,2.4-3.2,2.4-5.6   s-0.8-4-2.4-5.6s-3.2-2.4-5.6-2.4h-24v-16h24c6.4,0,12.8,2.4,16.8,7.2s7.2,10.4,7.2,16.8s-2.4,12.8-7.2,16.8S478.4,480,472,480z" data-original="#2B2B2B"></path>
</g></g> </svg>