<svg xmlns="http://www.w3.org/2000/svg" xmlns:xlink="http://www.w3.org/1999/xlink" id="Layer_1" x="0px" y="0px" viewBox="0 0 512 512" style="enable-background:new 0 0 512 512;" xml:space="preserve" width="512" height="512" class=""><g><g>
	<polygon style="fill:#FFB229" points="512,87.7 448,63.7 328,63.7 328,111.7 448,111.7  " data-original="#54E3E3" class="" data-old_color="#54E3E3"></polygon>
	<rect x="16" y="63.7" style="fill:#FFB229" width="184" height="48" data-original="#54E3E3" class="" data-old_color="#54E3E3"></rect>
</g><polygon style="fill:#FB5252" points="448,111.7 512,87.7 448,63.7 " data-original="#1CCACA" class="active-path" data-old_color="#1CCACA"></polygon><g>
	<rect x="64" y="63.7" style="fill:#2B2B2B;" width="16" height="48" data-original="#2B2B2B"></rect>
	<path style="fill:#2B2B2B;" d="M208,135.7h-16v-96c0-6.4,2.4-12.8,7.2-16.8c8.8-8.8,24.8-8.8,33.6,0c4.8,4.8,7.2,10.4,7.2,16.8v24   h-16v-24c0-2.4-0.8-4-2.4-5.6c-3.2-3.2-8-3.2-11.2,0c-1.6,1.6-2.4,3.2-2.4,5.6L208,135.7L208,135.7z" data-original="#2B2B2B"></path>
	<path style="fill:#2B2B2B;" d="M272,63.7h-16v-40c0-2.4-0.8-4-2.4-5.6c-3.2-3.2-8-3.2-11.2,0c-1.6,1.6-2.4,3.2-2.4,5.6v40h-16v-40   c0-6.4,2.4-12.8,7.2-16.8c8.8-8.8,24.8-8.8,33.6,0c4.8,4.8,7.2,10.4,7.2,16.8L272,63.7L272,63.7z" data-original="#2B2B2B"></path>
	<path style="fill:#2B2B2B;" d="M304,63.7h-16v-24c0-2.4-0.8-4-2.4-5.6c-3.2-3.2-8-3.2-11.2,0c-1.6,1.6-2.4,3.2-2.4,5.6v24h-16v-24   c0-6.4,2.4-12.8,7.2-16.8c8.8-8.8,24.8-8.8,33.6,0c4.8,4.8,7.2,10.4,7.2,16.8L304,63.7L304,63.7z" data-original="#2B2B2B"></path>
	<path style="fill:#2B2B2B;" d="M312,231.7h-16v-17.6l24-64V55.7c0-2.4-0.8-4-2.4-5.6c-3.2-3.2-8-3.2-11.2,0   c-1.6,1.6-2.4,3.2-2.4,5.6v8h-16v-8c0-6.4,2.4-12.8,7.2-16.8c8.8-8.8,24.8-8.8,33.6,0c4.8,4.8,7.2,10.4,7.2,16.8v97.6l-24,64   L312,231.7L312,231.7z" data-original="#2B2B2B"></path>
	<path style="fill:#2B2B2B;" d="M216,231.7h-16v-12.8c-8.8-9.6-40-44.8-40-75.2v-32h16v32c0,23.2,27.2,56,37.6,66.4l2.4,2.4V231.7z" data-original="#2B2B2B"></path>
</g><rect x="192" y="231.7" style="fill:#FF661A;" width="128" height="280" data-original="#FF661A"></rect><g>
	<rect x="216" y="247.7" style="fill:#2B2B2B;" width="16" height="16" data-original="#2B2B2B"></rect>
	<path style="fill:#2B2B2B;" d="M48,343.7H32v-104c0-6.4,2.4-12.8,7.2-16.8c8.8-8.8,24.8-8.8,33.6,0c4.8,4.8,7.2,10.4,7.2,16.8v64   H64v-64c0-2.4-0.8-4-2.4-5.6c-3.2-3.2-8-3.2-11.2,0c-1.6,1.6-2.4,3.2-2.4,5.6L48,343.7L48,343.7z" data-original="#2B2B2B"></path>
	<path style="fill:#2B2B2B;" d="M112,303.7H96v-80c0-2.4-0.8-4-2.4-5.6c-3.2-3.2-8-3.2-11.2,0c-1.6,1.6-2.4,3.2-2.4,5.6v80H64v-80   c0-6.4,2.4-12.8,7.2-16.8c8.8-8.8,24.8-8.8,33.6,0c4.8,4.8,7.2,10.4,7.2,16.8L112,303.7L112,303.7z" data-original="#2B2B2B"></path>
	<path style="fill:#2B2B2B;" d="M144,303.7h-16v-64c0-2.4-0.8-4-2.4-5.6c-3.2-3.2-8-3.2-11.2,0c-1.6,1.6-2.4,3.2-2.4,5.6v64H96v-64   c0-6.4,2.4-12.8,7.2-16.8c8.8-8.8,24.8-8.8,33.6,0c4.8,4.8,7.2,10.4,7.2,16.8L144,303.7L144,303.7z" data-original="#2B2B2B"></path>
	<path style="fill:#2B2B2B;" d="M152,439.7h-16v-17.6l24-64V255.7c0-2.4-0.8-4-2.4-5.6c-3.2-3.2-8-3.2-11.2,0   c-1.6,1.6-2.4,3.2-2.4,5.6v48h-16v-48c0-6.4,2.4-12.8,7.2-16.8c8.8-8.8,24.8-8.8,33.6,0c4.8,4.8,7.2,10.4,7.2,16.8v105.6l-24,64   L152,439.7L152,439.7z" data-original="#2B2B2B"></path>
	<path style="fill:#2B2B2B;" d="M56,439.7H40v-12.8c-8.8-9.6-40-44.8-40-75.2v-40h16v40c0,23.2,27.2,56,37.6,66.4l2.4,2.4V439.7z" data-original="#2B2B2B"></path>
	<path style="fill:#2B2B2B;" d="M48,311.7H32c0-2.4-0.8-4-2.4-5.6c-3.2-3.2-8-3.2-11.2,0c-1.6,1.6-2.4,3.2-2.4,5.6H0   c0-6.4,2.4-12.8,7.2-16.8c8.8-8.8,24.8-8.8,33.6,0C45.6,298.9,48,305.3,48,311.7z" data-original="#2B2B2B"></path>
</g><rect x="32" y="439.7" style="fill:#FFB229" width="128" height="72" data-original="#54E3E3" class="" data-old_color="#54E3E3"></rect><g>
	<rect x="56" y="455.7" style="fill:#2B2B2B;" width="16" height="16" data-original="#2B2B2B"></rect>
	<path style="fill:#2B2B2B;" d="M384,279.7h-16v-104c0-6.4,2.4-12.8,7.2-16.8c8.8-8.8,24.8-8.8,33.6,0c4.8,4.8,7.2,10.4,7.2,16.8v64   h-16v-64c0-2.4-0.8-4-2.4-5.6c-3.2-3.2-8-3.2-11.2,0c-1.6,1.6-2.4,3.2-2.4,5.6L384,279.7L384,279.7z" data-original="#2B2B2B"></path>
	<path style="fill:#2B2B2B;" d="M448,239.7h-16v-80c0-2.4-0.8-4-2.4-5.6c-3.2-3.2-8-3.2-11.2,0c-1.6,1.6-2.4,3.2-2.4,5.6v80h-16v-80   c0-6.4,2.4-12.8,7.2-16.8c8.8-8.8,24.8-8.8,33.6,0c4.8,4.8,7.2,10.4,7.2,16.8L448,239.7L448,239.7z" data-original="#2B2B2B"></path>
	<path style="fill:#2B2B2B;" d="M480,239.7h-16v-64c0-2.4-0.8-4-2.4-5.6c-3.2-3.2-8-3.2-11.2,0c-1.6,1.6-2.4,3.2-2.4,5.6v64h-16v-64   c0-6.4,2.4-12.8,7.2-16.8c8.8-8.8,24.8-8.8,33.6,0c4.8,4.8,7.2,10.4,7.2,16.8L480,239.7L480,239.7z" data-original="#2B2B2B"></path>
	<path style="fill:#2B2B2B;" d="M488,375.7h-16v-17.6l24-64V191.7c0-2.4-0.8-4-2.4-5.6c-3.2-3.2-8-3.2-11.2,0   c-1.6,1.6-2.4,3.2-2.4,5.6v48h-16v-48c0-6.4,2.4-12.8,7.2-16.8c8.8-8.8,24.8-8.8,33.6,0c4.8,4.8,7.2,10.4,7.2,16.8v105.6l-24,64   L488,375.7L488,375.7z" data-original="#2B2B2B"></path>
	<path style="fill:#2B2B2B;" d="M392,375.7h-16v-12.8c-8.8-9.6-40-44.8-40-75.2v-40h16v40c0,23.2,27.2,56,37.6,66.4l2.4,2.4V375.7z" data-original="#2B2B2B"></path>
	<path style="fill:#2B2B2B;" d="M384,247.7h-16c0-2.4-0.8-4-2.4-5.6c-3.2-3.2-8-3.2-11.2,0c-1.6,1.6-2.4,3.2-2.4,5.6h-16   c0-6.4,2.4-12.8,7.2-16.8c8.8-8.8,24.8-8.8,33.6,0C381.6,234.9,384,241.3,384,247.7z" data-original="#2B2B2B"></path>
</g><rect x="368" y="375.7" style="fill:#E3E3E3" width="128" height="136" data-original="#E3E3E3" class=""></rect><rect x="392" y="391.7" style="fill:#2B2B2B;" width="16" height="16" data-original="#2B2B2B"></rect></g> </svg>