<svg xmlns="http://www.w3.org/2000/svg" xmlns:xlink="http://www.w3.org/1999/xlink" id="Capa_1" x="0px" y="0px" viewBox="0 0 511.998 511.998" style="enable-background:new 0 0 511.998 511.998;" xml:space="preserve" width="512" height="512" class=""><g><rect x="181.332" y="95.998" style="fill:#F96232;" width="213.333" height="53.333" data-original="#F96232" class=""></rect><g>
	<polygon style="fill:#403E3E;" points="341.33,330.663 319.999,330.663 319.999,255.998 394.664,255.998 394.664,277.33    341.33,277.33  " data-original="#403E3E"></polygon>
	<path style="fill:#403E3E;" d="M335.081,341.33H170.666V85.333h234.665v185.749L335.081,341.33z M192,319.998h134.248l57.75-57.75   V106.666H192V319.998z" data-original="#403E3E"></path>
	<rect x="255.999" y="170.665" style="fill:#403E3E;" width="106.667" height="21.333" data-original="#403E3E"></rect>
	<rect x="255.999" y="213.331" style="fill:#403E3E;" width="106.667" height="21.333" data-original="#403E3E"></rect>
	<rect x="255.999" y="255.998" style="fill:#403E3E;" width="42.667" height="21.332" data-original="#403E3E"></rect>
	<rect x="213.332" y="170.665" style="fill:#403E3E;" width="21.333" height="21.333" data-original="#403E3E"></rect>
	<rect x="213.332" y="213.331" style="fill:#403E3E;" width="21.333" height="21.333" data-original="#403E3E"></rect>
	<rect x="213.332" y="255.998" style="fill:#403E3E;" width="21.333" height="21.332" data-original="#403E3E"></rect>
</g><rect x="287.999" y="10.667" style="fill:#FFB229" width="213.333" height="53.333" data-original="#43D3E8" class="active-path" data-old_color="#43D3E8"></rect><g>
	<polygon style="fill:#403E3E;" points="447.998,245.331 426.664,245.331 426.664,170.665 501.33,170.665 501.33,191.999    447.998,191.999  " data-original="#403E3E"></polygon>
	<polygon style="fill:#403E3E;" points="441.745,255.998 426.664,255.998 426.664,234.665 432.913,234.665 490.663,176.916    490.663,21.333 298.666,21.333 298.666,63.999 277.33,63.999 277.33,0 511.996,0 511.996,185.748  " data-original="#403E3E"></polygon>
	<rect x="426.666" y="85.331" style="fill:#403E3E;" width="42.664" height="21.333" data-original="#403E3E"></rect>
	<rect x="426.666" y="127.998" style="fill:#403E3E;" width="42.664" height="21.333" data-original="#403E3E"></rect>
	<path style="fill:#403E3E;" d="M160,511.995h-21.333v-95.999h-32c-11.395,0-22.109-4.437-30.167-12.5   c-8.062-8.062-12.499-18.771-12.499-30.167v-53.332H0.002v-24.053l64.02-117.373C65.501,79.853,146.266,0,245.332,0h10.667v21.333   h-10.667c-88.224,0-159.999,71.775-159.999,159.999v2.719L22.818,298.665h62.516v74.665c0,5.698,2.218,11.053,6.249,15.083   c4.031,4.03,9.39,6.25,15.083,6.25H160C160,394.663,160,511.995,160,511.995z" data-original="#403E3E"></path>
	<rect x="341.332" y="394.665" style="fill:#403E3E;" width="21.333" height="117.333" data-original="#403E3E"></rect>
</g></g> </svg>