<svg xmlns="http://www.w3.org/2000/svg" xmlns:xlink="http://www.w3.org/1999/xlink" id="Layer_1" x="0px" y="0px" viewBox="0 0 512 512" style="enable-background:new 0 0 512 512;" xml:space="preserve" width="512" height="512" class=""><g><path style="fill:#FFB229" d="M119.537,242.959c-29.732,0-53.916-24.174-53.916-53.888c0-29.734,24.182-53.916,53.916-53.916  c1.879,0,3.973,0.138,6.4,0.425l23.736,2.772l5.583-23.227c11.233-46.728,52.654-79.36,100.736-79.36  c48.102,0,89.505,32.625,100.695,79.337l5.568,23.212l23.703-2.724c2.491-0.289,4.621-0.433,6.513-0.433  c29.719,0,53.908,24.182,53.908,53.916c0,29.714-24.187,53.888-53.908,53.888H119.537V242.959z" data-original="#43D3E8" class="active-path" data-old_color="#43D3E8"></path><g>
	<path style="fill:#242D3C;" d="M378.867,370.335h-69.839l0.003-109.322h83.446c39.706,0,72.013-32.274,72.013-71.941   c0-39.716-32.307-72.023-72.013-72.023c-2.591,0-5.389,0.179-8.571,0.548l-7.78,0.904l-1.825-7.619   c-13.151-54.889-61.801-93.225-118.303-93.225c-56.481,0-105.147,38.339-118.344,93.233l-1.828,7.626l-7.785-0.924   c-3.116-0.366-5.896-0.543-8.502-0.543c-39.718,0-72.023,32.307-72.023,72.023c0,39.667,32.305,71.941,72.023,71.941h83.443   v109.322h-69.85v-17.654h52.193v-74.012h-65.789c-49.449,0-89.679-40.189-89.679-89.595c0-49.452,40.23-89.677,89.679-89.677   c0.957,0,1.928,0.015,2.918,0.056C139.988,40.525,193.861,0,255.997,0c62.164,0,116.019,40.527,133.517,99.456   c1.009-0.041,1.989-0.059,2.962-0.059c49.441,0,89.667,40.225,89.667,89.677c0,49.405-40.228,89.595-89.667,89.595h-65.784   l-0.008,74.012h52.186v17.654H378.867z" data-original="#242D3C"></path>
	<path style="fill:#242D3C;" d="M482.143,417.554H370.04V305.457h112.102V417.554z M387.694,399.903h76.792v-76.79h-76.792V399.903z   " data-original="#242D3C"></path>
	<path style="fill:#242D3C;" d="M312.054,512H199.951V399.903h112.102V512z M217.605,494.346h76.79v-76.79h-76.79V494.346z" data-original="#242D3C"></path>
	<path style="fill:#242D3C;" d="M141.96,417.554H29.857V305.457H141.96V417.554z M47.514,399.903h76.792v-76.79H47.514V399.903z" data-original="#242D3C"></path>
	<rect x="247.168" y="269.85" style="fill:#242D3C;" width="17.654" height="138.88" data-original="#242D3C"></rect>
</g><g>
	<rect x="211.866" y="207.642" style="fill:#FFFFFF;" width="17.654" height="17.654" data-original="#FFFFFF" class=""></rect>
	<rect x="247.168" y="207.642" style="fill:#FFFFFF;" width="17.654" height="17.654" data-original="#FFFFFF" class=""></rect>
	<rect x="282.47" y="207.642" style="fill:#FFFFFF;" width="17.654" height="17.654" data-original="#FFFFFF" class=""></rect>
</g></g> </svg>