<svg xmlns="http://www.w3.org/2000/svg" xmlns:xlink="http://www.w3.org/1999/xlink" id="Layer_1" x="0px" y="0px" viewBox="0 0 512 512" style="enable-background:new 0 0 512 512;" xml:space="preserve">
<path style="fill:#E3E3E3;" d="M512,248c0-39.2-28.8-72-66.4-78.4c1.6-5.6,2.4-11.2,2.4-17.6c0-35.2-28.8-64-64-64  c-8.8,0-16.8,1.6-24.8,4.8C342.4,52.8,302.4,24,256,24s-86.4,28.8-103.2,68.8c-7.2-3.2-16-4.8-24.8-4.8c-35.2,0-64,28.8-64,64  c0,5.6,0.8,12,2.4,17.6C28.8,176,0,208.8,0,248c0,44,36,80,80,80h144v-80h16v80h32v-16h16v16h144C476,328,512,292,512,248z M288,296  h-16v-16h16V296z M288,264h-16v-16h16V264z"></path>
<g>
	<rect x="472" y="440" style="fill:#2B2B2B;" width="40" height="16"></rect>
	<polygon style="fill:#2B2B2B;" points="336,344 320,344 320,456 360,456 360,440 336,440  "></polygon>
</g>
<path style="fill:#FF661A;" d="M416,408c-22.4,0-40,17.6-40,40s17.6,40,40,40s40-17.6,40-40S438.4,408,416,408z M416,464  c-8.8,0-16-7.2-16-16s7.2-16,16-16s16,7.2,16,16S424.8,464,416,464z"></path>
<g>
	<rect y="440" style="fill:#2B2B2B;" width="40" height="16"></rect>
	<polygon style="fill:#2B2B2B;" points="176,440 152,440 152,456 192,456 192,344 176,344  "></polygon>
</g>
<path style="fill:#FF661A;" d="M96,408c-22.4,0-40,17.6-40,40s17.6,40,40,40s40-17.6,40-40S118.4,408,96,408z M96,464  c-8.8,0-16-7.2-16-16s7.2-16,16-16s16,7.2,16,16S104.8,464,96,464z"></path>
<g>
	<rect x="272" y="248" style="fill:#2B2B2B;" width="16" height="16"></rect>
	<rect x="272" y="280" style="fill:#2B2B2B;" width="16" height="16"></rect>
	<rect x="272" y="312" style="fill:#2B2B2B;" width="16" height="16"></rect>
	<rect x="272" y="344" style="fill:#2B2B2B;" width="16" height="80"></rect>
	<rect x="224" y="408" style="fill:#2B2B2B;" width="16" height="16"></rect>
	<rect x="224" y="376" style="fill:#2B2B2B;" width="16" height="16"></rect>
	<rect x="224" y="344" style="fill:#2B2B2B;" width="16" height="16"></rect>
	<rect x="224" y="248" style="fill:#2B2B2B;" width="16" height="80"></rect>
</g>
<g>
</g>
<g>
</g>
<g>
</g>
<g>
</g>
<g>
</g>
<g>
</g>
<g>
</g>
<g>
</g>
<g>
</g>
<g>
</g>
<g>
</g>
<g>
</g>
<g>
</g>
<g>
</g>
<g>
</g>
</svg>