<svg xmlns="http://www.w3.org/2000/svg" height="512" viewBox="0 -3 472 471" width="512" class=""><g><path d="m328 432.5v16c-.027344 8.824219-7.175781 15.972656-16 16h-296c-8.824219-.027344-15.9726562-7.175781-16-16v-400c.0273438-8.824219 7.175781-15.972656 16-16h16v384c.027344 8.824219 7.175781 15.972656 16 16zm0 0" fill="#d1d3d4" data-original="#D1D3D4"></path><path d="m352 80.738281v335.761719c-.027344 8.824219-7.175781 15.972656-16 16h-288c-8.824219-.027344-15.972656-7.175781-16-16v-400c.027344-8.824219 7.175781-15.972656 16-16h232v64c.027344 8.824219 7.175781 15.972656 16 16h55.761719zm0 0" fill="#e6e7e8" data-original="#E6E7E8"></path><path d="m280 .5 71.761719 80h-55.761719c-8.824219-.027344-15.972656-7.175781-16-16zm0 0" fill="#d1d3d4" data-original="#D1D3D4"></path><path d="m72 40.5h16v16h-16zm0 0" fill="#acabb1" data-original="#ACABB1"></path><path d="m104 40.5h64v16h-64zm0 0" fill="#c6c5ca" data-original="#C6C5CA"></path><path d="m72 72.5h96v16h-96zm0 0" fill="#c6c5ca" data-original="#C6C5CA"></path><path d="m72 136.5h32v16h-32zm0 0" fill="#acabb1" data-original="#ACABB1"></path><g fill="#c6c5ca"><path d="m120 136.5h112v16h-112zm0 0" data-original="#C6C5CA"></path><path d="m72 184.5h160v16h-160zm0 0" data-original="#C6C5CA"></path><path d="m72 232.5h160v16h-160zm0 0" data-original="#C6C5CA"></path><path d="m72 280.5h160v16h-160zm0 0" data-original="#C6C5CA"></path></g><path d="m304.988281 260.800781 11.3125-11.3125 80.402344 80.398438-11.316406 11.316406zm0 0" fill="#ff9811" data-original="#FF9811"></path><path d="m304.980469 204.199219 80.402343-80.402344 11.3125 11.3125-80.398437 80.402344zm0 0" fill="#ff9811" data-original="#FF9811"></path><path d="m320 224.5h96v16h-96zm0 0" fill="#ff9811" data-original="#FF9811"></path><path d="m200 344.5h64v16h-64zm0 0" fill="#c6c5ca" data-original="#C6C5CA"></path><path d="m200 376.5h64v16h-64zm0 0" fill="#acabb1" data-original="#ACABB1"></path><path d="m328 232.5c0 22.089844-17.910156 40-40 40s-40-17.910156-40-40 17.910156-40 40-40 40 17.910156 40 40zm0 0" fill="#5aaae7" data-original="#5AAAE7" class="" style="fill:#EB7D16" data-old_color="#5aaae7"></path><path d="m440 112.5c0 17.671875-14.328125 32-32 32s-32-14.328125-32-32 14.328125-32 32-32 32 14.328125 32 32zm0 0" fill="#ff6243" data-original="#FF6243" class="active-path" style="fill:#ACABB1" data-old_color="#ff6243"></path><path d="m472 232.5c0 17.671875-14.328125 32-32 32s-32-14.328125-32-32 14.328125-32 32-32 32 14.328125 32 32zm0 0" fill="#ff9811" data-original="#FF9811"></path><path d="m440 352.5c0 17.671875-14.328125 32-32 32s-32-14.328125-32-32 14.328125-32 32-32 32 14.328125 32 32zm0 0" fill="#ff6243" data-original="#FF6243" class="active-path" style="fill:#ACABB1" data-old_color="#ff6243"></path></g></svg>