<svg xmlns="http://www.w3.org/2000/svg" height="512" viewBox="0 0 64 64" width="512" class=""><g><g id="Learning_Intelligence" data-name="Learning Intelligence"><path d="m58 13v30h-22a2.006 2.006 0 0 0 -2 2 2.006 2.006 0 0 1 -2 2h29v-34z" fill="#5aaae7" data-original="#5AAAE7" class="" style="fill:#FFCE00" data-old_color="#5aaae7"></path><path d="m34 43h24v2h-24z" fill="#3d9ae2" data-original="#3D9AE2" class="" style="fill:#FFB229" data-old_color="#3d9ae2"></path><path d="m30 45a2.006 2.006 0 0 0 -2-2h-22v-30h-3v34h29a2.006 2.006 0 0 1 -2-2z" fill="#5aaae7" data-original="#5AAAE7" class="" style="fill:#FFCE00" data-old_color="#5aaae7"></path><path d="m55 9h-21v36a2.006 2.006 0 0 1 2-2h22v-34z" fill="#e6e7e8" data-original="#E6E7E8" class=""></path><path d="m48.67 47a6.082 6.082 0 0 1 .59-3.47 5.541 5.541 0 0 1 .3-.53 5.871 5.871 0 0 1 2.06-1.99l-.5-.87-1.5-2.59a2 2 0 1 1 3.47-2l4.3 7.45.2.34.22 3.66.05.8 3 5.2-13.86 8-3-5.2-5.08-8.8z" fill="#ffb655" data-original="#FFB655" class="active-path" style="fill:#BCBEC0" data-old_color="#ffb655"></path><path d="m6 43h24v2h-24z" fill="#3d9ae2" data-original="#3D9AE2" class="" style="fill:#FFB229" data-old_color="#3d9ae2"></path><path d="m29.89 10.37a2 2 0 0 0 -1.89-1.37h-22v34h22a2.006 2.006 0 0 1 2 2v-34a1.9 1.9 0 0 0 -.11-.63z" fill="#e6e7e8" data-original="#E6E7E8" class=""></path><path d="m15.33 47h9.75l-5.08 8.8-3 5.2-13.86-8 3-5.2.05-.8.22-3.66.2-.34 4.3-7.45a2 2 0 0 1 3.47 2l-1.5 2.59-.5.87a5.871 5.871 0 0 1 2.06 1.99 5.541 5.541 0 0 1 .3.53 6.082 6.082 0 0 1 .59 3.47z" fill="#ffb655" data-original="#FFB655" class="active-path" style="fill:#BCBEC0" data-old_color="#ffb655"></path><path d="m14 9v6l-2-2-2 2v-6z" fill="#ff5023" data-original="#FF5023" class="" style="fill:#FFB229" data-old_color="#ff5023"></path><path d="m33 12h-3v33a2 2 0 0 0 4 0v-33z" fill="#1e81ce" data-original="#1E81CE" class="" style="fill:#EB7D16" data-old_color="#1e81ce"></path><path d="m51 23a2 2 0 1 1 -2 2 2.015 2.015 0 0 1 2-2z" fill="#ff5023" data-original="#FF5023" class="" style="fill:#FFB229" data-old_color="#ff5023"></path><circle cx="41" cy="28" fill="#ff5023" r="2" data-original="#FF5023" class="" style="fill:#FFB229" data-old_color="#ff5023"></circle><path d="m32.41 23.59a1.955 1.955 0 0 0 -1.41-.59 2 2 0 1 0 2 2 1.955 1.955 0 0 0 -.59-1.41z" fill="#ff5023" data-original="#FF5023" class="" style="fill:#FFB229" data-old_color="#ff5023"></path><path d="m58 13h2v32h-2z" fill="#3d9ae2" data-original="#3D9AE2" class="" style="fill:#FFB229" data-old_color="#3d9ae2"></path><path d="m53 9v1.67l-2-.67v-1z" fill="#d1d3d4" data-original="#D1D3D4"></path><path d="m56 13v3l-2 2h-20v-2h18l2-2v-1.67z" fill="#d1d3d4" data-original="#D1D3D4"></path><path d="m30 16h4v2h-4z" fill="#1a6fb0" data-original="#1A6FB0" class="" style="fill:#FFCE00" data-old_color="#1a6fb0"></path><path d="m51 10v-1-2l-2-2h-4l-3-2h-5l-3 3h-2l-1 4-1.11.37-1.89.63v3l2 2h4 1 6 6 5l2-2v-3z" fill="#ff5023" data-original="#FF5023" class="" style="fill:#FFB229" data-old_color="#ff5023"></path><path d="m40 16h2v10h-2z" fill="#ffa733" data-original="#FFA733"></path><path d="m48.883 24.3-2.59-2.59a1 1 0 0 1 -.293-.71v-5h2v4.586l2.3 2.3z" fill="#ffa733" data-original="#FFA733"></path><path d="m33.117 24.3-1.417-1.417 2.3-2.3v-4.583h2v5a1 1 0 0 1 -.293.707z" fill="#ffa733" data-original="#FFA733"></path><g fill="#bcbec0"><path d="m39 34h8v2h-8z" data-original="#BCBEC0" class="" style="fill:#BCBEC0"></path><path d="m39 38h8v2h-8z" data-original="#BCBEC0" class="" style="fill:#BCBEC0"></path><path d="m11 18h14v2h-14z" data-original="#BCBEC0" class="" style="fill:#BCBEC0"></path><path d="m11 22h14v2h-14z" data-original="#BCBEC0" class="" style="fill:#BCBEC0"></path><path d="m11 26h14v2h-14z" data-original="#BCBEC0" class="" style="fill:#BCBEC0"></path><path d="m11 30h14v2h-14z" data-original="#BCBEC0" class="" style="fill:#BCBEC0"></path></g><path d="m41 31a3 3 0 1 1 3-3 3 3 0 0 1 -3 3zm0-4a1 1 0 1 0 1 1 1 1 0 0 0 -1-1z" fill="#ff9811" data-original="#FF9811" class=""></path><path d="m51 28a3 3 0 1 1 3-3 3 3 0 0 1 -3 3zm0-4a1 1 0 1 0 1 1 1 1 0 0 0 -1-1z" fill="#ff9811" data-original="#FF9811" class=""></path><path d="m31 28a3 3 0 1 1 3-3 3 3 0 0 1 -3 3zm0-4a1 1 0 1 0 1 1 1 1 0 0 0 -1-1z" fill="#ff9811" data-original="#FF9811" class=""></path><path d="m54.316 10.052-2.316-.773v-2.279a1 1 0 0 0 -.293-.707l-2-2a1 1 0 0 0 -.707-.293h-3.7l-2.745-1.832a1.006 1.006 0 0 0 -.555-.168h-5a1 1 0 0 0 -.707.293l-2.707 2.707h-1.586a1 1 0 0 0 -.97.758l-.867 3.467-2.479.827a1 1 0 0 0 -.684.948v3a1 1 0 0 0 .293.707l2 2a1 1 0 0 0 .707.293h22a1 1 0 0 0 .707-.293l2-2a1 1 0 0 0 .293-.707v-3a1 1 0 0 0 -.684-.948zm-1.316 3.534-1.414 1.414h-21.172l-1.414-1.414v-1.865l1.73-.577 1.563 1.563a1 1 0 0 0 .707.293h1v-2h-.586l-1.307-1.307.674-2.693h5.219v-2h-1.586l1-1h4.286l1.73 1.155-.844.845h-.586v2h1a1 1 0 0 0 .707-.293l1.707-1.707h3.172l1.414 1.414v2.172l-1.414 1.414h-.586v2h1a1 1 0 0 0 .707-.293l1.563-1.563 1.73.577z" fill="#ed1c24" data-original="#ED1C24" class="" style="fill:#EB7D16" data-old_color="#ed1c24"></path><path d="m41.707 9.293-1.414 1.414 2 2a1 1 0 0 0 .707.293h3v-2h-2.586z" fill="#ed1c24" data-original="#ED1C24" class="" style="fill:#EB7D16" data-old_color="#ed1c24"></path><path d="m37 9h-2v2h1.586l.707.707 1.414-1.414-1-1a1 1 0 0 0 -.707-.293z" fill="#ed1c24" data-original="#ED1C24" class="" style="fill:#EB7D16" data-old_color="#ed1c24"></path></g></g></svg>