<svg xmlns="http://www.w3.org/2000/svg" height="512" viewBox="0 -8 464 464" width="512" class=""><g><path d="m256 208v-176c-46.707031-.097656-91.53125 18.417969-124.554688 51.445312-33.027343 33.023438-51.542968 77.847657-51.445312 124.554688 0 5.199219.238281 10.320312.71875 15.359375 1.832031 21.789063 7.75 43.039063 17.441406 62.640625 7.085938 14.25 16.042969 27.488281 26.640625 39.359375 16.472657 18.40625 36.644531 33.128906 59.199219 43.199219 12.753906 5.832031 26.195312 10.027344 40 12.480468 10.546875 2.003907 21.261719 2.992188 32 2.960938 97.203125 0 176-78.796875 176-176zm0 0" fill="#00ccb3" data-original="#00CCB3" class="" style="fill:#E3E9ED" data-old_color="#00ccb3"></path><path d="m464 176h-176v-176c97.203125 0 176 78.796875 176 176zm0 0" fill="#ff6243" data-original="#FF6243" class="active-path" data-old_color="#ff6243" style="fill:#C3C3C3"></path><path d="m188.640625 318.320312-41.761719-11.359374-22.078125 18.398437-12.800781 10.640625-34.878906-29.039062-41.761719 11.359374c-20.859375 5.730469-35.328125 24.683594-35.359375 46.320313v83.359375h224v-83.359375c-.03125-21.636719-14.5-40.589844-35.359375-46.320313zm0 0" fill="#3d9ae2" data-original="#3D9AE2" class="" style="fill:#FFB229" data-old_color="#3d9ae2"></path><path d="m146.878906 306.960938-22.078125 18.398437-12.800781 10.640625-34.878906-29.039062 10.878906-2.960938v-22.480469c3.1875 1.910157 6.601562 3.417969 10.160156 4.480469 4.496094 1.320312 9.15625 1.992188 13.839844 2 8.4375.039062 16.730469-2.199219 24-6.480469v22.480469zm0 0" fill="#ffdaaa" data-original="#FFDAAA"></path><path d="m154.71875 224c-10.992188-.039062-20.566406-7.507812-23.277344-18.160156l-3.441406-13.839844-4.800781 6.398438c-10.238281 13.679687-25.546875 22.675781-42.480469 24.960937-2.886719.414063-5.800781.628906-8.71875.640625h-8v16c-.039062 12.734375 5.035156 24.957031 14.078125 33.921875 2.949219 2.972656 6.285156 5.527344 9.921875 7.597656 3.1875 1.910157 6.601562 3.417969 10.160156 4.480469 4.496094 1.320312 9.15625 1.992188 13.839844 2 8.4375.039062 16.730469-2.199219 24-6.480469 14.855469-8.546875 24.007812-24.382812 24-41.519531v-16zm0 0" fill="#ffdaaa" data-original="#FFDAAA"></path><path d="m112 144c-14.863281-.035156-29.128906 5.851562-39.636719 16.363281-10.511719 10.507813-16.398437 24.773438-16.363281 39.636719v24h16c2.917969-.011719 5.832031-.226562 8.71875-.640625 16.933594-2.285156 32.242188-11.28125 42.480469-24.960937l4.800781-6.398438 3.441406 13.839844c2.710938 10.652344 12.285156 18.121094 23.277344 18.160156h13.28125v-24c0-30.929688-25.070312-56-56-56zm0 0" fill="#3e3d42" data-original="#3E3D42"></path><path d="m136 281.519531v8c-7.269531 4.28125-15.5625 6.519531-24 6.480469-4.683594-.007812-9.34375-.679688-13.839844-2-3.558594-1.0625-6.972656-2.570312-10.160156-4.480469v-8c3.1875 1.910157 6.601562 3.417969 10.160156 4.480469 4.496094 1.320312 9.15625 1.992188 13.839844 2 8.4375.039062 16.730469-2.199219 24-6.480469zm0 0" fill="#f2cd9d" data-original="#F2CD9D"></path><g fill="#1e81ce"><path d="m32 368h16v80h-16zm0 0" data-original="#1E81CE" class="" style="fill:#EB7D16" data-old_color="#1E81CE"></path><path d="m176 368h16v80h-16zm0 0" data-original="#1E81CE" class="" style="fill:#EB7D16" data-old_color="#1E81CE"></path></g></g></svg>