<svg xmlns="http://www.w3.org/2000/svg" height="512" viewBox="-36 0 463 464" width="512" class=""><g><path d="m355.140625 80.238281v367.761719c-.027344 8.824219-7.175781 15.972656-16 16h-288c-8.828125-.027344-15.972656-7.175781-16-16v-432c.027344-8.824219 7.171875-15.9726562 16-16h232v64c.027344 8.824219 7.171875 15.972656 16 16h55.757813zm0 0" fill="#e6e7e8" data-original="#E6E7E8" class=""></path><path d="m256.898438 316.320312c-.011719-4.238281-1.707032-8.296874-4.71875-11.28125l-38.640626-38.640624 18.882813-3.757813 79.199219 79.199219-11.761719 11.761718c-6.214844-3.84375-14.269531-2.84375-19.359375 2.398438-3.019531 2.976562-4.71875 7.039062-4.71875 11.28125 0 4.238281 1.699219 8.300781 4.71875 11.277344-4.585938-4.554688-11.460938-5.90625-17.429688-3.421875s-9.855468 8.316406-9.851562 14.785156c-.015625 4.226563 1.652344 8.285156 4.640625 11.277344-6.25-6.25-16.386719-6.25-22.640625 0-6.25 6.253906-6.25 16.390625 0 22.640625-5.6875-5.746094-14.769531-6.347656-21.164062-1.398438-6.394532 4.949219-8.089844 13.890625-3.953126 20.839844l-6 6c-6.253906 6.25-16.390624 6.25-22.640624 0-6.253907-6.253906-6.253907-16.390625 0-22.640625-2.984376 3.007813-7.042969 4.707031-11.28125 4.71875-4.257813-.023437-8.335938-1.71875-11.359376-4.71875-2.996093-2.988281-4.679687-7.046875-4.679687-11.28125 0-4.230469 1.683594-8.289063 4.679687-11.28125-6.332031 5.71875-16.035156 5.460937-22.054687-.578125-6.023437-6.042969-6.246094-15.75-.503906-22.058594-3.03125 2.976563-7.113281 4.644532-11.363281 4.636719-4.226563.019531-8.285157-1.648437-11.277344-4.636719-3.003906-3.003906-4.695313-7.074218-4.695313-11.320312s1.691407-8.320313 4.695313-11.320313l16.957031-16.960937 5.683594-5.679688 33.199219-33.28125c9.652343 1.105469 19.285156-2.25 26.160156-9.117187l33.917968 33.917969c4.59375 4.574218 11.484376 5.933593 17.472657 3.449218 5.984375-2.484375 9.886719-8.328125 9.886719-14.808594zm0 0" fill="#ffc477" data-original="#FFC477" class=""></path><path d="m246.5 435.199219c3.019531 2.976562 4.71875 7.039062 4.71875 11.28125 0 4.238281-1.699219 8.304687-4.71875 11.28125-6.242188 6.203125-16.320312 6.203125-22.558594 0l-11.363281-11.28125c-.960937-.957031-1.792969-2.03125-2.476563-3.199219-1.421874-2.457031-2.167968-5.246094-2.160156-8.082031-.007812-6.464844 3.878906-12.296875 9.847656-14.78125 5.96875-2.488281 12.847657-1.136719 17.429688 3.421875zm0 0" fill="#ffdaaa" data-original="#FFDAAA" class=""></path><path d="m257.859375 401.199219 11.28125 11.359375c3.007813 2.984375 4.707031 7.042968 4.71875 11.28125-.023437 4.257812-1.71875 8.335937-4.71875 11.359375-3 3.003906-7.074219 4.695312-11.320313 4.695312-4.246093 0-8.320312-1.691406-11.320312-4.695312l-11.28125-11.359375c-6.25-6.25-6.25-16.386719 0-22.640625 6.253906-6.25 16.390625-6.25 22.640625 0zm0 0" fill="#ffdaaa" data-original="#FFDAAA" class=""></path><path d="m291.78125 389.921875c6.25 6.25 6.25 16.386719 0 22.636719-6.253906 6.253906-16.390625 6.253906-22.640625 0l-11.28125-11.359375c-2.988281-2.992188-4.65625-7.050781-4.640625-11.277344-.003906-6.46875 3.882812-12.300781 9.851562-14.785156s12.84375-1.132813 17.429688 3.421875zm0 0" fill="#ffdaaa" data-original="#FFDAAA" class=""></path><path d="m314.421875 367.28125c6.25 6.25 6.25 16.386719 0 22.640625-6.253906 6.25-16.390625 6.25-22.640625 0l-11.28125-11.363281c-3.019531-2.976563-4.71875-7.039063-4.71875-11.277344 0-4.242188 1.699219-8.304688 4.71875-11.28125 5.089844-5.242188 13.144531-6.242188 19.359375-2.398438 1.226563.597657 2.339844 1.410157 3.28125 2.398438zm0 0" fill="#ffdaaa" data-original="#FFDAAA" class=""></path><path d="m169.460938 302.878906-33.199219 33.28125-5.683594 5.679688-16.957031 16.960937-39.601563-39.601562 79.199219-79.199219h33.921875l65.039063 65.039062c6.253906 6.253907 6.253906 16.390626 0 22.640626-6.25 6.253906-16.386719 6.253906-22.640626 0l-33.917968-33.917969c-6.875 6.867187-16.507813 10.222656-26.160156 9.117187zm0 0" fill="#ffdaaa" data-original="#FFDAAA" class=""></path><path d="m232.425781 262.613281 22.636719-22.609375 79.136719 79.21875-22.632813 22.609375zm0 0" fill="#3d9ae2" data-original="#3D9AE2" class="active-path" style="fill:#EB7D16" data-old_color="#3d9ae2"></path><path d="m51.378906 296.554688 79.203125-79.199219 22.636719 22.636719-79.199219 79.203124zm0 0" fill="#3d9ae2" data-original="#3D9AE2" class="active-path" style="fill:#EB7D16" data-old_color="#3d9ae2"></path><path d="m355.140625 249.601562-66.160156-66.160156-45.28125 45.277344 11.359375 11.28125 79.121094 79.199219 11.359374 11.28125 9.601563-9.601563 35.679687-35.597656zm0 0" fill="#1e81ce" data-original="#1E81CE" class="" style="fill:#FFB229" data-old_color="#1e81ce"></path><path d="m90.980469 166.480469-90.480469 90.480469 34.640625 34.71875 10.558594 10.558593 84.878906-84.878906 5.683594-5.679687zm0 0" fill="#1e81ce" data-original="#1E81CE" class="" style="fill:#FFB229" data-old_color="#1e81ce"></path><path d="m283.140625 0 71.757813 80h-55.757813c-8.828125-.027344-15.972656-7.175781-16-16zm0 0" fill="#bcbec0" data-original="#BCBEC0" class=""></path><g fill="#c6c5ca"><path d="m75.140625 40h16v16h-16zm0 0" data-original="#C6C5CA" class=""></path><path d="m107.140625 40h64v16h-64zm0 0" data-original="#C6C5CA" class=""></path><path d="m75.140625 72h96v16h-96zm0 0" data-original="#C6C5CA" class=""></path><path d="m75.140625 120h32v16h-32zm0 0" data-original="#C6C5CA" class=""></path><path d="m123.140625 120h192v16h-192zm0 0" data-original="#C6C5CA" class=""></path><path d="m139.140625 168h120v16h-120zm0 0" data-original="#C6C5CA" class=""></path></g></g></svg>