<svg xmlns="http://www.w3.org/2000/svg" height="512" viewBox="0 0 64 64" width="512" class=""><g><g><path d="m55 13v30h-46v-30a2.006 2.006 0 0 1 2-2h42a2.006 2.006 0 0 1 2 2z" fill="#5aaae7" data-original="#5AAAE7" class="" style="fill:#FFB229" data-old_color="#5aaae7"></path><path d="m55 13v16h-14a1 1 0 0 1 -1-1v-3h-1a2.006 2.006 0 0 1 -2-2v-6a2.006 2.006 0 0 1 2-2 2.006 2.006 0 0 1 -2-2v-2h16a2.006 2.006 0 0 1 2 2z" fill="#3d9ae2" data-original="#3D9AE2" class="" style="fill:#FFCE00" data-old_color="#3d9ae2"></path><rect fill="#acabb1" height="10" rx="2" width="26" x="35" y="13" data-original="#ACABB1" class=""></rect><path d="m33 13v24a2.006 2.006 0 0 1 -2 2h-22v-26a2.006 2.006 0 0 1 2-2h20z" fill="#3d9ae2" data-original="#3D9AE2" class="" style="fill:#FFCE00" data-old_color="#3d9ae2"></path><path d="m31 11v24a2.006 2.006 0 0 1 -2 2h-24a2.006 2.006 0 0 1 -2-2v-30a2.006 2.006 0 0 1 2-2h18v6a2.006 2.006 0 0 0 2 2z" fill="#e6e7e8" data-original="#E6E7E8" class=""></path><path d="m55 43 6 12h-58l6-12z" fill="#c6c5ca" data-original="#C6C5CA" class="active-path" style="fill:#D1D3D4" data-old_color="#c6c5ca"></path><path d="m61 55v4a2.006 2.006 0 0 1 -2 2h-54a2.006 2.006 0 0 1 -2-2v-4z" fill="#acabb1" data-original="#ACABB1" class=""></path><circle cx="41" cy="18" fill="#ff9811" r="2" data-original="#FF9811"></circle><path d="m58 23v3a1 1 0 0 1 -1 1h-18a1 1 0 0 1 -1-1v-3z" fill="#acabb1" data-original="#ACABB1" class=""></path><rect fill="#c6c5ca" height="10" rx="2" width="26" x="35" y="3" data-original="#C6C5CA" class="active-path" style="fill:#D1D3D4" data-old_color="#c6c5ca"></rect><circle cx="41" cy="8" fill="#ff9811" r="2" data-original="#FF9811"></circle><path d="m31 11h-6a2.006 2.006 0 0 1 -2-2v-6z" fill="#bcbec0" data-original="#BCBEC0"></path><path d="m17 15a8.994 8.994 0 0 1 6.36 15.36l-2.82-2.82a5.006 5.006 0 0 0 -3.54-8.54z" fill="#00ccb3" data-original="#00CCB3" class="" style="fill:#D1D3D4" data-old_color="#00ccb3"></path><path d="m9 19.89a8.884 8.884 0 0 0 -1 4.11h4a5 5 0 0 1 5-5v-4a8.989 8.989 0 0 0 -8 4.89z" fill="#ff5023" data-original="#FF5023" class="" style="fill:#ACABB1" data-old_color="#ff5023"></path><path d="m20.54 27.54a5.006 5.006 0 0 1 -8.54-3.54h-4a8.884 8.884 0 0 0 1 4.11 8.986 8.986 0 0 0 14.36 2.25z" fill="#ffd422" data-original="#FFD422" class="" style="fill:#898890" data-old_color="#ffd422"></path><g fill="#898890"><path d="m38 23h20v2h-20z" data-original="#898890" class=""></path><path d="m10 50h2v2h-2z" data-original="#898890" class=""></path><path d="m14 50h2v2h-2z" data-original="#898890" class=""></path><path d="m48 50h2v2h-2z" data-original="#898890" class=""></path><path d="m52 50h2v2h-2z" data-original="#898890" class=""></path><path d="m15 46h2v2h-2z" data-original="#898890" class=""></path><path d="m11 46h2v2h-2z" data-original="#898890" class=""></path><path d="m19 46h2v2h-2z" data-original="#898890" class=""></path><path d="m23 46h2v2h-2z" data-original="#898890" class=""></path><path d="m27 46h2v2h-2z" data-original="#898890" class=""></path><path d="m31 46h2v2h-2z" data-original="#898890" class=""></path><path d="m35 46h2v2h-2z" data-original="#898890" class=""></path><path d="m39 46h2v2h-2z" data-original="#898890" class=""></path><path d="m43 46h2v2h-2z" data-original="#898890" class=""></path><path d="m47 46h2v2h-2z" data-original="#898890" class=""></path><path d="m51 46h2v2h-2z" data-original="#898890" class=""></path><path d="m18 50h4v2h-4z" data-original="#898890" class=""></path><path d="m42 50h4v2h-4z" data-original="#898890" class=""></path><path d="m24 50h16v2h-16z" data-original="#898890" class=""></path></g><path d="m56 6h2v4h-2z" fill="#e6e7e8" data-original="#E6E7E8" class=""></path><path d="m52 6h2v4h-2z" fill="#e6e7e8" data-original="#E6E7E8" class=""></path><path d="m48 6h2v4h-2z" fill="#e6e7e8" data-original="#E6E7E8" class=""></path><path d="m56 16h2v4h-2z" fill="#e6e7e8" data-original="#E6E7E8" class=""></path><path d="m52 16h2v4h-2z" fill="#e6e7e8" data-original="#E6E7E8" class=""></path><path d="m48 16h2v4h-2z" fill="#e6e7e8" data-original="#E6E7E8" class=""></path><path d="m10 6h4v2h-4z" fill="#c6c5ca" data-original="#C6C5CA" class="active-path" style="fill:#D1D3D4" data-old_color="#c6c5ca"></path><path d="m6 10h8v2h-8z" fill="#c6c5ca" data-original="#C6C5CA" class="active-path" style="fill:#D1D3D4" data-old_color="#c6c5ca"></path><path d="m6 6h2v2h-2z" fill="#c6c5ca" data-original="#C6C5CA" class="active-path" style="fill:#D1D3D4" data-old_color="#c6c5ca"></path><path d="m26 15h2v2h-2z" fill="#d1d3d4" data-original="#D1D3D4"></path><path d="m6 14h2v2h-2z" fill="#d1d3d4" data-original="#D1D3D4"></path><path d="m6 32h2v2h-2z" fill="#d1d3d4" data-original="#D1D3D4"></path><path d="m36 32h6v2h-6z" fill="#1e81ce" data-original="#1E81CE" class="" style="fill:#EB7D16" data-old_color="#1e81ce"></path><path d="m36 36h6v2h-6z" fill="#1e81ce" data-original="#1E81CE" class="" style="fill:#EB7D16" data-old_color="#1e81ce"></path><path d="m44 32h6v2h-6z" fill="#1e81ce" data-original="#1E81CE" class="" style="fill:#EB7D16" data-old_color="#1e81ce"></path><path d="m44 36h6v2h-6z" fill="#1e81ce" data-original="#1E81CE" class="" style="fill:#EB7D16" data-old_color="#1e81ce"></path></g></g></svg>