<svg xmlns="http://www.w3.org/2000/svg" height="512" viewBox="0 0 64 64" width="512" class=""><g><g><path d="m58 7v41a4 4 0 0 1 -4 4h-28a3.843 3.843 0 0 1 -1.59-.34 3.981 3.981 0 0 1 -2.41-3.66v-41a3.933 3.933 0 0 1 .5-1.93 3.978 3.978 0 0 1 3.5-2.07h28a4 4 0 0 1 4 4z" fill="#d1d3d4" data-original="#D1D3D4" class=""></path><path d="m54 15v37a4 4 0 0 1 -4 4h-28a4 4 0 0 1 -4-4v-41a4.01 4.01 0 0 1 4-4h24v6a2.006 2.006 0 0 0 2 2z" fill="#e6e7e8" data-original="#E6E7E8" class=""></path><path d="m36 48v4l-3.32.47a8.956 8.956 0 0 1 -.54 1.53 7.419 7.419 0 0 1 -.55 1.09l.68.91h-10.27a4 4 0 0 1 -4-4v-10.64a9.507 9.507 0 0 1 2-.89c.17-.05.35-.1.53-.15l.47-3.32h4l.47 3.32a9.8 9.8 0 0 1 2.62 1.09l2.69-2.02 2.83 2.83-2.02 2.69a9.8 9.8 0 0 1 1.09 2.62z" fill="#d8d7da" data-original="#D8D7DA" class=""></path><path d="m30.14 52a7.419 7.419 0 0 1 -.55 1.09l2.02 2.69-.22.22-2.61 2.61-2.69-2.02a9.8 9.8 0 0 1 -2.62 1.09l-.47 3.32h-4l-.47-3.32a9.8 9.8 0 0 1 -2.62-1.09l-2.69 2.02-2.83-2.83 2.02-2.69a9.8 9.8 0 0 1 -1.09-2.62l-3.32-.47v-4l3.32-.47a9.8 9.8 0 0 1 1.09-2.62l-2.02-2.69 2.83-2.83 2.69 2.02a9.877 9.877 0 0 1 2.09-.94c.17-.05.35-.1.53-.15l.47-3.32h4l.47 3.32a9.8 9.8 0 0 1 2.62 1.09l2.69-2.02 2.83 2.83-2.02 2.69a9.8 9.8 0 0 1 1.09 2.62l3.32.47v4l-3.32.47a8.956 8.956 0 0 1 -.54 1.53z" fill="#ff9811" data-original="#FF9811" class=""></path><path d="m26 9v22a2.006 2.006 0 0 1 -2 2h-6v-22a4.01 4.01 0 0 1 4-4h2a1.679 1.679 0 0 1 .5.07 2 2 0 0 1 1.5 1.93z" fill="#d8d7da" data-original="#D8D7DA" class=""></path><path d="m24 7v22a2.006 2.006 0 0 1 -2 2h-14a2.006 2.006 0 0 1 -2-2v-22a2.006 2.006 0 0 1 2-2h14a1.679 1.679 0 0 1 .5.07 2 2 0 0 1 1.5 1.93z" fill="#3d9ae2" data-original="#3D9AE2" class="" style="fill:#FFB229" data-old_color="#3d9ae2"></path><path d="m22 43.1a4.712 4.712 0 0 0 -1-.1 4.941 4.941 0 0 0 -3 1 5 5 0 0 0 0 8 5 5 0 0 0 6.41-.34 5 5 0 0 0 -2.41-8.56z" fill="#ffd422" data-original="#FFD422" class="active-path" style="fill:#FFFFFF" data-old_color="#ffd422"></path><path d="m44 21h4v14h-4z" fill="#00ccb3" data-original="#00CCB3" class="" style="fill:#C6C5CA" data-old_color="#00ccb3"></path><path d="m36 25h4v10h-4z" fill="#ffd422" data-original="#FFD422" class="active-path" style="fill:#FFFFFF" data-old_color="#ffd422"></path><path d="m28 29h4v6h-4z" fill="#ff5023" data-original="#FF5023" class="" style="fill:#C6C5CA" data-old_color="#ff5023"></path><path d="m54 15h-6a2.006 2.006 0 0 1 -2-2v-6z" fill="#bcbec0" data-original="#BCBEC0"></path><path d="m10 22h5v5h-5z" fill="#ffa733" data-original="#FFA733" class=""></path><path d="m15 22h5v5h-5z" fill="#ee8700" data-original="#EE8700" class=""></path><path d="m10 17h5v5h-5z" fill="#ee8700" data-original="#EE8700" class=""></path><path d="m15 17h5v5h-5z" fill="#ffa733" data-original="#FFA733" class=""></path><path d="m10 9h10v4h-10z" fill="#ff9811" data-original="#FF9811" class=""></path><path d="m29 16h12v2h-12z" fill="#c6c5ca" data-original="#C6C5CA"></path><path d="m29 12h2v2h-2z" fill="#c6c5ca" data-original="#C6C5CA"></path><path d="m33 12h8v2h-8z" fill="#c6c5ca" data-original="#C6C5CA"></path><path d="m27 34h22v2h-22z" fill="#898890" data-original="#898890" class=""></path><path d="m37 40h12v2h-12z" fill="#c6c5ca" data-original="#C6C5CA"></path><path d="m37 48h12v2h-12z" fill="#c6c5ca" data-original="#C6C5CA"></path><path d="m37 44h12v2h-12z" fill="#c6c5ca" data-original="#C6C5CA"></path><g fill="#ee8700"><path d="m20 38h2v2h-2z" data-original="#EE8700" class=""></path><path d="m13.636 40.636h2v2h-2z" transform="matrix(.707 -.707 .707 .707 -25.154 22.544)" data-original="#EE8700" class=""></path><path d="m11 47h2v2h-2z" data-original="#EE8700" class=""></path><path d="m13.636 53.364h2v2h-2z" transform="matrix(.707 -.707 .707 .707 -34.154 26.272)" data-original="#EE8700" class=""></path><path d="m20 56h2v2h-2z" data-original="#EE8700" class=""></path><path d="m26.364 53.364h2v2h-2z" transform="matrix(.707 -.707 .707 .707 -30.426 35.272)" data-original="#EE8700" class=""></path><path d="m29 47h2v2h-2z" data-original="#EE8700" class=""></path><path d="m26.364 40.636h2v2h-2z" transform="matrix(.707 -.707 .707 .707 -21.426 31.544)" data-original="#EE8700" class=""></path></g></g></g></svg>