<svg xmlns="http://www.w3.org/2000/svg" viewBox="0 0 64 64" width="512" height="512"><g><g id="Idea"><path d="M49,26a16.962,16.962,0,0,1-7,13.73V45H22V39.73A16.994,16.994,0,1,1,49,26Z" style="fill:#FFB229" data-original="#FFD422" class="" data-old_color="#FFD422"></path><path d="M39.74,28a8.285,8.285,0,0,1-.85,2.06l1.6,1.6-2.83,2.83-1.6-1.6a8.285,8.285,0,0,1-2.06.85V36H30V33.74a8.285,8.285,0,0,1-2.06-.85l-1.6,1.6-2.83-2.83,1.6-1.6A8.285,8.285,0,0,1,24.26,28H22V24h2.26a8.285,8.285,0,0,1,.85-2.06l-1.6-1.6,2.83-2.83,1.6,1.6A8.285,8.285,0,0,1,30,18.26V16h4v2.26a8.285,8.285,0,0,1,2.06.85l1.6-1.6,2.83,2.83-1.6,1.6A8.285,8.285,0,0,1,39.74,24H42v4Z" style="fill:#FFCE00" data-original="#FFA733" class="active-path" data-old_color="#FFA733"></path><rect x="28" y="55" width="8" height="6" style="fill:#787680" data-original="#787680"></rect><polygon points="42 49 42 55 36 55 28 55 22 55 22 49 42 49" style="fill:#898890" data-original="#898890"></polygon><polygon points="45 45 45 49 42 49 22 49 19 49 19 45 22 45 42 45 45 45" style="fill:#acabb1" data-original="#ACABB1"></polygon><circle cx="32" cy="26" r="4" style="fill:#EB7D16" data-original="#FF6243" class="" data-old_color="#FF6243"></circle><rect x="22" y="49" width="20" height="2" style="fill:#787680" data-original="#787680"></rect><rect x="28" y="55" width="8" height="2" style="fill:#57565c" data-original="#57565C"></rect><rect x="31" y="2" width="2" height="4" style="fill:#EB7D16" data-original="#FF6243" class="" data-old_color="#FF6243"></rect><rect x="15.444" y="8.443" width="2" height="4" transform="translate(-2.569 14.686) rotate(-45)" style="fill:#EB7D16" data-original="#FF6243" class="" data-old_color="#FF6243"></rect><rect x="8" y="25" width="4" height="2" style="fill:#EB7D16" data-original="#FF6243" class="" data-old_color="#FF6243"></rect><rect x="14.443" y="40.557" width="4" height="2" transform="translate(-24.569 23.799) rotate(-45)" style="fill:#EB7D16" data-original="#FF6243" class="" data-old_color="#FF6243"></rect><rect x="46.557" y="39.556" width="2" height="4" transform="translate(-15.456 45.799) rotate(-45)" style="fill:#EB7D16" data-original="#FF6243" class="" data-old_color="#FF6243"></rect><rect x="52" y="25" width="4" height="2" style="fill:#EB7D16" data-original="#FF6243" class="" data-old_color="#FF6243"></rect><rect x="45.556" y="9.444" width="4" height="2" transform="translate(6.544 36.686) rotate(-45)" style="fill:#EB7D16" data-original="#FF6243" class="" data-old_color="#FF6243"></rect><rect x="25" y="40" width="2" height="2" style="fill:#FFEB99" data-original="#FFEB99" class="" data-old_color="#ffeb99"></rect><rect x="29" y="40" width="2" height="2" style="fill:#FFEB99" data-original="#FFEB99" class="" data-old_color="#ffeb99"></rect><rect x="33" y="40" width="2" height="2" style="fill:#FFEB99" data-original="#FFEB99" class="" data-old_color="#ffeb99"></rect><rect x="37" y="40" width="2" height="2" style="fill:#FFEB99" data-original="#FFEB99" class="" data-old_color="#ffeb99"></rect></g></g></svg>