<svg xmlns="http://www.w3.org/2000/svg" height="512" viewBox="0 0 464 464.07048" width="512" class=""><g><path d="m104.035156 232.070312v24h-24v64h-32v-64h-24v-24l40-24zm0 0" fill="#ffa733" data-original="#FFA733" class="active-path" style="fill:#ACABB1" data-old_color="#ffa733"></path><path d="m440.035156 232.070312v24h-24v64h-32v-64h-24v-24l40-24zm0 0" fill="#ffa733" data-original="#FFA733" class="active-path" style="fill:#ACABB1" data-old_color="#ffa733"></path><path d="m40.035156 152.070312h48c0 13.253907-10.746094 24-24 24s-24-10.746093-24-24zm0 0" fill="#898890" data-original="#898890"></path><path d="m376.035156 152.070312h48c0 13.253907-10.746094 24-24 24s-24-10.746093-24-24zm0 0" fill="#898890" data-original="#898890"></path><path d="m93.234375 120.949219c6.4375 2.246093 10.765625 8.304687 10.800781 15.121093-.066406 8.808594-7.191406 15.933594-16 16h-48c-8.824218-.027343-15.972656-7.175781-16-16-.023437-4.246093 1.679688-8.316406 4.71875-11.28125 1.691406-1.746093 3.777344-3.0625 6.082032-3.839843 1.671874-.582031 3.429687-.878907 5.199218-.878907h48c1.769532 0 3.527344.296876 5.199219.878907zm0 0" fill="#acabb1" data-original="#ACABB1"></path><path d="m429.234375 120.949219c6.4375 2.246093 10.765625 8.304687 10.800781 15.121093-.066406 8.808594-7.191406 15.933594-16 16h-48c-8.824218-.027343-15.972656-7.175781-16-16-.023437-4.246093 1.679688-8.316406 4.71875-11.28125 1.691406-1.746093 3.777344-3.0625 6.082032-3.839843 1.671874-.582031 3.429687-.878907 5.199218-.878907h48c1.769532 0 3.527344.296876 5.199219.878907zm0 0" fill="#acabb1" data-original="#ACABB1"></path><path d="m464.035156 64.070312c0 23.992188-13.441406 45.960938-34.800781 56.878907-1.671875-.582031-3.429687-.878907-5.199219-.878907h-48c-1.769531 0-3.527344.296876-5.199218.878907-28.003907-14.355469-41.414063-46.941407-31.628907-76.851563 9.789063-29.910156 39.867188-48.265625 70.941407-43.292968 31.074218 4.972656 53.921874 31.796874 53.886718 63.265624zm0 0" fill="#ffd422" data-original="#FFD422" class="" style="fill:#FFB229" data-old_color="#ffd422"></path><path d="m128.035156 64.070312c0 23.992188-13.441406 45.960938-34.800781 56.878907-1.671875-.582031-3.429687-.878907-5.199219-.878907h-48c-1.769531 0-3.527344.296876-5.199218.878907-28.003907-14.355469-41.414063-46.941407-31.628907-76.851563 9.789063-29.910156 39.867188-48.265625 70.941407-43.292968 31.074218 4.972656 53.921874 31.796874 53.886718 63.265624zm0 0" fill="#ffd422" data-original="#FFD422" class="" style="fill:#FFB229" data-old_color="#ffd422"></path><path d="m304.035156 464.070312h-184v-35.359374c.03125-21.636719 14.5-40.589844 35.359375-46.320313l41.761719-11.359375 34.878906 29.039062 34.878906-29.039062 41.761719 11.359375c20.859375 5.730469 35.332031 24.683594 35.359375 46.320313v35.359374zm0 0" fill="#3d9ae2" data-original="#3D9AE2" class="" style="fill:#FFB229" data-old_color="#3d9ae2"></path><path d="m266.914062 371.03125-34.878906 29.039062-34.878906-29.039062 10.878906-2.960938v-22.480468c14.832032 8.640625 33.167969 8.640625 48 0v22.480468zm0 0" fill="#ffdaaa" data-original="#FFDAAA" class=""></path><path d="m280.035156 288.070312v16c.007813 17.136719-9.144531 32.972657-24 41.519532-14.832031 8.640625-33.167968 8.640625-48 0-3.636718-2.070313-6.972656-4.625-9.921875-7.597656-9.042969-8.964844-14.117187-21.1875-14.078125-33.921876v-16h8c20.140625-.011718 39.105469-9.492187 51.199219-25.601562l4.800781-6.398438 3.441406 13.839844c2.710938 10.652344 12.285157 18.121094 23.277344 18.160156zm0 0" fill="#ffdaaa" data-original="#FFDAAA" class=""></path><path d="m256.035156 345.589844v8c-14.832031 8.640625-33.167968 8.640625-48 0v-8c14.832032 8.640625 33.167969 8.640625 48 0zm0 0" fill="#f2ca96" data-original="#F2CA96" class=""></path><path d="m288.035156 264.070312v24h-13.28125c-10.992187-.039062-20.566406-7.507812-23.277344-18.160156l-3.441406-13.839844-4.800781 6.398438c-12.09375 16.109375-31.058594 25.589844-51.199219 25.601562h-16v-24c0-30.929687 25.070313-56 56-56 30.929688 0 56 25.070313 56 56zm0 0" fill="#57565c" data-original="#57565C" class=""></path><path d="m80.035156 88.070312c-2.675781 0-5.171875-1.335937-6.65625-3.558593l-9.34375-14.042969-9.34375 14.042969c-1.570312 2.097656-4.035156 3.332031-6.65625 3.332031s-5.085937-1.234375-6.65625-3.332031l-16-24 13.3125-8.882813 9.34375 14.042969 9.34375-14.015625c1.570313-2.101562 4.035156-3.335938 6.65625-3.335938s5.085938 1.234376 6.65625 3.335938l9.34375 14.015625 9.34375-14.015625 13.3125 8.878906-16 24c-1.488281 2.214844-3.988281 3.542969-6.65625 3.535156zm0 0" fill="#ddb200" data-original="#DDB200" class="" style="fill:#EB7D16" data-old_color="#ddb200"></path><path d="m416.035156 88.070312c-2.675781 0-5.171875-1.335937-6.65625-3.558593l-9.34375-14.042969-9.34375 14.019531c-1.570312 2.097657-4.035156 3.332031-6.65625 3.332031s-5.085937-1.234374-6.65625-3.332031l-16-24 13.3125-8.882812 9.34375 14.066406 9.34375-14.015625c1.570313-2.101562 4.035156-3.335938 6.65625-3.335938s5.085938 1.234376 6.65625 3.335938l9.34375 14.015625 9.34375-14.015625 13.3125 8.878906-16 24c-1.488281 2.214844-3.988281 3.542969-6.65625 3.535156zm0 0" fill="#ddb200" data-original="#DDB200" class="" style="fill:#EB7D16" data-old_color="#ddb200"></path><path d="m152.035156 424.070312h16v40h-16zm0 0" fill="#1e81ce" data-original="#1E81CE" class="" style="fill:#EB7D16" data-old_color="#1e81ce"></path><path d="m296.035156 424.070312h16v40h-16zm0 0" fill="#1e81ce" data-original="#1E81CE" class="" style="fill:#EB7D16" data-old_color="#1e81ce"></path><path d="m280.035156 88.070312c-2.121094 0-4.15625-.84375-5.65625-2.34375l-18.34375-18.34375-18.34375 18.34375c-3.125 3.121094-8.1875 3.121094-11.3125 0l-18.34375-18.34375-18.34375 18.34375c-3.125 3.121094-8.1875 3.121094-11.3125 0l-24-24 11.3125-11.3125 18.34375 18.34375 18.34375-18.34375c3.125-3.121093 8.1875-3.121093 11.3125 0l18.34375 18.34375 18.34375-18.34375c3.125-3.121093 8.1875-3.121093 11.3125 0l18.34375 18.34375 18.34375-18.34375 11.3125 11.3125-24 24c-1.5 1.5-3.535156 2.34375-5.65625 2.34375zm0 0" fill="#ffa733" data-original="#FFA733" class="active-path" style="fill:#ACABB1" data-old_color="#ffa733"></path><path d="m240.035156 104.070312h16v16h-16zm0 0" fill="#ff9811" data-original="#FF9811" class=""></path><path d="m272.035156 104.070312h16v16h-16zm0 0" fill="#ff9811" data-original="#FF9811" class=""></path><path d="m208.035156 104.070312h16v16h-16zm0 0" fill="#ff9811" data-original="#FF9811" class=""></path><path d="m176.035156 104.070312h16v16h-16zm0 0" fill="#ff9811" data-original="#FF9811" class=""></path><g fill="#ffa733"><path d="m40.035156 344.070312h16v16h-16zm0 0" data-original="#FFA733" class="active-path" style="fill:#ACABB1" data-old_color="#FFA733"></path><path d="m72.035156 344.070312h16v32h-16zm0 0" data-original="#FFA733" class="active-path" style="fill:#ACABB1" data-old_color="#FFA733"></path><path d="m72.035156 392.070312h16v16h-16zm0 0" data-original="#FFA733" class="active-path" style="fill:#ACABB1" data-old_color="#FFA733"></path><path d="m408.035156 344.070312h16v16h-16zm0 0" data-original="#FFA733" class="active-path" style="fill:#ACABB1" data-old_color="#FFA733"></path><path d="m376.035156 344.070312h16v32h-16zm0 0" data-original="#FFA733" class="active-path" style="fill:#ACABB1" data-old_color="#FFA733"></path><path d="m376.035156 392.070312h16v16h-16zm0 0" data-original="#FFA733" class="active-path" style="fill:#ACABB1" data-old_color="#FFA733"></path></g></g></svg>