<svg xmlns="http://www.w3.org/2000/svg" height="512" viewBox="0 0 64 64" width="512" class="hovered-paths"><g><g><g id="File-Gear-Management-Control-Paper"><path d="m51.68 41.83a1.959 1.959 0 0 0 .26 2.12l4.1 5.02-7.07 7.07-5.02-4.1a1.959 1.959 0 0 0 -2.12-.26 21.931 21.931 0 0 1 -2.87 1.19 1.972 1.972 0 0 0 -1.32 1.68l-.64 6.45h-10l-.64-6.45a1.972 1.972 0 0 0 -1.32-1.68 21.931 21.931 0 0 1 -2.87-1.19 1.959 1.959 0 0 0 -2.12.26l-5.02 4.1-7.07-7.07 4.1-5.02a1.959 1.959 0 0 0 .26-2.12 21.931 21.931 0 0 1 -1.19-2.87 1.972 1.972 0 0 0 -1.68-1.32l-6.45-.64v-10l6.45-.64a1.972 1.972 0 0 0 1.68-1.32 21.931 21.931 0 0 1 1.19-2.87 1.959 1.959 0 0 0 -.26-2.12l-4.1-5.02 7.07-7.07 5.02 4.1a1.959 1.959 0 0 0 2.12.26 21.931 21.931 0 0 1 2.87-1.19 1.972 1.972 0 0 0 1.32-1.68l.64-6.45h10l.64 6.45a1.972 1.972 0 0 0 1.32 1.68 21.931 21.931 0 0 1 2.87 1.19 1.959 1.959 0 0 0 2.12-.26l5.02-4.1 7.07 7.07-4.1 5.02a1.959 1.959 0 0 0 -.26 2.12 21.931 21.931 0 0 1 1.19 2.87 1.972 1.972 0 0 0 1.68 1.32l6.45.64v10l-6.45.64a1.972 1.972 0 0 0 -1.68 1.32 21.931 21.931 0 0 1 -1.19 2.87z" fill="#ff9811" data-original="#FFB229" class="" style="fill:#FFB229" data-old_color="#ff9811"></path><path d="m35.39 17.39-.39-.09a15.035 15.035 0 0 0 -12 2.7 15 15 0 1 0 12.39-2.61z" fill="#ffd422" data-original="#EB7D16" class="" style="fill:#EB7D16" data-old_color="#ffd422"></path><path d="m41 23h-4a2.006 2.006 0 0 1 -2-2v-4z" fill="#bcbec0" data-original="#BCBEC0"></path><path d="m41 23v18a2.006 2.006 0 0 1 -2 2h-14a2.006 2.006 0 0 1 -2-2v-22a2.006 2.006 0 0 1 2-2h10v4a2.006 2.006 0 0 0 2 2z" fill="#e6e7e8" data-original="#E6E7E8" class=""></path><g fill="#ee8700"><path d="m31 10h2v2h-2z" data-original="#EE8700" class="hovered-path active-path" style="fill:#E6E7E8" data-old_color="#EE8700"></path><path d="m16.151 16.151h2v2h-2z" transform="matrix(.707 -.707 .707 .707 -7.104 17.151)" data-original="#EE8700" class="hovered-path active-path" style="fill:#E6E7E8" data-old_color="#EE8700"></path><path d="m10 31h2v2h-2z" data-original="#EE8700" class="hovered-path active-path" style="fill:#E6E7E8" data-old_color="#EE8700"></path><path d="m16.151 45.849h2v2h-2z" transform="matrix(.707 -.707 .707 .707 -28.104 25.849)" data-original="#EE8700" class="hovered-path active-path" style="fill:#E6E7E8" data-old_color="#EE8700"></path><path d="m31 52h2v2h-2z" data-original="#EE8700" class="hovered-path active-path" style="fill:#E6E7E8" data-old_color="#EE8700"></path><path d="m45.849 45.849h2v2h-2z" transform="matrix(.707 -.707 .707 .707 -19.406 46.849)" data-original="#EE8700" class="hovered-path active-path" style="fill:#E6E7E8" data-old_color="#EE8700"></path><path d="m52 31h2v2h-2z" data-original="#EE8700" class="hovered-path active-path" style="fill:#E6E7E8" data-old_color="#EE8700"></path><path d="m45.849 16.151h2v2h-2z" transform="matrix(.707 -.707 .707 .707 1.594 38.151)" data-original="#EE8700" class="hovered-path active-path" style="fill:#E6E7E8" data-old_color="#EE8700"></path></g><path d="m26 26h12v2h-12z" fill="#c6c5ca" data-original="#C6C5CA" class=""></path><path d="m26 30h12v2h-12z" fill="#c6c5ca" data-original="#C6C5CA" class=""></path><path d="m26 34h12v2h-12z" fill="#c6c5ca" data-original="#C6C5CA" class=""></path><path d="m26 38h12v2h-12z" fill="#c6c5ca" data-original="#C6C5CA" class=""></path><path d="m26 22h6v2h-6z" fill="#c6c5ca" data-original="#C6C5CA" class=""></path></g></g></g></svg>