<svg xmlns="http://www.w3.org/2000/svg" height="512" viewBox="0 0 64 64" width="512" class=""><g><g id="Presentation-Management-Plan-Strategy-Marketing"><path d="m30 45h4v12h-4z" fill="#ff9811" data-original="#FF9811" class=""></path><g fill="#ee8700"><path d="m41 57v4h-18v-4h7 4z" data-original="#EE8700" class=""></path><path d="m3 41h58v4h-58z" data-original="#EE8700" class=""></path><path d="m61 3v4h-3-52-3v-4z" data-original="#EE8700" class=""></path></g><path d="m6 7h52v34h-52z" fill="#5aaae7" data-original="#5AAAE7" class="" style="fill:#E3E9ED" data-old_color="#5aaae7"></path><path d="m5 41v3a2 2 0 0 0 .27 1h19.46a2 2 0 0 0 .27-1v-3z" fill="#cc7400" data-original="#CC7400" class=""></path><path d="m7 44v2 11.54 3.46h6v-17z" fill="#787680" data-original="#787680" class=""></path><path d="m13 44v17h6v-3.46-11.54-2z" fill="#787680" data-original="#787680" class=""></path><path d="m25 35.3v5.7h-19v-8.91a5.942 5.942 0 0 1 2-1.89l.21-.12a7.35 7.35 0 0 1 1.37-.63 7.918 7.918 0 0 1 2.64-.45h.78v-2.41a5.044 5.044 0 0 1 -2.9-3.59h-.1a2 2 0 0 1 -1.89-2.66 2.053 2.053 0 0 1 1.89-1.33v-1.01a5 5 0 1 1 10 0v1.01a2.053 2.053 0 0 1 1.89 1.33 2 2 0 0 1 -1.89 2.66h-.1a5.044 5.044 0 0 1 -2.9 3.59v2.41h.66a8.532 8.532 0 0 1 2.75.46 8.024 8.024 0 0 1 1.49.68l.19.11a5.837 5.837 0 0 1 2.91 5.05z" fill="#3d9ae2" data-original="#3D9AE2" class="" style="fill:#CDCDCD" data-old_color="#3d9ae2"></path><path d="m14 32 1 8-2 3-2-3 1-8z" fill="#ff5023" data-original="#FF5023" class="" style="fill:#EB7D16" data-old_color="#ff5023"></path><path d="m14.87 29.4-.87 2.6h-2l-.87-2.6 1.87-1.4z" fill="#ff5023" data-original="#FF5023" class="" style="fill:#EB7D16" data-old_color="#ff5023"></path><path d="m15.66 27a8.532 8.532 0 0 1 2.75.46l-1.41 3.54-2.13-1.6-1.87-1.4 2-1z" fill="#1a6fb0" data-original="#1A6FB0" class="" style="fill:#EB7D16" data-old_color="#1a6fb0"></path><path d="m11 27 2 1-1.87 1.4-2.13 1.6-1.42-3.55a7.918 7.918 0 0 1 2.64-.45z" fill="#1a6fb0" data-original="#1A6FB0" class="" style="fill:#EB7D16" data-old_color="#1a6fb0"></path><path d="m7.58 27.45 1.42 3.55 2.13-1.6.87 2.6-1 8 2 3v1h-6v-4h-4v-6.6a6 6 0 0 1 3-5.2l.21-.12a7.35 7.35 0 0 1 1.37-.63z" fill="#1e81ce" data-original="#1E81CE" class="" style="fill:#FFB229" data-old_color="#1e81ce"></path><path d="m17 31 1.41-3.54a8.024 8.024 0 0 1 1.49.68l.19.11a5.837 5.837 0 0 1 2.91 5.05v6.7h-4v4h-6v-1l2-3-1-8 .87-2.6z" fill="#1e81ce" data-original="#1E81CE" class="" style="fill:#FFB229" data-old_color="#1e81ce"></path><path d="m9 17v3a4.712 4.712 0 0 0 .1 1h-1.1a2 2 0 0 1 -1.89-2.66 2.066 2.066 0 0 1 1.99-1.34z" fill="#ffb655" data-original="#FFB655" class=""></path><path d="m17 20v-3h.9a2.066 2.066 0 0 1 1.99 1.34 2 2 0 0 1 -1.89 2.66h-1.1a4.712 4.712 0 0 0 .1-1z" fill="#ffb655" data-original="#FFB655" class=""></path><path d="m13 11a4.985 4.985 0 0 1 5 5v1h-1a3 3 0 0 1 -3-3 3 3 0 0 1 -3 3h-3v-1a5 5 0 0 1 5-5z" fill="#57565c" data-original="#57565C" class=""></path><circle cx="45" cy="16" fill="#ffd422" r="3" data-original="#FFD422" class="" style="fill:#FFB229" data-old_color="#ffd422"></circle><path d="m15 24v3l-2 1-2-1v-3z" fill="#ffc477" data-original="#FFC477" class=""></path><path d="m15 24v2.59a5.083 5.083 0 0 1 -4 0v-2.59z" fill="#ffb655" data-original="#FFB655" class=""></path><path d="m18 17v3a4.712 4.712 0 0 1 -.1 1 5.044 5.044 0 0 1 -2.9 3.59 5.083 5.083 0 0 1 -4 0 5.044 5.044 0 0 1 -2.9-3.59 4.712 4.712 0 0 1 -.1-1v-3h3a3 3 0 0 0 3-3 3 3 0 0 0 3 3z" fill="#ffc477" data-original="#FFC477" class=""></path><path d="m6 7h52v2h-52z" fill="#3d9ae2" data-original="#3D9AE2" class="" style="fill:#CDCDCD" data-old_color="#3d9ae2"></path><path d="m30 45h4v2h-4z" fill="#ee8700" data-original="#EE8700" class=""></path><path d="m7 40v4h-2a2.006 2.006 0 0 1 -2-2v-2z" fill="#ffc477" data-original="#FFC477" class=""></path><path d="m23 40v2a2.006 2.006 0 0 1 -2 2h-2v-4z" fill="#ffc477" data-original="#FFC477" class=""></path><path d="m6 34h2v10h-2z" fill="#1a6fb0" data-original="#1A6FB0" class="" style="fill:#EB7D16" data-old_color="#1a6fb0"></path><path d="m18 34h2v10h-2z" fill="#1a6fb0" data-original="#1A6FB0" class="" style="fill:#EB7D16" data-old_color="#1a6fb0"></path><path d="m12 44h2v17h-2z" fill="#57565c" data-original="#57565C" class=""></path><path d="m30.414 13.172-1.414 1.414-1.414-1.414-1.414 1.414 1.414 1.414-1.414 1.414 1.414 1.414 1.414-1.414 1.414 1.414 1.414-1.414-1.414-1.414 1.414-1.414z" fill="#ff9811" data-original="#FF9811" class=""></path><path d="m47.828 29.586-1.414-1.414-1.414 1.414-1.414-1.414-1.414 1.414 1.414 1.414-1.414 1.414 1.414 1.414 1.414-1.414 1.414 1.414 1.414-1.414-1.414-1.414z" fill="#ff9811" data-original="#FF9811" class=""></path><path d="m45 20a4 4 0 1 1 4-4 4 4 0 0 1 -4 4zm0-6a2 2 0 1 0 2 2 2 2 0 0 0 -2-2z" fill="#ebbf00" data-original="#EBBF00" class="active-path" style="fill:#EB7D16" data-old_color="#ebbf00"></path><path d="m39 20h-5v2h2.586l-2.364 2.364a10.926 10.926 0 0 0 -3.222 7.779v3.857h2v-3.857a8.947 8.947 0 0 1 2.636-6.365l2.364-2.364v2.586h2v-5a1 1 0 0 0 -1-1z" fill="#1e81ce" data-original="#1E81CE" class="" style="fill:#FFB229" data-old_color="#1e81ce"></path><path d="m19.83 58.17a4.225 4.225 0 0 0 -.83-.63 3.994 3.994 0 0 0 -6 3.46h8a4.025 4.025 0 0 0 -1.17-2.83z" fill="#3e3d42" data-original="#3E3D42" class="" style="fill:#3E3D42"></path><path d="m11.83 58.17a3.994 3.994 0 0 0 -4.83-.63 3.98 3.98 0 0 0 -2 3.46h8a4.025 4.025 0 0 0 -1.17-2.83z" fill="#3e3d42" data-original="#3E3D42" class="" style="fill:#3E3D42"></path></g></g></svg>