<svg xmlns="http://www.w3.org/2000/svg" height="512" viewBox="0 0 64 64" width="512" class=""><g><g><g id="Artificial_Intelligence-Coding" data-name="Artificial Intelligence-Coding"><path d="m55 14v30h-46v-30a2.006 2.006 0 0 1 2-2h42a2.006 2.006 0 0 1 2 2z" fill="#5aaae7" data-original="#FFB229" class="" style="fill:#FFB229" data-old_color="#5aaae7"></path><path d="m55 44h-46l-6 12h21 16 21z" fill="#acabb1" data-original="#C6C5CA" class="active-path" style="fill:#E3E9ED" data-old_color="#acabb1"></path><path d="m61 56v3a1 1 0 0 1 -1 1h-56a1 1 0 0 1 -1-1v-3z" fill="#898890" data-original="#898890" class=""></path><path d="m38 52 2 4h-16l2-4z" fill="#c6c5ca" data-original="#C6C5CA" class="active-path" style="fill:#E3E9ED" data-old_color="#c6c5ca"></path><path d="m25 19a2 2 0 0 0 .27 1h-.27a1 1 0 0 1 -1-1v-1h1z" fill="#3d9ae2" data-original="#FFCE00" class="" style="fill:#FFCE00" data-old_color="#3d9ae2"></path><path d="m40.73 14h-1.73v-1a2 2 0 0 1 1.73 1z" fill="#3d9ae2" data-original="#FFCE00" class="" style="fill:#FFCE00" data-old_color="#3d9ae2"></path><path d="m41 23.67 2 1.33v10l-2 3v4h-14v-2h12v-4l2-3z" fill="#3d9ae2" data-original="#FFCE00" class="" style="fill:#FFCE00" data-old_color="#3d9ae2"></path><path d="m44 17v2a1 1 0 0 1 -1 1h-2v1a1.986 1.986 0 0 1 -.71 1.52l-2.29-1.52h-1a2.006 2.006 0 0 0 2-2v-1h2a1 1 0 0 0 1-1v-1h1a1 1 0 0 1 1 1z" fill="#3d9ae2" data-original="#FFCE00" class="" style="fill:#FFCE00" data-old_color="#3d9ae2"></path><path d="m38.73 12a2 2 0 0 0 -1.73-1h-10a2 2 0 0 0 -2 2v6a2.006 2.006 0 0 0 2 2h10a2.006 2.006 0 0 0 2-2v-6a2 2 0 0 0 -.27-1z" fill="#ff9811" data-original="#FFB229" class="" style="fill:#FFB229" data-old_color="#ff9811"></path><path d="m42 15v2a1 1 0 0 1 -1 1h-2v-4h2a1 1 0 0 1 1 1z" fill="#ee8700" data-original="#EE8700" class="" style="fill:#EE8700"></path><path d="m25 36h14v4h-14z" fill="#ff9811" data-original="#FFB229" class="" style="fill:#FFB229" data-old_color="#ff9811"></path><path d="m29 18h6v3h-6z" fill="#ffb655" data-original="#FFB655" class=""></path><path d="m25 14v4h-2a1 1 0 0 1 -1-1v-2a1 1 0 0 1 1-1z" fill="#ee8700" data-original="#EE8700" class="" style="fill:#EE8700"></path><g fill="#898890"><path d="m10 51h2v2h-2z" data-original="#898890" class=""></path><path d="m14 51h2v2h-2z" data-original="#898890" class=""></path><path d="m48 51h2v2h-2z" data-original="#898890" class=""></path><path d="m52 51h2v2h-2z" data-original="#898890" class=""></path><path d="m15 47h2v2h-2z" data-original="#898890" class=""></path><path d="m11 47h2v2h-2z" data-original="#898890" class=""></path><path d="m19 47h2v2h-2z" data-original="#898890" class=""></path><path d="m23 47h2v2h-2z" data-original="#898890" class=""></path><path d="m27 47h2v2h-2z" data-original="#898890" class=""></path><path d="m31 47h2v2h-2z" data-original="#898890" class=""></path><path d="m35 47h2v2h-2z" data-original="#898890" class=""></path><path d="m39 47h2v2h-2z" data-original="#898890" class=""></path><path d="m43 47h2v2h-2z" data-original="#898890" class=""></path><path d="m47 47h2v2h-2z" data-original="#898890" class=""></path><path d="m51 47h2v2h-2z" data-original="#898890" class=""></path><path d="m18 51h4v2h-4z" data-original="#898890" class=""></path><path d="m42 51h4v2h-4z" data-original="#898890" class=""></path></g><path d="m31 7h2v4h-2z" fill="#ffa733" data-original="#FFA733" class=""></path><path d="m28 14h2v2h-2z" fill="#cc7400" data-original="#CC7400" class=""></path><path d="m34 14h2v2h-2z" fill="#cc7400" data-original="#CC7400" class=""></path><path d="m47 27.184v-.184a5.006 5.006 0 0 0 -5-5h-3v2h3a3 3 0 0 1 3 3v.184a3 3 0 0 0 -2 2.816h2a1 1 0 0 1 2 0h2a3 3 0 0 0 -2-2.816z" fill="#ff9811" data-original="#FFB229" class="" style="fill:#FFB229" data-old_color="#ff9811"></path><path d="m17 27v.184a3 3 0 0 0 -2 2.816h2a1 1 0 0 1 2 0h2a3 3 0 0 0 -2-2.816v-.184a3 3 0 0 1 3-3h3v-2h-3a5.006 5.006 0 0 0 -5 5z" fill="#ff9811" data-original="#FFB229" class="" style="fill:#FFB229" data-old_color="#ff9811"></path><circle cx="32" cy="6" fill="#ff9811" r="2" data-original="#FFB229" class="" style="fill:#FFB229" data-old_color="#ff9811"></circle><path d="m38 21h-1-2-6-2-1l-3 2v10l2 3h14l2-3v-10z" fill="#ee8700" data-original="#EE8700" class="" style="fill:#EE8700"></path><path d="m31 25h-2a2 2 0 0 0 -2 2v5h2v-2h2v2h2v-5a2 2 0 0 0 -2-2zm-2 3v-1h2v1z" fill="#fff" data-original="#FFF" class=""></path><path d="m35 25h2v7h-2z" fill="#fff" data-original="#FFF" class=""></path></g></g></g></svg>