<svg xmlns="http://www.w3.org/2000/svg" height="512" viewBox="0 0 64 64" width="512" class=""><g><g><g id="Group-Human_Resource-Networking-Meeting-Business" data-name="Group-Human Resource-Networking-Meeting-Business"><circle cx="32" cy="43" fill="#ffa733" r="2" data-original="#FFA733" class="" style="fill:#FFA733"></circle><path d="m33.09 21.82.91-1.82h.78a7.875 7.875 0 0 1 2.64.45l-1.42 3.55z" fill="#1e81ce" data-original="#EB7D16" class="" style="fill:#EB7D16" data-old_color="#1e81ce"></path><path d="m30 20 .91 1.82-2.91 2.18-1.42-3.55a7.875 7.875 0 0 1 2.64-.45z" fill="#1e81ce" data-original="#EB7D16" class="" style="fill:#EB7D16" data-old_color="#1e81ce"></path><path d="m39.09 21.25a6.025 6.025 0 0 1 2.91 5.15v2.6h-20v-2.6a6.025 6.025 0 0 1 2.91-5.15l.19-.11a7.974 7.974 0 0 1 1.48-.69l1.42 3.55 2.91-2.18 1.09 2.18 1.09-2.18 2.91 2.18 1.42-3.55a7.974 7.974 0 0 1 1.48.69z" fill="#3d9ae2" data-original="#FFB229" class="" style="fill:#FFB229" data-old_color="#3d9ae2"></path><path d="m38 9a2 2 0 0 1 0 4h-1.1a4.712 4.712 0 0 0 .1-1v-3z" fill="#ffb655" data-original="#FFB655" class=""></path><path d="m26 13a2 2 0 0 1 0-4h1v3a4.712 4.712 0 0 0 .1 1z" fill="#ffb655" data-original="#FFB655" class=""></path><path d="m37 8v.06h-.09a6.217 6.217 0 0 0 -.91-.06c-3.33 0-4.67 2-8 2a7.23 7.23 0 0 1 -1-.07v-1.93a5 5 0 1 1 10 0z" fill="#57565c" data-original="#57565C" class=""></path><path d="m34 16v4l-.91 1.82-1.09 2.18-1.09-2.18-.91-1.82v-4z" fill="#ffc477" data-original="#FFC477" class=""></path><path d="m34 16v2.59a5.083 5.083 0 0 1 -4 0v-2.59z" fill="#ffb655" data-original="#FFB655" class=""></path><path d="m37 8.06v3.94a4.712 4.712 0 0 1 -.1 1 5.044 5.044 0 0 1 -2.9 3.59 5.083 5.083 0 0 1 -4 0 5.044 5.044 0 0 1 -2.9-3.59 4.712 4.712 0 0 1 -.1-1v-2.07a7.23 7.23 0 0 0 1 .07c3.33 0 4.67-2 8-2a6.217 6.217 0 0 1 .91.06z" fill="#ffc477" data-original="#FFC477" class=""></path><path d="m14.09 53.82.91-1.82h.78a7.875 7.875 0 0 1 2.64.45l-1.42 3.55z" fill="#1e81ce" data-original="#EB7D16" class="" style="fill:#EB7D16" data-old_color="#1e81ce"></path><path d="m11 52 .91 1.82-2.91 2.18-1.42-3.55a7.875 7.875 0 0 1 2.64-.45z" fill="#1e81ce" data-original="#EB7D16" class="" style="fill:#EB7D16" data-old_color="#1e81ce"></path><path d="m20.09 53.25a6.025 6.025 0 0 1 2.91 5.15v2.6h-20v-2.6a6.025 6.025 0 0 1 2.91-5.15l.19-.11a7.974 7.974 0 0 1 1.48-.69l1.42 3.55 2.91-2.18 1.09 2.18 1.09-2.18 2.91 2.18 1.42-3.55a7.974 7.974 0 0 1 1.48.69z" fill="#3d9ae2" data-original="#FFB229" class="" style="fill:#FFB229" data-old_color="#3d9ae2"></path><path d="m19 41a2 2 0 0 1 0 4h-1.1a4.712 4.712 0 0 0 .1-1v-3z" fill="#ffb655" data-original="#FFB655" class=""></path><path d="m7 45a2 2 0 0 1 0-4h1v3a4.712 4.712 0 0 0 .1 1z" fill="#ffb655" data-original="#FFB655" class=""></path><path d="m18 40v.06h-.09a6.217 6.217 0 0 0 -.91-.06c-3.33 0-4.67 2-8 2a7.23 7.23 0 0 1 -1-.07v-1.93a5 5 0 1 1 10 0z" fill="#57565c" data-original="#57565C" class=""></path><path d="m15 48v4l-.91 1.82-1.09 2.18-1.09-2.18-.91-1.82v-4z" fill="#ffc477" data-original="#FFC477" class=""></path><path d="m15 48v2.59a5.083 5.083 0 0 1 -4 0v-2.59z" fill="#ffb655" data-original="#FFB655" class=""></path><path d="m18 40.06v3.94a4.712 4.712 0 0 1 -.1 1 5.044 5.044 0 0 1 -2.9 3.59 5.083 5.083 0 0 1 -4 0 5.044 5.044 0 0 1 -2.9-3.59 4.712 4.712 0 0 1 -.1-1v-2.07a7.23 7.23 0 0 0 1 .07c3.33 0 4.67-2 8-2a6.217 6.217 0 0 1 .91.06z" fill="#ffc477" data-original="#FFC477" class=""></path><path d="m52.09 53.82.91-1.82h.78a7.875 7.875 0 0 1 2.64.45l-1.42 3.55z" fill="#1e81ce" data-original="#EB7D16" class="" style="fill:#EB7D16" data-old_color="#1e81ce"></path><path d="m49 52 .91 1.82-2.91 2.18-1.42-3.55a7.875 7.875 0 0 1 2.64-.45z" fill="#1e81ce" data-original="#EB7D16" class="" style="fill:#EB7D16" data-old_color="#1e81ce"></path><path d="m58.09 53.25a6.025 6.025 0 0 1 2.91 5.15v2.6h-20v-2.6a6.025 6.025 0 0 1 2.91-5.15l.19-.11a7.974 7.974 0 0 1 1.48-.69l1.42 3.55 2.91-2.18 1.09 2.18 1.09-2.18 2.91 2.18 1.42-3.55a7.974 7.974 0 0 1 1.48.69z" fill="#3d9ae2" data-original="#FFB229" class="" style="fill:#FFB229" data-old_color="#3d9ae2"></path><path d="m57 41a2 2 0 0 1 0 4h-1.1a4.712 4.712 0 0 0 .1-1v-3z" fill="#ffb655" data-original="#FFB655" class=""></path><path d="m45 45a2 2 0 0 1 0-4h1v3a4.712 4.712 0 0 0 .1 1z" fill="#ffb655" data-original="#FFB655" class=""></path><path d="m56 40v.06h-.09a6.217 6.217 0 0 0 -.91-.06c-3.33 0-4.67 2-8 2a7.23 7.23 0 0 1 -1-.07v-1.93a5 5 0 1 1 10 0z" fill="#57565c" data-original="#57565C" class=""></path><path d="m53 48v4l-.91 1.82-1.09 2.18-1.09-2.18-.91-1.82v-4z" fill="#ffc477" data-original="#FFC477" class=""></path><path d="m53 48v2.59a5.083 5.083 0 0 1 -4 0v-2.59z" fill="#ffb655" data-original="#FFB655" class=""></path><path d="m56 40.06v3.94a4.712 4.712 0 0 1 -.1 1 5.044 5.044 0 0 1 -2.9 3.59 5.083 5.083 0 0 1 -4 0 5.044 5.044 0 0 1 -2.9-3.59 4.712 4.712 0 0 1 -.1-1v-2.07a7.23 7.23 0 0 0 1 .07c3.33 0 4.67-2 8-2a6.217 6.217 0 0 1 .91.06z" fill="#ffc477" data-original="#FFC477" class=""></path><g fill="#ff9811"><path d="m31 34h2v7h-2z" data-original="#FF9811" class="active-path" style="fill:#BCBEC0" data-old_color="#FF9811"></path><path d="m34 42h6v2h-6z" data-original="#FF9811" class="active-path" style="fill:#BCBEC0" data-old_color="#FF9811"></path><path d="m24 42h6v2h-6z" data-original="#FF9811" class="active-path" style="fill:#BCBEC0" data-old_color="#FF9811"></path></g><path d="m32 46a3 3 0 1 1 3-3 3 3 0 0 1 -3 3zm0-4a1 1 0 1 0 1 1 1 1 0 0 0 -1-1z" fill="#ee8700" data-original="#EE8700" class="" style="fill:#EE8700"></path></g></g></g></svg>