<svg xmlns="http://www.w3.org/2000/svg" height="512" viewBox="0 0 64 64" width="512" class=""><g><g id="Chart-Business-Project-Presentation-Engineer"><path d="m61 45v4h-26-6-26v-4h2 54z" fill="#ee8700" data-original="#EE8700" class="" style="fill:#D5D5D5" data-old_color="#ee8700"></path><path d="m61 7v4h-2-54-2v-4h26 6z" fill="#ee8700" data-original="#EE8700" class="" style="fill:#D5D5D5" data-old_color="#ee8700"></path><path d="m5 11h54v34h-54z" fill="#78b9eb" data-original="#78B9EB" class="" style="fill:#FFB229" data-old_color="#78b9eb"></path><path d="m43.68 32.47a9.8 9.8 0 0 1 -1.09 2.62l2.02 2.69-2.83 2.83-2.69-2.02a9.8 9.8 0 0 1 -2.62 1.09l-.47 3.32h-4l-.47-3.32a9.8 9.8 0 0 1 -2.62-1.09l-2.69 2.02-2.83-2.83 2.02-2.69a9.8 9.8 0 0 1 -1.09-2.62l-3.32-.47v-4l3.32-.47a9.8 9.8 0 0 1 1.09-2.62l-2.02-2.69 2.83-2.83 2.69 2.02a9.8 9.8 0 0 1 2.62-1.09l.47-3.32h4l.47 3.32a9.8 9.8 0 0 1 2.62 1.09l2.69-2.02 2.83 2.83-2.02 2.69a9.8 9.8 0 0 1 1.09 2.62l3.32.47v4z" fill="#3d9ae2" data-original="#3D9AE2" class="" style="fill:#FFCE00" data-old_color="#3d9ae2"></path><path d="m41.68 30.47a9.8 9.8 0 0 1 -1.09 2.62l2.02 2.69-2.83 2.83-2.69-2.02a9.8 9.8 0 0 1 -2.62 1.09l-.47 3.32h-4l-.47-3.32a9.8 9.8 0 0 1 -2.62-1.09l-2.69 2.02-2.83-2.83 2.02-2.69a9.8 9.8 0 0 1 -1.09-2.62l-3.32-.47v-4l3.32-.47a9.8 9.8 0 0 1 1.09-2.62l-2.02-2.69 2.83-2.83 2.69 2.02a9.8 9.8 0 0 1 2.62-1.09l.47-3.32h4l.47 3.32a9.8 9.8 0 0 1 2.62 1.09l2.69-2.02 2.83 2.83-2.02 2.69a9.8 9.8 0 0 1 1.09 2.62l3.32.47v4z" fill="#ff9811" data-original="#FF9811" class=""></path><path d="m42 57v4h-20v-4h7 6z" fill="#aa6100" data-original="#AA6100" class="" style="fill:#C1C1C1" data-old_color="#aa6100"></path><circle cx="32" cy="28" fill="#ffd422" r="5" data-original="#FFD422" class="active-path" style="fill:#D5D5D5" data-old_color="#ffd422"></circle><path d="m29 49h6v8h-6z" fill="#cc7400" data-original="#CC7400" class="" style="fill:#D5D5D5" data-old_color="#cc7400"></path><path d="m29 3h6v4h-6z" fill="#cc7400" data-original="#CC7400" class="" style="fill:#D5D5D5" data-old_color="#cc7400"></path><path d="m5 11h54v2h-54z" fill="#3d9ae2" data-original="#3D9AE2" class="" style="fill:#FFCE00" data-old_color="#3d9ae2"></path><path d="m29 49h6v2h-6z" fill="#aa6100" data-original="#AA6100" class="" style="fill:#C1C1C1" data-old_color="#aa6100"></path><path d="m46.707 19.707-1.414-1.414 2-2a1 1 0 0 1 .707-.293h2v2h-1.586z" fill="#3d9ae2" data-original="#3D9AE2" class="" style="fill:#FFCE00" data-old_color="#3d9ae2"></path><path d="m52 16h4v2h-4z" fill="#1e81ce" data-original="#1E81CE" class="" style="fill:#EB7D16" data-old_color="#1e81ce"></path><path d="m52 20h4v2h-4z" fill="#1e81ce" data-original="#1E81CE" class="" style="fill:#EB7D16" data-old_color="#1e81ce"></path><path d="m16 42h-2v-2h1.586l2.707-2.707 1.414 1.414-3 3a1 1 0 0 1 -.707.293z" fill="#3d9ae2" data-original="#3D9AE2" class="" style="fill:#FFCE00" data-old_color="#3d9ae2"></path><g fill="#1e81ce"><path d="m8 36h4v2h-4z" data-original="#1E81CE" class="" style="fill:#EB7D16" data-old_color="#1E81CE"></path><path d="m8 40h4v2h-4z" data-original="#1E81CE" class="" style="fill:#EB7D16" data-old_color="#1E81CE"></path><path d="m8 14h2v2h-2z" data-original="#1E81CE" class="" style="fill:#EB7D16" data-old_color="#1E81CE"></path><path d="m12 14h4v2h-4z" data-original="#1E81CE" class="" style="fill:#EB7D16" data-old_color="#1E81CE"></path><path d="m8 18h8v2h-8z" data-original="#1E81CE" class="" style="fill:#EB7D16" data-old_color="#1E81CE"></path><path d="m51 36h5v2h-5z" data-original="#1E81CE" class="" style="fill:#EB7D16" data-old_color="#1E81CE"></path><path d="m51 40h5v2h-5z" data-original="#1E81CE" class="" style="fill:#EB7D16" data-old_color="#1E81CE"></path></g><path d="m45 36h4v2h-4z" fill="#3d9ae2" data-original="#3D9AE2" class="" style="fill:#FFCE00" data-old_color="#3d9ae2"></path></g></g></svg>