<svg xmlns="http://www.w3.org/2000/svg" height="512" viewBox="0 0 64 64" width="512" class=""><g><g><g><path d="m61 22v6h-13l-5-7h-24v-6a2.006 2.006 0 0 1 2-2h22l5 7h11a2.006 2.006 0 0 1 2 2z" fill="#ff9811" data-original="#FF9811" class="" style="fill:#FF9811"></path><path d="m55 4v24h-30v-24a1 1 0 0 1 1-1h28a1 1 0 0 1 1 1z" fill="#e6e7e8" data-original="#E6E7E8" class=""></path><path d="m61 28v20a2.006 2.006 0 0 1 -2 2h-38a2.006 2.006 0 0 1 -2-2v-27h24l5 7z" fill="#ffa733" data-original="#FFA733" class="" style="fill:#FFA733"></path><path d="m39 43v6l-4.53.65a3.58 3.58 0 0 1 -.11.35h-13.36a2.006 2.006 0 0 1 -2-2v-19h6l.65 4.53a12.589 12.589 0 0 1 2.6 1.07l3.65-2.74 4.24 4.24-2.74 3.65a12.589 12.589 0 0 1 1.07 2.6z" fill="#ff9811" data-original="#FF9811" class="" style="fill:#FF9811"></path><path d="m32.47 47.65a12.589 12.589 0 0 1 -1.07 2.6l2.74 3.65-4.24 4.24-3.65-2.74a12.589 12.589 0 0 1 -2.6 1.07l-.65 4.53h-6l-.65-4.53a12.589 12.589 0 0 1 -2.6-1.07l-3.65 2.74-4.24-4.24 2.74-3.65a12.589 12.589 0 0 1 -1.07-2.6l-4.53-.65v-6l4.53-.65a12.589 12.589 0 0 1 1.07-2.6l-2.74-3.65 4.24-4.24 3.65 2.74a12.589 12.589 0 0 1 2.6-1.07l.65-4.53h6l.65 4.53a12.589 12.589 0 0 1 2.6 1.07l3.65-2.74 4.24 4.24-2.74 3.65a12.589 12.589 0 0 1 1.07 2.6l4.53.65v6z" fill="#ee8700" data-original="#EE8700" class="active-path" style="fill:#BCBEC0" data-old_color="#ee8700"></path><circle cx="20" cy="44" fill="#ffd422" r="7" data-original="#E3E9ED" class="" style="fill:#E3E9ED" data-old_color="#ffd422"></circle><path d="m55 20h2v8h-2z" fill="#ee8700" data-original="#EE8700" class="active-path" style="fill:#BCBEC0" data-old_color="#ee8700"></path><path d="m23 13h2v8h-2z" fill="#ee8700" data-original="#EE8700" class="active-path" style="fill:#BCBEC0" data-old_color="#ee8700"></path><g fill="#bcbec0"><path d="m30 8h20v2h-20z" data-original="#BCBEC0" class="" style="fill:#BCBEC0"></path><path d="m30 12h20v2h-20z" data-original="#BCBEC0" class="" style="fill:#BCBEC0"></path><path d="m30 16h20v2h-20z" data-original="#BCBEC0" class="" style="fill:#BCBEC0"></path></g></g></g></g></svg>