<svg xmlns="http://www.w3.org/2000/svg" xmlns:xlink="http://www.w3.org/1999/xlink" id="Layer_1" x="0px" y="0px" viewBox="0 0 512 512" style="enable-background:new 0 0 512 512;" xml:space="preserve" width="512px" height="512px"><g><circle style="fill:#FFB229" cx="280" cy="240" r="152" data-original="#FFEC29" class="active-path" data-old_color="#FFEC29"></circle><circle style="fill:#EB7D16" cx="104" cy="416" r="64" data-original="#6EF0F5" class="" data-old_color="#6EF0F5"></circle><g>
	<path style="fill:#403E3E" d="M317.6,168c-17.6-4.8-38.4-8-61.6-8c-24,0-44,2.4-61.6,8l-4.8-15.2c19.2-5.6,40.8-8,66.4-8   c24.8,0,47.2,2.4,66.4,8L317.6,168z" data-original="#403E3E" class="" data-old_color="#403E3E"></path>
	<path style="fill:#403E3E" d="M456,296v-16c22.4,0,40-17.6,40-40h16C512,271.2,487.2,296,456,296z" data-original="#403E3E" class="" data-old_color="#403E3E"></path>
	<path style="fill:#403E3E" d="M188.8,504H128v-77.6c-33.6-22.4-59.2-53.6-71.2-88l15.2-5.6c11.2,32.8,36,61.6,68.8,82.4l4,2.4V488   H180l24-40.8l13.6,8L188.8,504z" data-original="#403E3E" class="" data-old_color="#403E3E"></path>
	<path style="fill:#403E3E" d="M256,464c-34.4,0-67.2-8.8-83.2-16.8l7.2-14.4c15.2,7.2,46.4,15.2,76.8,15.2s61.6-8,76.8-15.2   l7.2,14.4C323.2,455.2,290.4,464,256,464z" data-original="#403E3E" class="" data-old_color="#403E3E"></path>
	<path style="fill:#403E3E" d="M128,280c-17.6,0-32-14.4-32-32h16c0,8.8,7.2,16,16,16s16-7.2,16-16h16C160,265.6,145.6,280,128,280   z" data-original="#403E3E" class="" data-old_color="#403E3E"></path>
	<path style="fill:#403E3E" d="M88,344H24c-6.4,0-12-2.4-16.8-7.2S0,326.4,0,320v-64c0-6.4,2.4-12,7.2-16.8S17.6,232,24,232h34.4   c8-20.8,20.8-39.2,37.6-56V96h8c23.2,0,45.6,8.8,62.4,25.6c1.6,1.6,3.2,4,4.8,5.6l17.6-7.2l5.6,15.2l-28.8,11.2l-4-4.8   c-1.6-1.6-4.8-6.4-7.2-8.8c-12-12-26.4-19.2-43.2-20.8v69.6l-2.4,2.4c-17.6,16.8-30.4,36.8-37.6,57.6l-1.6,5.6H24   c-2.4,0-4,0.8-5.6,2.4c-1.6,1.6-2.4,3.2-2.4,5.6v64c0,2.4,0.8,4,2.4,5.6c1.6,1.6,3.2,2.4,5.6,2.4h64L88,344L88,344z" data-original="#403E3E" class="" data-old_color="#403E3E"></path>
	<path style="fill:#403E3E" d="M384,504h-60.8l-28.8-48l13.6-8l24,40.8h35.2v-70.4l4-2.4c48.8-30.4,76-76.8,76-128   c0-68.8-52-130.4-130.4-152l4-15.2c84.8,24,141.6,91.2,141.6,168c0,55.2-28.8,104.8-80,138.4V504H384z" data-original="#403E3E" class="" data-old_color="#403E3E"></path>
	<rect x="32" y="280" style="fill:#403E3E" width="16" height="16" data-original="#403E3E" class="" data-old_color="#403E3E"></rect>
	<path style="fill:#403E3E" d="M256,288c-10.4,0-20.8-4-28-12c-7.2-7.2-12-17.6-12-28s4-20.8,12-28c7.2-7.2,17.6-12,28-12   s20.8,4,28,12c7.2,7.2,12,17.6,12,28h-16c0-6.4-2.4-12.8-7.2-16.8c-8.8-8.8-24.8-8.8-33.6,0c-4.8,4.8-7.2,10.4-7.2,16.8   s2.4,12.8,7.2,16.8c4.8,4.8,10.4,7.2,16.8,7.2L256,288L256,288z" data-original="#403E3E" class="" data-old_color="#403E3E"></path>
	<path style="fill:#403E3E" d="M256,352c-10.4,0-20.8-4-28-12c-7.2-7.2-12-17.6-12-28h16c0,6.4,2.4,12.8,7.2,16.8   c8.8,8.8,24.8,8.8,33.6,0c4.8-4.8,7.2-10.4,7.2-16.8s-2.4-12.8-7.2-16.8c-4.8-4.8-10.4-7.2-16.8-7.2v-16c10.4,0,20.8,4,28,12   c7.2,7.2,12,17.6,12,28s-4,20.8-12,28C276.8,348,266.4,352,256,352z" data-original="#403E3E" class="" data-old_color="#403E3E"></path>
	<rect x="248" y="192" style="fill:#403E3E" width="16" height="24" data-original="#403E3E" class="" data-old_color="#403E3E"></rect>
	<rect x="248" y="344" style="fill:#403E3E" width="16" height="24" data-original="#403E3E" class="" data-old_color="#403E3E"></rect>
	<path style="fill:#403E3E" d="M283.2,159.2l-8.8-12.8c8.8-5.6,13.6-16,13.6-26.4c0-17.6-14.4-32-32-32s-32,14.4-32,32   c0,10.4,4.8,20,13.6,26.4l-8.8,12.8c-12.8-8.8-20.8-24-20.8-39.2c0-26.4,21.6-48,48-48s48,21.6,48,48   C304,136,296,150.4,283.2,159.2z" data-original="#403E3E" class="" data-old_color="#403E3E"></path>
	<rect x="232" y="8" style="fill:#403E3E" width="16" height="32" data-original="#403E3E" class="" data-old_color="#403E3E"></rect>
	<rect x="264" y="24" style="fill:#403E3E" width="16" height="32" data-original="#403E3E" class="" data-old_color="#403E3E"></rect>
</g></g> </svg>