<svg xmlns="http://www.w3.org/2000/svg" xmlns:xlink="http://www.w3.org/1999/xlink" id="Layer_1" x="0px" y="0px" viewBox="0 0 490.667 490.667" style="enable-background:new 0 0 490.667 490.667;" xml:space="preserve" width="512px" height="512px" class="hovered-paths"><g><g>
	<rect x="42.667" y="42.667" style="fill:#6C747A;" width="21.333" height="42.667" data-original="#6C747A" class=""></rect>
	<rect x="106.667" y="42.667" style="fill:#6C747A;" width="21.333" height="42.667" data-original="#6C747A" class=""></rect>
	<rect x="170.667" y="42.667" style="fill:#6C747A;" width="21.333" height="42.667" data-original="#6C747A" class=""></rect>
	<rect x="234.667" y="42.667" style="fill:#6C747A;" width="21.333" height="42.667" data-original="#6C747A" class=""></rect>
	<rect x="298.667" y="42.667" style="fill:#6C747A;" width="21.333" height="42.667" data-original="#6C747A" class=""></rect>
	<rect x="362.667" y="42.667" style="fill:#6C747A;" width="21.333" height="42.667" data-original="#6C747A" class=""></rect>
	<rect x="426.667" y="42.667" style="fill:#6C747A;" width="21.333" height="42.667" data-original="#6C747A" class=""></rect>
	<polygon style="fill:#6C747A;" points="298.667,448 0,448 0,128 490.667,128 490.667,256 469.333,256 469.333,149.333    21.333,149.333 21.333,426.667 298.667,426.667  " data-original="#6C747A" class=""></polygon>
</g><rect y="64" style="fill:#FFB229" width="490.667" height="85.333" data-original="#A0E8EB" class="" data-old_color="#A0E8EB"></rect><g>
	<rect x="234.667" y="192" style="fill:#6C747A;" width="21.333" height="21.333" data-original="#6C747A" class=""></rect>
	<rect x="192" y="192" style="fill:#6C747A;" width="21.333" height="21.333" data-original="#6C747A" class=""></rect>
	<rect x="277.333" y="192" style="fill:#6C747A;" width="21.333" height="21.333" data-original="#6C747A" class=""></rect>
	<rect x="320" y="192" style="fill:#6C747A;" width="21.333" height="21.333" data-original="#6C747A" class=""></rect>
	<rect x="362.667" y="192" style="fill:#6C747A;" width="21.333" height="21.333" data-original="#6C747A" class=""></rect>
	<rect x="405.333" y="192" style="fill:#6C747A;" width="21.333" height="21.333" data-original="#6C747A" class=""></rect>
	<rect x="64" y="234.667" style="fill:#6C747A;" width="21.333" height="21.333" data-original="#6C747A" class=""></rect>
	<rect x="106.667" y="234.667" style="fill:#6C747A;" width="21.333" height="21.333" data-original="#6C747A" class=""></rect>
	<rect x="149.333" y="234.667" style="fill:#6C747A;" width="21.333" height="21.333" data-original="#6C747A" class=""></rect>
	<rect x="192" y="234.667" style="fill:#6C747A;" width="21.333" height="21.333" data-original="#6C747A" class=""></rect>
	<rect x="234.667" y="234.667" style="fill:#6C747A;" width="21.333" height="21.333" data-original="#6C747A" class=""></rect>
	<rect x="277.333" y="234.667" style="fill:#6C747A;" width="21.333" height="21.333" data-original="#6C747A" class=""></rect>
	<rect x="320" y="234.667" style="fill:#6C747A;" width="21.333" height="21.333" data-original="#6C747A" class=""></rect>
	<rect x="362.667" y="234.667" style="fill:#6C747A;" width="21.333" height="21.333" data-original="#6C747A" class=""></rect>
	<rect x="405.333" y="234.667" style="fill:#6C747A;" width="21.333" height="21.333" data-original="#6C747A" class=""></rect>
	<rect x="64" y="277.333" style="fill:#6C747A;" width="21.333" height="21.333" data-original="#6C747A" class=""></rect>
	<rect x="106.667" y="277.333" style="fill:#6C747A;" width="21.333" height="21.333" data-original="#6C747A" class=""></rect>
	<rect x="149.333" y="277.333" style="fill:#6C747A;" width="21.333" height="21.333" data-original="#6C747A" class=""></rect>
	<rect x="192" y="277.333" style="fill:#6C747A;" width="21.333" height="21.333" data-original="#6C747A" class=""></rect>
	<rect x="234.667" y="277.333" style="fill:#6C747A;" width="21.333" height="21.333" data-original="#6C747A" class=""></rect>
	<rect x="277.333" y="277.333" style="fill:#6C747A;" width="21.333" height="21.333" data-original="#6C747A" class=""></rect>
	<rect x="64" y="320" style="fill:#6C747A;" width="21.333" height="21.333" data-original="#6C747A" class=""></rect>
	<rect x="106.667" y="320" style="fill:#6C747A;" width="21.333" height="21.333" data-original="#6C747A" class=""></rect>
	<rect x="149.333" y="320" style="fill:#6C747A;" width="21.333" height="21.333" data-original="#6C747A" class=""></rect>
	<rect x="192" y="320" style="fill:#6C747A;" width="21.333" height="21.333" data-original="#6C747A" class=""></rect>
	<rect x="234.667" y="320" style="fill:#6C747A;" width="21.333" height="21.333" data-original="#6C747A" class=""></rect>
	<rect x="277.333" y="320" style="fill:#6C747A;" width="21.333" height="21.333" data-original="#6C747A" class=""></rect>
	<rect x="64" y="362.667" style="fill:#6C747A;" width="21.333" height="21.333" data-original="#6C747A" class=""></rect>
	<rect x="106.667" y="362.667" style="fill:#6C747A;" width="21.333" height="21.333" data-original="#6C747A" class=""></rect>
	<rect x="149.333" y="362.667" style="fill:#6C747A;" width="21.333" height="21.333" data-original="#6C747A" class=""></rect>
	<rect x="192" y="362.667" style="fill:#6C747A;" width="21.333" height="21.333" data-original="#6C747A" class=""></rect>
	<rect x="234.667" y="362.667" style="fill:#6C747A;" width="21.333" height="21.333" data-original="#6C747A" class=""></rect>
</g><circle style="fill:#FD7130" cx="405.333" cy="362.667" r="85.333" data-original="#FD7130" class="hovered-path active-path"></circle><polygon style="fill:#FFFFFF;" points="394.667,398.933 365.867,370.133 380.8,355.2 394.667,369.067 429.867,333.867 444.8,348.8   " data-original="#FFFFFF" class=""></polygon><g>
	<rect y="128" style="fill:#446A70" width="490.667" height="21.333" data-original="#446A70" class=""></rect>
	<rect x="42.667" y="64" style="fill:#446A70" width="21.333" height="21.333" data-original="#446A70" class=""></rect>
	<rect x="106.667" y="64" style="fill:#446A70" width="21.333" height="21.333" data-original="#446A70" class=""></rect>
	<rect x="170.667" y="64" style="fill:#446A70" width="21.333" height="21.333" data-original="#446A70" class=""></rect>
	<rect x="234.667" y="64" style="fill:#446A70" width="21.333" height="21.333" data-original="#446A70" class=""></rect>
	<rect x="298.667" y="64" style="fill:#446A70" width="21.333" height="21.333" data-original="#446A70" class=""></rect>
	<rect x="362.667" y="64" style="fill:#446A70" width="21.333" height="21.333" data-original="#446A70" class=""></rect>
	<rect x="426.667" y="64" style="fill:#446A70" width="21.333" height="21.333" data-original="#446A70" class=""></rect>
</g></g> </svg>