<svg xmlns="http://www.w3.org/2000/svg" xmlns:xlink="http://www.w3.org/1999/xlink" id="Layer_1" x="0px" y="0px" viewBox="0 0 512 512" style="enable-background:new 0 0 512 512;" xml:space="preserve" width="512px" height="512px" class=""><g><g>
	<path style="fill:#FFB229" d="M304,136c0,8.8,3.2,16.8,8,24c56,80,112,136,112,240c0,88-64,112-120,112h-96c-56,0-120-24-120-112   c0-104,56-160,112-240c4.8-7.2,8-15.2,8-24" data-original="#E3E3E3" class="active-path" data-old_color="#E3E3E3"></path>
	<path style="fill:#FFB229" d="M304,0c-13.6,0-24,10.4-24,24c0-13.6-10.4-24-24-24s-24,10.4-24,24c0-13.6-10.4-24-24-24   s-24,10.4-24,24l24,80h96l24-80C328,10.4,317.6,0,304,0z" data-original="#E3E3E3" class="active-path" data-old_color="#E3E3E3"></path>
</g><g>
	<rect x="232" y="136" style="fill:#2B2B2B;" width="16" height="32" data-original="#2B2B2B" class=""></rect>
	<rect x="264" y="136" style="fill:#2B2B2B;" width="16" height="32" data-original="#2B2B2B" class=""></rect>
	<rect x="232" y="72" style="fill:#2B2B2B;" width="16" height="32" data-original="#2B2B2B" class=""></rect>
	<rect x="264" y="72" style="fill:#2B2B2B;" width="16" height="32" data-original="#2B2B2B" class=""></rect>
	<path style="fill:#2B2B2B;" d="M304,144h-96c-6.4,0-12.8-2.4-16.8-7.2c-4.8-4.8-7.2-10.4-7.2-16.8s2.4-12.8,7.2-16.8   C196,98.4,201.6,96,208,96h96c6.4,0,12.8,2.4,16.8,7.2s7.2,10.4,7.2,16.8s-2.4,12.8-7.2,16.8S310.4,144,304,144z M208,112   c-2.4,0-4,0.8-5.6,2.4s-2.4,3.2-2.4,5.6s0.8,4,2.4,5.6s3.2,2.4,5.6,2.4h96c2.4,0,4-0.8,5.6-2.4c1.6-1.6,2.4-3.2,2.4-5.6   s-0.8-4-2.4-5.6s-3.2-2.4-5.6-2.4H208z" data-original="#2B2B2B" class=""></path>
</g><circle style="fill:#EB7D16" cx="256" cy="344" r="96" data-original="#FFFFFF" class="" data-old_color="#FFFFFF"></circle><g>
	<path style="fill:#2B2B2B;" d="M256,352c-8.8,0-16.8-3.2-22.4-9.6C227.2,336,224,328,224,320s3.2-16.8,9.6-22.4   c12-12,32.8-12,45.6,0c6.4,6.4,9.6,14.4,9.6,22.4h-16c0-4-1.6-8-4.8-11.2c-6.4-6.4-16.8-6.4-22.4,0c-3.2,3.2-4.8,7.2-4.8,11.2   s1.6,8,4.8,11.2s7.2,4.8,11.2,4.8v16H256z" data-original="#2B2B2B" class=""></path>
	<path style="fill:#2B2B2B;" d="M256,400c-8.8,0-16.8-3.2-22.4-9.6C227.2,384,224,376,224,368h16c0,4,1.6,8,4.8,11.2   c6.4,6.4,16.8,6.4,22.4,0c3.2-3.2,4.8-7.2,4.8-11.2s-1.6-8-4.8-11.2S260,352,256,352v-16c8.8,0,16.8,3.2,22.4,9.6   c6.4,6.4,9.6,14.4,9.6,22.4s-3.2,16.8-9.6,22.4C272.8,396.8,264.8,400,256,400z" data-original="#2B2B2B" class=""></path>
	<rect x="248" y="272" style="fill:#2B2B2B;" width="16" height="24" data-original="#2B2B2B" class=""></rect>
	<rect x="248" y="392" style="fill:#2B2B2B;" width="16" height="24" data-original="#2B2B2B" class=""></rect>
	<rect x="312" y="336" style="fill:#2B2B2B;" width="16" height="16" data-original="#2B2B2B" class=""></rect>
	<rect x="184" y="336" style="fill:#2B2B2B;" width="16" height="16" data-original="#2B2B2B" class=""></rect>
	<path style="fill:#2B2B2B;" d="M88,512H24c-4,0-8-1.6-11.2-4.8S8,500,8,496v-16c0-4,1.6-8,4.8-11.2S20,464,24,464h64   c4,0,8,1.6,11.2,4.8S104,476,104,480v16c0,4-1.6,8-4.8,11.2S92,512,88,512z M24,480v16h64v-16H24z M88,480h8H88L88,480z" data-original="#2B2B2B" class=""></path>
	<path style="fill:#2B2B2B;" d="M88,480H24c-4,0-8-1.6-11.2-4.8S8,468,8,464v-16c0-4,1.6-8,4.8-11.2S20,432,24,432h64   c4,0,8,1.6,11.2,4.8S104,444,104,448v16c0,4-1.6,8-4.8,11.2S92,480,88,480z M24,448v16h64v-16H24z M88,448h8H88L88,448z" data-original="#2B2B2B" class=""></path>
	<path style="fill:#2B2B2B;" d="M88,448H24c-4,0-8-1.6-11.2-4.8S8,436,8,432v-16c0-4,1.6-8,4.8-11.2S20,400,24,400h64   c4,0,8,1.6,11.2,4.8S104,412,104,416v16c0,4-1.6,8-4.8,11.2S92,448,88,448z M24,416v16h64v-16H24z M88,416h8H88L88,416z" data-original="#2B2B2B" class=""></path>
	<path style="fill:#2B2B2B;" d="M88,416H24c-4,0-8-1.6-11.2-4.8S8,404,8,400v-16c0-4,1.6-8,4.8-11.2S20,368,24,368h64   c4,0,8,1.6,11.2,4.8S104,380,104,384v16c0,4-1.6,8-4.8,11.2S92,416,88,416z M24,384v16h64v-16H24z M88,384h8H88L88,384z" data-original="#2B2B2B" class=""></path>
	<path style="fill:#2B2B2B;" d="M488,512h-64c-4,0-8-1.6-11.2-4.8S408,500,408,496v-16c0-4,1.6-8,4.8-11.2S420,464,424,464h64   c4,0,8,1.6,11.2,4.8S504,476,504,480v16c0,4-1.6,8-4.8,11.2S492,512,488,512z M424,480v16h64v-16H424z" data-original="#2B2B2B" class=""></path>
	<path style="fill:#2B2B2B;" d="M488,480h-64c-4,0-8-1.6-11.2-4.8S408,468,408,464v-16c0-4,1.6-8,4.8-11.2S420,432,424,432h64   c4,0,8,1.6,11.2,4.8S504,444,504,448v16c0,4-1.6,8-4.8,11.2S492,480,488,480z M424,448v16h64v-16H424z" data-original="#2B2B2B" class=""></path>
	<path style="fill:#2B2B2B;" d="M488,448h-64c-4,0-8-1.6-11.2-4.8S408,436,408,432v-16c0-4,1.6-8,4.8-11.2S420,400,424,400h64   c4,0,8,1.6,11.2,4.8S504,412,504,416v16c0,4-1.6,8-4.8,11.2S492,448,488,448z M424,416v16h64v-16H424z" data-original="#2B2B2B" class=""></path>
	<path style="fill:#2B2B2B;" d="M488,416h-64c-4,0-8-1.6-11.2-4.8S408,404,408,400v-16c0-4,1.6-8,4.8-11.2S420,368,424,368h64   c4,0,8,1.6,11.2,4.8S504,380,504,384v16c0,4-1.6,8-4.8,11.2S492,416,488,416z M424,384v16h64v-16H424z" data-original="#2B2B2B" class=""></path>
	<path style="fill:#2B2B2B;" d="M488,384h-64c-4,0-8-1.6-11.2-4.8S408,372,408,368v-16c0-4,1.6-8,4.8-11.2S420,336,424,336h64   c4,0,8,1.6,11.2,4.8S504,348,504,352v16c0,4-1.6,8-4.8,11.2S492,384,488,384z M424,352v16h64v-16H424z" data-original="#2B2B2B" class=""></path>
	<path style="fill:#2B2B2B;" d="M488,352h-64c-4,0-8-1.6-11.2-4.8S408,340,408,336v-16c0-4,1.6-8,4.8-11.2S420,304,424,304h64   c4,0,8,1.6,11.2,4.8S504,316,504,320v16c0,4-1.6,8-4.8,11.2S492,352,488,352z M424,320v16h64v-16H424z" data-original="#2B2B2B" class=""></path>
	<path style="fill:#2B2B2B;" d="M488,320h-64c-4,0-8-1.6-11.2-4.8S408,308,408,304v-16c0-4,1.6-8,4.8-11.2S420,272,424,272h64   c4,0,8,1.6,11.2,4.8S504,284,504,288v16c0,4-1.6,8-4.8,11.2S492,320,488,320z M424,288v16h64v-16H424z" data-original="#2B2B2B" class=""></path>
	<path style="fill:#2B2B2B;" d="M408,512h-64c-4,0-8-1.6-11.2-4.8S328,500,328,496v-16c0-4,1.6-8,4.8-11.2S340,464,344,464h64   c4,0,8,1.6,11.2,4.8S424,476,424,480v16c0,4-1.6,8-4.8,11.2S412,512,408,512z M344,480v16h64v-16H344z" data-original="#2B2B2B" class=""></path>
	<path style="fill:#2B2B2B;" d="M408,480h-64c-4,0-8-1.6-11.2-4.8S328,468,328,464v-16c0-4,1.6-8,4.8-11.2S340,432,344,432h64   c4,0,8,1.6,11.2,4.8S424,444,424,448v16c0,4-1.6,8-4.8,11.2S412,480,408,480z M344,448v16h64v-16H344z" data-original="#2B2B2B" class=""></path>
	<path style="fill:#2B2B2B;" d="M88,240H24c-4,0-8-1.6-11.2-4.8S8,228,8,224v-16c0-4,1.6-8,4.8-11.2S20,192,24,192h64   c4,0,8,1.6,11.2,4.8S104,204,104,208v16c0,4-1.6,8-4.8,11.2S92,240,88,240z M24,208v16h64v-16H24z M88,208h8H88L88,208z" data-original="#2B2B2B" class=""></path>
	<rect x="32" y="128" style="fill:#2B2B2B;" width="16" height="48" data-original="#2B2B2B" class=""></rect>
	<rect x="64" y="128" style="fill:#2B2B2B;" width="16" height="16" data-original="#2B2B2B" class=""></rect>
	<rect x="64" y="64" style="fill:#2B2B2B;" width="16" height="48" data-original="#2B2B2B" class=""></rect>
</g></g> </svg>